<svg width="498" height="498" viewBox="0 0 498 498" fill="none" xmlns="http://www.w3.org/2000/svg">
<g opacity="0.5">
<rect width="498" height="498" rx="249" fill="#B6C7AA"/>
</g>
<path d="M38.3991 202V200.159C38.3991 199.636 38.5014 199.102 38.706 198.557C38.9105 198.011 39.1804 197.497 39.5156 197.014C39.8509 196.531 40.2145 196.128 40.6065 195.804L42.2088 196.75C41.8906 197.25 41.6293 197.773 41.4247 198.318C41.2259 198.864 41.1264 199.472 41.1264 200.142V202H38.3991ZM42.7031 202V200.159C42.7031 199.636 42.8054 199.102 43.0099 198.557C43.2145 198.011 43.4844 197.497 43.8196 197.014C44.1548 196.531 44.5185 196.128 44.9105 195.804L46.5128 196.75C46.1946 197.25 45.9332 197.773 45.7287 198.318C45.5298 198.864 45.4304 199.472 45.4304 200.142V202H42.7031ZM48.7202 214V196.545H60.4815V199.588H52.4105V203.747H59.8764V206.79H52.4105V210.957H60.5156V214H48.7202ZM75.5518 200.909L70.9751 214H66.8842L62.3075 200.909H66.1428L68.8615 210.276H68.9979L71.7081 200.909H75.5518ZM82.9538 214.256C81.6072 214.256 80.4482 213.983 79.4766 213.438C78.5107 212.886 77.7663 212.108 77.2436 211.102C76.7209 210.091 76.4595 208.895 76.4595 207.514C76.4595 206.168 76.7209 204.986 77.2436 203.969C77.7663 202.952 78.5021 202.159 79.451 201.591C80.4055 201.023 81.5249 200.739 82.8089 200.739C83.6726 200.739 84.4766 200.878 85.2209 201.156C85.9709 201.429 86.6243 201.841 87.1811 202.392C87.7436 202.943 88.1811 203.636 88.4936 204.472C88.8061 205.301 88.9624 206.273 88.9624 207.386V208.384H77.9084V206.134H85.5447C85.5447 205.611 85.4311 205.148 85.2038 204.744C84.9766 204.341 84.6612 204.026 84.2578 203.798C83.8601 203.565 83.397 203.449 82.8686 203.449C82.3175 203.449 81.8288 203.577 81.4027 203.832C80.9822 204.082 80.6527 204.42 80.4141 204.847C80.1754 205.267 80.0533 205.736 80.0476 206.253V208.392C80.0476 209.04 80.1669 209.599 80.4055 210.071C80.6499 210.543 80.9936 210.906 81.4368 211.162C81.88 211.418 82.4055 211.545 83.0135 211.545C83.4169 211.545 83.7862 211.489 84.1214 211.375C84.4567 211.261 84.7436 211.091 84.9822 210.864C85.2209 210.636 85.4027 210.358 85.5277 210.028L88.8857 210.25C88.7152 211.057 88.3658 211.761 87.8374 212.364C87.3146 212.96 86.6385 213.426 85.8089 213.761C84.9851 214.091 84.0334 214.256 82.9538 214.256ZM91.3317 214V200.909H94.8516V203.193H94.9879C95.2266 202.381 95.6271 201.767 96.1896 201.352C96.7521 200.932 97.3999 200.722 98.1328 200.722C98.3146 200.722 98.5107 200.733 98.7209 200.756C98.9311 200.778 99.1158 200.81 99.2749 200.849V204.071C99.1044 204.02 98.8686 203.974 98.5675 203.935C98.2663 203.895 97.9908 203.875 97.7408 203.875C97.2067 203.875 96.7294 203.991 96.3089 204.224C95.8942 204.452 95.5646 204.77 95.3203 205.179C95.0817 205.588 94.9624 206.06 94.9624 206.594V214H91.3317ZM103.792 218.909C103.332 218.909 102.9 218.872 102.496 218.798C102.099 218.73 101.769 218.642 101.508 218.534L102.326 215.824C102.752 215.955 103.136 216.026 103.477 216.037C103.823 216.048 104.121 215.969 104.371 215.798C104.627 215.628 104.835 215.338 104.994 214.929L105.207 214.375L100.511 200.909H104.329L107.039 210.523H107.175L109.911 200.909H113.755L108.667 215.415C108.423 216.119 108.09 216.733 107.67 217.256C107.255 217.784 106.729 218.19 106.093 218.474C105.457 218.764 104.69 218.909 103.792 218.909ZM132.06 204.642L128.736 204.847C128.679 204.562 128.557 204.307 128.369 204.08C128.182 203.847 127.935 203.662 127.628 203.526C127.327 203.384 126.966 203.312 126.545 203.312C125.983 203.312 125.509 203.432 125.122 203.67C124.736 203.903 124.543 204.216 124.543 204.608C124.543 204.92 124.668 205.185 124.918 205.401C125.168 205.616 125.597 205.79 126.205 205.92L128.574 206.398C129.847 206.659 130.795 207.08 131.42 207.659C132.045 208.239 132.358 209 132.358 209.943C132.358 210.801 132.105 211.554 131.599 212.202C131.099 212.849 130.412 213.355 129.537 213.719C128.668 214.077 127.665 214.256 126.528 214.256C124.795 214.256 123.415 213.895 122.386 213.173C121.364 212.446 120.764 211.457 120.588 210.207L124.159 210.02C124.267 210.548 124.528 210.952 124.943 211.23C125.358 211.503 125.889 211.639 126.537 211.639C127.173 211.639 127.685 211.517 128.071 211.273C128.463 211.023 128.662 210.702 128.668 210.31C128.662 209.98 128.523 209.71 128.25 209.5C127.977 209.284 127.557 209.119 126.989 209.006L124.722 208.554C123.443 208.298 122.491 207.855 121.866 207.224C121.247 206.594 120.938 205.79 120.938 204.812C120.938 203.972 121.165 203.247 121.619 202.639C122.08 202.031 122.724 201.562 123.554 201.233C124.389 200.903 125.366 200.739 126.486 200.739C128.139 200.739 129.44 201.088 130.389 201.787C131.344 202.486 131.901 203.437 132.06 204.642ZM141.607 200.909V203.636H133.724V200.909H141.607ZM135.513 197.773H139.144V209.977C139.144 210.312 139.195 210.574 139.298 210.761C139.4 210.943 139.542 211.071 139.724 211.145C139.911 211.219 140.127 211.256 140.371 211.256C140.542 211.256 140.712 211.241 140.883 211.213C141.053 211.179 141.184 211.153 141.275 211.136L141.846 213.838C141.664 213.895 141.408 213.96 141.079 214.034C140.749 214.114 140.349 214.162 139.877 214.179C139.002 214.213 138.235 214.097 137.576 213.83C136.923 213.562 136.414 213.148 136.05 212.585C135.687 212.023 135.508 211.312 135.513 210.455V197.773ZM152.367 208.426V200.909H155.998V214H152.512V211.622H152.376C152.08 212.389 151.589 213.006 150.901 213.472C150.219 213.937 149.387 214.17 148.404 214.17C147.529 214.17 146.759 213.972 146.094 213.574C145.43 213.176 144.91 212.611 144.535 211.878C144.165 211.145 143.978 210.267 143.972 209.244V200.909H147.603V208.597C147.609 209.369 147.816 209.98 148.225 210.429C148.634 210.878 149.183 211.102 149.87 211.102C150.308 211.102 150.717 211.003 151.097 210.804C151.478 210.599 151.785 210.298 152.018 209.901C152.256 209.503 152.373 209.011 152.367 208.426ZM163.726 214.213C162.732 214.213 161.831 213.957 161.024 213.446C160.223 212.929 159.587 212.17 159.115 211.17C158.649 210.165 158.416 208.932 158.416 207.472C158.416 205.972 158.658 204.724 159.141 203.73C159.624 202.73 160.266 201.983 161.067 201.489C161.874 200.989 162.757 200.739 163.717 200.739C164.45 200.739 165.061 200.864 165.55 201.114C166.044 201.358 166.442 201.665 166.743 202.034C167.05 202.398 167.283 202.756 167.442 203.108H167.553V196.545H171.175V214H167.595V211.903H167.442C167.271 212.267 167.03 212.628 166.717 212.986C166.411 213.338 166.01 213.631 165.516 213.864C165.027 214.097 164.43 214.213 163.726 214.213ZM164.876 211.324C165.462 211.324 165.956 211.165 166.359 210.847C166.768 210.523 167.081 210.071 167.297 209.491C167.518 208.912 167.629 208.233 167.629 207.455C167.629 206.676 167.521 206 167.305 205.426C167.089 204.852 166.777 204.409 166.368 204.097C165.959 203.784 165.462 203.628 164.876 203.628C164.28 203.628 163.777 203.79 163.368 204.114C162.959 204.437 162.649 204.886 162.439 205.46C162.229 206.034 162.124 206.699 162.124 207.455C162.124 208.216 162.229 208.889 162.439 209.474C162.655 210.054 162.964 210.509 163.368 210.838C163.777 211.162 164.28 211.324 164.876 211.324ZM180.126 214.256C178.779 214.256 177.62 213.983 176.648 213.438C175.683 212.886 174.938 212.108 174.415 211.102C173.893 210.091 173.631 208.895 173.631 207.514C173.631 206.168 173.893 204.986 174.415 203.969C174.938 202.952 175.674 202.159 176.623 201.591C177.577 201.023 178.697 200.739 179.981 200.739C180.844 200.739 181.648 200.878 182.393 201.156C183.143 201.429 183.796 201.841 184.353 202.392C184.915 202.943 185.353 203.636 185.665 204.472C185.978 205.301 186.134 206.273 186.134 207.386V208.384H175.08V206.134H182.717C182.717 205.611 182.603 205.148 182.376 204.744C182.148 204.341 181.833 204.026 181.43 203.798C181.032 203.565 180.569 203.449 180.04 203.449C179.489 203.449 179.001 203.577 178.575 203.832C178.154 204.082 177.825 204.42 177.586 204.847C177.347 205.267 177.225 205.736 177.219 206.253V208.392C177.219 209.04 177.339 209.599 177.577 210.071C177.822 210.543 178.165 210.906 178.609 211.162C179.052 211.418 179.577 211.545 180.185 211.545C180.589 211.545 180.958 211.489 181.293 211.375C181.629 211.261 181.915 211.091 182.154 210.864C182.393 210.636 182.575 210.358 182.7 210.028L186.058 210.25C185.887 211.057 185.538 211.761 185.009 212.364C184.487 212.96 183.81 213.426 182.981 213.761C182.157 214.091 181.205 214.256 180.126 214.256ZM192.134 206.432V214H188.504V200.909H191.964V203.219H192.117C192.407 202.457 192.893 201.855 193.575 201.412C194.256 200.963 195.083 200.739 196.055 200.739C196.964 200.739 197.756 200.938 198.433 201.335C199.109 201.733 199.634 202.301 200.009 203.04C200.384 203.773 200.572 204.648 200.572 205.665V214H196.941V206.312C196.947 205.511 196.742 204.886 196.327 204.438C195.913 203.983 195.342 203.756 194.614 203.756C194.126 203.756 193.694 203.861 193.319 204.071C192.95 204.281 192.66 204.588 192.45 204.991C192.245 205.389 192.14 205.869 192.134 206.432ZM210.396 200.909V203.636H202.513V200.909H210.396ZM204.303 197.773H207.933V209.977C207.933 210.312 207.984 210.574 208.087 210.761C208.189 210.943 208.331 211.071 208.513 211.145C208.7 211.219 208.916 211.256 209.161 211.256C209.331 211.256 209.501 211.241 209.672 211.213C209.842 211.179 209.973 211.153 210.064 211.136L210.635 213.838C210.453 213.895 210.197 213.96 209.868 214.034C209.538 214.114 209.138 214.162 208.666 214.179C207.791 214.213 207.024 214.097 206.365 213.83C205.712 213.562 205.203 213.148 204.839 212.585C204.476 212.023 204.297 211.312 204.303 210.455V197.773ZM224.231 214.256C222.89 214.256 221.737 213.972 220.771 213.403C219.81 212.83 219.072 212.034 218.555 211.017C218.043 210 217.788 208.83 217.788 207.506C217.788 206.165 218.046 204.989 218.563 203.977C219.086 202.96 219.827 202.168 220.788 201.599C221.748 201.026 222.89 200.739 224.214 200.739C225.356 200.739 226.356 200.946 227.214 201.361C228.072 201.776 228.751 202.358 229.251 203.108C229.751 203.858 230.026 204.739 230.077 205.75H226.651C226.555 205.097 226.299 204.571 225.884 204.173C225.475 203.77 224.938 203.568 224.273 203.568C223.711 203.568 223.219 203.722 222.799 204.028C222.384 204.33 222.06 204.77 221.827 205.349C221.594 205.929 221.478 206.631 221.478 207.455C221.478 208.29 221.592 209 221.819 209.585C222.052 210.17 222.379 210.616 222.799 210.923C223.219 211.23 223.711 211.384 224.273 211.384C224.688 211.384 225.06 211.298 225.39 211.128C225.725 210.957 226.001 210.71 226.217 210.386C226.438 210.057 226.583 209.662 226.651 209.202H230.077C230.021 210.202 229.748 211.082 229.259 211.844C228.776 212.599 228.109 213.19 227.256 213.616C226.404 214.043 225.396 214.256 224.231 214.256ZM236.135 214.247C235.3 214.247 234.555 214.102 233.902 213.812C233.249 213.517 232.732 213.082 232.351 212.509C231.976 211.929 231.788 211.207 231.788 210.344C231.788 209.616 231.922 209.006 232.189 208.511C232.456 208.017 232.82 207.619 233.28 207.318C233.74 207.017 234.263 206.79 234.848 206.636C235.439 206.483 236.058 206.375 236.706 206.312C237.467 206.233 238.081 206.159 238.547 206.091C239.013 206.017 239.351 205.909 239.561 205.767C239.771 205.625 239.876 205.415 239.876 205.136V205.085C239.876 204.545 239.706 204.128 239.365 203.832C239.03 203.537 238.553 203.389 237.933 203.389C237.28 203.389 236.76 203.534 236.374 203.824C235.987 204.108 235.732 204.466 235.607 204.898L232.249 204.625C232.419 203.83 232.754 203.142 233.254 202.562C233.754 201.977 234.399 201.528 235.189 201.216C235.984 200.898 236.905 200.739 237.95 200.739C238.678 200.739 239.374 200.824 240.038 200.994C240.709 201.165 241.303 201.429 241.82 201.787C242.342 202.145 242.754 202.605 243.055 203.168C243.357 203.724 243.507 204.392 243.507 205.17V214H240.064V212.185H239.962C239.751 212.594 239.47 212.955 239.118 213.267C238.766 213.574 238.342 213.815 237.848 213.991C237.354 214.162 236.783 214.247 236.135 214.247ZM237.175 211.741C237.709 211.741 238.18 211.636 238.589 211.426C238.999 211.21 239.32 210.92 239.553 210.557C239.786 210.193 239.902 209.781 239.902 209.321V207.932C239.788 208.006 239.632 208.074 239.433 208.136C239.24 208.193 239.021 208.247 238.777 208.298C238.533 208.344 238.288 208.386 238.044 208.426C237.8 208.46 237.578 208.491 237.379 208.52C236.953 208.582 236.581 208.682 236.263 208.818C235.945 208.955 235.697 209.139 235.521 209.372C235.345 209.599 235.257 209.884 235.257 210.224C235.257 210.719 235.436 211.097 235.794 211.358C236.158 211.614 236.618 211.741 237.175 211.741ZM249.955 206.432V214H246.324V200.909H249.784V203.219H249.938C250.227 202.457 250.713 201.855 251.395 201.412C252.077 200.963 252.903 200.739 253.875 200.739C254.784 200.739 255.577 200.938 256.253 201.335C256.929 201.733 257.455 202.301 257.83 203.04C258.205 203.773 258.392 204.648 258.392 205.665V214H254.761V206.312C254.767 205.511 254.563 204.886 254.148 204.438C253.733 203.983 253.162 203.756 252.435 203.756C251.946 203.756 251.514 203.861 251.139 204.071C250.77 204.281 250.48 204.588 250.27 204.991C250.065 205.389 249.96 205.869 249.955 206.432ZM270.439 196.545V214H266.808V196.545H270.439ZM279.313 214.256C277.967 214.256 276.808 213.983 275.836 213.438C274.87 212.886 274.126 212.108 273.603 211.102C273.08 210.091 272.819 208.895 272.819 207.514C272.819 206.168 273.08 204.986 273.603 203.969C274.126 202.952 274.862 202.159 275.81 201.591C276.765 201.023 277.884 200.739 279.168 200.739C280.032 200.739 280.836 200.878 281.58 201.156C282.33 201.429 282.984 201.841 283.54 202.392C284.103 202.943 284.54 203.636 284.853 204.472C285.165 205.301 285.322 206.273 285.322 207.386V208.384H274.268V206.134H281.904C281.904 205.611 281.79 205.148 281.563 204.744C281.336 204.341 281.021 204.026 280.617 203.798C280.219 203.565 279.756 203.449 279.228 203.449C278.677 203.449 278.188 203.577 277.762 203.832C277.342 204.082 277.012 204.42 276.773 204.847C276.535 205.267 276.413 205.736 276.407 206.253V208.392C276.407 209.04 276.526 209.599 276.765 210.071C277.009 210.543 277.353 210.906 277.796 211.162C278.239 211.418 278.765 211.545 279.373 211.545C279.776 211.545 280.146 211.489 280.481 211.375C280.816 211.261 281.103 211.091 281.342 210.864C281.58 210.636 281.762 210.358 281.887 210.028L285.245 210.25C285.075 211.057 284.725 211.761 284.197 212.364C283.674 212.96 282.998 213.426 282.168 213.761C281.344 214.091 280.393 214.256 279.313 214.256ZM291.424 214.247C290.589 214.247 289.844 214.102 289.191 213.812C288.538 213.517 288.021 213.082 287.64 212.509C287.265 211.929 287.077 211.207 287.077 210.344C287.077 209.616 287.211 209.006 287.478 208.511C287.745 208.017 288.109 207.619 288.569 207.318C289.029 207.017 289.552 206.79 290.137 206.636C290.728 206.483 291.347 206.375 291.995 206.312C292.756 206.233 293.37 206.159 293.836 206.091C294.302 206.017 294.64 205.909 294.85 205.767C295.06 205.625 295.165 205.415 295.165 205.136V205.085C295.165 204.545 294.995 204.128 294.654 203.832C294.319 203.537 293.842 203.389 293.222 203.389C292.569 203.389 292.049 203.534 291.663 203.824C291.276 204.108 291.021 204.466 290.896 204.898L287.538 204.625C287.708 203.83 288.043 203.142 288.543 202.562C289.043 201.977 289.688 201.528 290.478 201.216C291.273 200.898 292.194 200.739 293.239 200.739C293.967 200.739 294.663 200.824 295.327 200.994C295.998 201.165 296.592 201.429 297.109 201.787C297.631 202.145 298.043 202.605 298.344 203.168C298.646 203.724 298.796 204.392 298.796 205.17V214H295.353V212.185H295.251C295.04 212.594 294.759 212.955 294.407 213.267C294.055 213.574 293.631 213.815 293.137 213.991C292.643 214.162 292.072 214.247 291.424 214.247ZM292.464 211.741C292.998 211.741 293.469 211.636 293.879 211.426C294.288 211.21 294.609 210.92 294.842 210.557C295.075 210.193 295.191 209.781 295.191 209.321V207.932C295.077 208.006 294.921 208.074 294.722 208.136C294.529 208.193 294.31 208.247 294.066 208.298C293.822 208.344 293.577 208.386 293.333 208.426C293.089 208.46 292.867 208.491 292.668 208.52C292.242 208.582 291.87 208.682 291.552 208.818C291.234 208.955 290.987 209.139 290.81 209.372C290.634 209.599 290.546 209.884 290.546 210.224C290.546 210.719 290.725 211.097 291.083 211.358C291.447 211.614 291.907 211.741 292.464 211.741ZM301.613 214V200.909H305.133V203.193H305.269C305.508 202.381 305.908 201.767 306.471 201.352C307.033 200.932 307.681 200.722 308.414 200.722C308.596 200.722 308.792 200.733 309.002 200.756C309.212 200.778 309.397 200.81 309.556 200.849V204.071C309.386 204.02 309.15 203.974 308.849 203.935C308.548 203.895 308.272 203.875 308.022 203.875C307.488 203.875 307.011 203.991 306.59 204.224C306.175 204.452 305.846 204.77 305.602 205.179C305.363 205.588 305.244 206.06 305.244 206.594V214H301.613ZM315.064 206.432V214H311.433V200.909H314.893V203.219H315.047C315.337 202.457 315.822 201.855 316.504 201.412C317.186 200.963 318.013 200.739 318.984 200.739C319.893 200.739 320.686 200.938 321.362 201.335C322.038 201.733 322.564 202.301 322.939 203.04C323.314 203.773 323.501 204.648 323.501 205.665V214H319.871V206.312C319.876 205.511 319.672 204.886 319.257 204.438C318.842 203.983 318.271 203.756 317.544 203.756C317.055 203.756 316.624 203.861 316.249 204.071C315.879 204.281 315.589 204.588 315.379 204.991C315.175 205.389 315.07 205.869 315.064 206.432ZM330.309 211.614L330.215 212.551C330.141 213.301 329.999 214.048 329.789 214.793C329.585 215.543 329.369 216.222 329.141 216.83C328.92 217.438 328.741 217.915 328.604 218.261H326.252C326.337 217.926 326.454 217.457 326.602 216.855C326.749 216.259 326.888 215.588 327.019 214.844C327.15 214.099 327.232 213.341 327.266 212.568L327.309 211.614H330.309ZM338.363 200.909H341.994V214.648C341.994 215.659 341.795 216.477 341.397 217.102C340.999 217.727 340.428 218.185 339.684 218.474C338.945 218.764 338.062 218.909 337.033 218.909C336.908 218.909 336.789 218.906 336.675 218.901C336.556 218.901 336.431 218.898 336.3 218.892V216.054C336.397 216.06 336.482 216.062 336.556 216.062C336.624 216.068 336.698 216.071 336.778 216.071C337.363 216.071 337.772 215.946 338.005 215.696C338.244 215.452 338.363 215.082 338.363 214.588V200.909ZM340.17 199.222C339.636 199.222 339.175 199.043 338.789 198.685C338.403 198.321 338.21 197.886 338.21 197.381C338.21 196.881 338.403 196.452 338.789 196.094C339.175 195.73 339.636 195.548 340.17 195.548C340.715 195.548 341.178 195.73 341.559 196.094C341.945 196.452 342.138 196.881 342.138 197.381C342.138 197.886 341.945 198.321 341.559 198.685C341.178 199.043 340.715 199.222 340.17 199.222ZM353.297 208.426V200.909H356.928V214H353.442V211.622H353.305C353.01 212.389 352.518 213.006 351.831 213.472C351.149 213.937 350.317 214.17 349.334 214.17C348.459 214.17 347.689 213.972 347.024 213.574C346.359 213.176 345.839 212.611 345.464 211.878C345.095 211.145 344.908 210.267 344.902 209.244V200.909H348.533V208.597C348.538 209.369 348.746 209.98 349.155 210.429C349.564 210.878 350.112 211.102 350.8 211.102C351.237 211.102 351.646 211.003 352.027 210.804C352.408 210.599 352.714 210.298 352.947 209.901C353.186 209.503 353.303 209.011 353.297 208.426ZM370.724 204.642L367.4 204.847C367.343 204.562 367.221 204.307 367.033 204.08C366.846 203.847 366.599 203.662 366.292 203.526C365.991 203.384 365.63 203.312 365.21 203.312C364.647 203.312 364.173 203.432 363.786 203.67C363.4 203.903 363.207 204.216 363.207 204.608C363.207 204.92 363.332 205.185 363.582 205.401C363.832 205.616 364.261 205.79 364.869 205.92L367.238 206.398C368.511 206.659 369.46 207.08 370.085 207.659C370.71 208.239 371.022 209 371.022 209.943C371.022 210.801 370.769 211.554 370.263 212.202C369.763 212.849 369.076 213.355 368.201 213.719C367.332 214.077 366.329 214.256 365.192 214.256C363.46 214.256 362.079 213.895 361.05 213.173C360.028 212.446 359.428 211.457 359.252 210.207L362.823 210.02C362.931 210.548 363.192 210.952 363.607 211.23C364.022 211.503 364.553 211.639 365.201 211.639C365.837 211.639 366.349 211.517 366.735 211.273C367.127 211.023 367.326 210.702 367.332 210.31C367.326 209.98 367.187 209.71 366.914 209.5C366.641 209.284 366.221 209.119 365.653 209.006L363.386 208.554C362.107 208.298 361.156 207.855 360.531 207.224C359.911 206.594 359.602 205.79 359.602 204.812C359.602 203.972 359.829 203.247 360.283 202.639C360.744 202.031 361.388 201.562 362.218 201.233C363.053 200.903 364.031 200.739 365.15 200.739C366.803 200.739 368.104 201.088 369.053 201.787C370.008 202.486 370.565 203.437 370.724 204.642ZM380.271 200.909V203.636H372.388V200.909H380.271ZM374.178 197.773H377.808V209.977C377.808 210.312 377.859 210.574 377.962 210.761C378.064 210.943 378.206 211.071 378.388 211.145C378.575 211.219 378.791 211.256 379.036 211.256C379.206 211.256 379.376 211.241 379.547 211.213C379.717 211.179 379.848 211.153 379.939 211.136L380.51 213.838C380.328 213.895 380.072 213.96 379.743 214.034C379.413 214.114 379.013 214.162 378.541 214.179C377.666 214.213 376.899 214.097 376.24 213.83C375.587 213.562 375.078 213.148 374.714 212.585C374.351 212.023 374.172 211.312 374.178 210.455V197.773ZM391.822 206.432V214H388.191V200.909H391.651V203.219H391.805C392.094 202.457 392.58 201.855 393.262 201.412C393.944 200.963 394.771 200.739 395.742 200.739C396.651 200.739 397.444 200.938 398.12 201.335C398.796 201.733 399.322 202.301 399.697 203.04C400.072 203.773 400.259 204.648 400.259 205.665V214H396.629V206.312C396.634 205.511 396.43 204.886 396.015 204.438C395.6 203.983 395.029 203.756 394.302 203.756C393.813 203.756 393.381 203.861 393.006 204.071C392.637 204.281 392.347 204.588 392.137 204.991C391.933 205.389 391.827 205.869 391.822 206.432ZM409.036 214.256C407.712 214.256 406.567 213.974 405.601 213.412C404.641 212.844 403.899 212.054 403.376 211.043C402.854 210.026 402.592 208.847 402.592 207.506C402.592 206.153 402.854 204.972 403.376 203.96C403.899 202.943 404.641 202.153 405.601 201.591C406.567 201.023 407.712 200.739 409.036 200.739C410.359 200.739 411.501 201.023 412.462 201.591C413.428 202.153 414.172 202.943 414.695 203.96C415.217 204.972 415.479 206.153 415.479 207.506C415.479 208.847 415.217 210.026 414.695 211.043C414.172 212.054 413.428 212.844 412.462 213.412C411.501 213.974 410.359 214.256 409.036 214.256ZM409.053 211.443C409.655 211.443 410.158 211.273 410.561 210.932C410.964 210.585 411.268 210.114 411.473 209.517C411.683 208.92 411.788 208.241 411.788 207.48C411.788 206.719 411.683 206.04 411.473 205.443C411.268 204.847 410.964 204.375 410.561 204.028C410.158 203.682 409.655 203.509 409.053 203.509C408.445 203.509 407.933 203.682 407.518 204.028C407.109 204.375 406.8 204.847 406.589 205.443C406.385 206.04 406.283 206.719 406.283 207.48C406.283 208.241 406.385 208.92 406.589 209.517C406.8 210.114 407.109 210.585 407.518 210.932C407.933 211.273 408.445 211.443 409.053 211.443ZM424.803 200.909V203.636H416.919V200.909H424.803ZM418.709 197.773H422.339V209.977C422.339 210.312 422.391 210.574 422.493 210.761C422.595 210.943 422.737 211.071 422.919 211.145C423.107 211.219 423.322 211.256 423.567 211.256C423.737 211.256 423.908 211.241 424.078 211.213C424.249 211.179 424.379 211.153 424.47 211.136L425.041 213.838C424.859 213.895 424.604 213.96 424.274 214.034C423.945 214.114 423.544 214.162 423.072 214.179C422.197 214.213 421.43 214.097 420.771 213.83C420.118 213.562 419.609 213.148 419.246 212.585C418.882 212.023 418.703 211.312 418.709 210.455V197.773ZM438.637 214.256C437.313 214.256 436.168 213.974 435.202 213.412C434.242 212.844 433.501 212.054 432.978 211.043C432.455 210.026 432.194 208.847 432.194 207.506C432.194 206.153 432.455 204.972 432.978 203.96C433.501 202.943 434.242 202.153 435.202 201.591C436.168 201.023 437.313 200.739 438.637 200.739C439.961 200.739 441.103 201.023 442.063 201.591C443.029 202.153 443.773 202.943 444.296 203.96C444.819 204.972 445.08 206.153 445.08 207.506C445.08 208.847 444.819 210.026 444.296 211.043C443.773 212.054 443.029 212.844 442.063 213.412C441.103 213.974 439.961 214.256 438.637 214.256ZM438.654 211.443C439.256 211.443 439.759 211.273 440.163 210.932C440.566 210.585 440.87 210.114 441.075 209.517C441.285 208.92 441.39 208.241 441.39 207.48C441.39 206.719 441.285 206.04 441.075 205.443C440.87 204.847 440.566 204.375 440.163 204.028C439.759 203.682 439.256 203.509 438.654 203.509C438.046 203.509 437.535 203.682 437.12 204.028C436.711 204.375 436.401 204.847 436.191 205.443C435.987 206.04 435.884 206.719 435.884 207.48C435.884 208.241 435.987 208.92 436.191 209.517C436.401 210.114 436.711 210.585 437.12 210.932C437.535 211.273 438.046 211.443 438.654 211.443ZM451.072 206.432V214H447.441V200.909H450.901V203.219H451.055C451.344 202.457 451.83 201.855 452.512 201.412C453.194 200.963 454.021 200.739 454.992 200.739C455.901 200.739 456.694 200.938 457.37 201.335C458.046 201.733 458.572 202.301 458.947 203.04C459.322 203.773 459.509 204.648 459.509 205.665V214H455.879V206.312C455.884 205.511 455.68 204.886 455.265 204.438C454.85 203.983 454.279 203.756 453.552 203.756C453.063 203.756 452.631 203.861 452.256 204.071C451.887 204.281 451.597 204.588 451.387 204.991C451.183 205.389 451.077 205.869 451.072 206.432ZM237.947 229.909V232.636H230.064V229.909H237.947ZM231.853 226.773H235.484V238.977C235.484 239.312 235.535 239.574 235.637 239.761C235.74 239.943 235.882 240.071 236.064 240.145C236.251 240.219 236.467 240.256 236.711 240.256C236.882 240.256 237.052 240.241 237.223 240.213C237.393 240.179 237.524 240.153 237.615 240.136L238.186 242.838C238.004 242.895 237.748 242.96 237.419 243.034C237.089 243.114 236.689 243.162 236.217 243.179C235.342 243.213 234.575 243.097 233.916 242.83C233.262 242.562 232.754 242.148 232.39 241.585C232.027 241.023 231.848 240.312 231.853 239.455V226.773ZM244.224 235.432V243H240.593V225.545H244.122V232.219H244.275C244.571 231.446 245.048 230.841 245.707 230.403C246.366 229.96 247.193 229.739 248.187 229.739C249.096 229.739 249.889 229.938 250.565 230.335C251.247 230.727 251.775 231.293 252.15 232.031C252.531 232.764 252.718 233.642 252.713 234.665V243H249.082V235.312C249.088 234.506 248.883 233.878 248.468 233.429C248.059 232.98 247.485 232.756 246.747 232.756C246.252 232.756 245.815 232.861 245.434 233.071C245.059 233.281 244.764 233.588 244.548 233.991C244.338 234.389 244.23 234.869 244.224 235.432ZM261.536 243.256C260.189 243.256 259.03 242.983 258.059 242.438C257.093 241.886 256.348 241.108 255.826 240.102C255.303 239.091 255.042 237.895 255.042 236.514C255.042 235.168 255.303 233.986 255.826 232.969C256.348 231.952 257.084 231.159 258.033 230.591C258.988 230.023 260.107 229.739 261.391 229.739C262.255 229.739 263.059 229.878 263.803 230.156C264.553 230.429 265.206 230.841 265.763 231.392C266.326 231.943 266.763 232.636 267.076 233.472C267.388 234.301 267.544 235.273 267.544 236.386V237.384H256.49V235.134H264.127C264.127 234.611 264.013 234.148 263.786 233.744C263.559 233.341 263.243 233.026 262.84 232.798C262.442 232.565 261.979 232.449 261.451 232.449C260.9 232.449 260.411 232.577 259.985 232.832C259.564 233.082 259.235 233.42 258.996 233.847C258.757 234.267 258.635 234.736 258.63 235.253V237.392C258.63 238.04 258.749 238.599 258.988 239.071C259.232 239.543 259.576 239.906 260.019 240.162C260.462 240.418 260.988 240.545 261.596 240.545C261.999 240.545 262.368 240.489 262.703 240.375C263.039 240.261 263.326 240.091 263.564 239.864C263.803 239.636 263.985 239.358 264.11 239.028L267.468 239.25C267.297 240.057 266.948 240.761 266.419 241.364C265.897 241.96 265.221 242.426 264.391 242.761C263.567 243.091 262.615 243.256 261.536 243.256ZM86.169 262.642L82.8452 262.847C82.7884 262.562 82.6662 262.307 82.4787 262.08C82.2912 261.847 82.044 261.662 81.7372 261.526C81.4361 261.384 81.0753 261.312 80.6548 261.312C80.0923 261.312 79.6179 261.432 79.2315 261.67C78.8452 261.903 78.652 262.216 78.652 262.608C78.652 262.92 78.777 263.185 79.027 263.401C79.277 263.616 79.706 263.79 80.3139 263.92L82.6832 264.398C83.956 264.659 84.9048 265.08 85.5298 265.659C86.1548 266.239 86.4673 267 86.4673 267.943C86.4673 268.801 86.2145 269.554 85.7088 270.202C85.2088 270.849 84.5213 271.355 83.6463 271.719C82.777 272.077 81.7741 272.256 80.6378 272.256C78.9048 272.256 77.5241 271.895 76.4957 271.173C75.473 270.446 74.8736 269.457 74.6974 268.207L78.2685 268.02C78.3764 268.548 78.6378 268.952 79.0526 269.23C79.4673 269.503 79.9986 269.639 80.6463 269.639C81.2827 269.639 81.794 269.517 82.1804 269.273C82.5724 269.023 82.7713 268.702 82.777 268.31C82.7713 267.98 82.6321 267.71 82.3594 267.5C82.0866 267.284 81.6662 267.119 81.098 267.006L78.831 266.554C77.5526 266.298 76.6009 265.855 75.9759 265.224C75.3565 264.594 75.0469 263.79 75.0469 262.812C75.0469 261.972 75.2741 261.247 75.7287 260.639C76.1889 260.031 76.8338 259.562 77.6634 259.233C78.4986 258.903 79.4759 258.739 80.5952 258.739C82.2486 258.739 83.5497 259.088 84.4986 259.787C85.4531 260.486 86.0099 261.437 86.169 262.642ZM92.4865 272.247C91.6513 272.247 90.907 272.102 90.2536 271.812C89.6001 271.517 89.0831 271.082 88.7024 270.509C88.3274 269.929 88.1399 269.207 88.1399 268.344C88.1399 267.616 88.2734 267.006 88.5405 266.511C88.8075 266.017 89.1712 265.619 89.6314 265.318C90.0916 265.017 90.6143 264.79 91.1996 264.636C91.7905 264.483 92.4098 264.375 93.0575 264.312C93.8189 264.233 94.4325 264.159 94.8984 264.091C95.3643 264.017 95.7024 263.909 95.9126 263.767C96.1229 263.625 96.228 263.415 96.228 263.136V263.085C96.228 262.545 96.0575 262.128 95.7166 261.832C95.3814 261.537 94.9041 261.389 94.2848 261.389C93.6314 261.389 93.1115 261.534 92.7251 261.824C92.3388 262.108 92.0831 262.466 91.9581 262.898L88.6001 262.625C88.7706 261.83 89.1058 261.142 89.6058 260.562C90.1058 259.977 90.7507 259.528 91.5405 259.216C92.3359 258.898 93.2564 258.739 94.3018 258.739C95.0291 258.739 95.7251 258.824 96.3899 258.994C97.0604 259.165 97.6541 259.429 98.1712 259.787C98.6939 260.145 99.1058 260.605 99.407 261.168C99.7081 261.724 99.8587 262.392 99.8587 263.17V272H96.4155V270.185H96.3132C96.103 270.594 95.8217 270.955 95.4695 271.267C95.1172 271.574 94.6939 271.815 94.1996 271.991C93.7053 272.162 93.1342 272.247 92.4865 272.247ZM93.5263 269.741C94.0604 269.741 94.532 269.636 94.9411 269.426C95.3501 269.21 95.6712 268.92 95.9041 268.557C96.1371 268.193 96.2536 267.781 96.2536 267.321V265.932C96.1399 266.006 95.9837 266.074 95.7848 266.136C95.5916 266.193 95.3729 266.247 95.1286 266.298C94.8842 266.344 94.6399 266.386 94.3956 266.426C94.1513 266.46 93.9297 266.491 93.7308 266.52C93.3047 266.582 92.9325 266.682 92.6143 266.818C92.2962 266.955 92.049 267.139 91.8729 267.372C91.6967 267.599 91.6087 267.884 91.6087 268.224C91.6087 268.719 91.7876 269.097 92.1456 269.358C92.5092 269.614 92.9695 269.741 93.5263 269.741ZM102.675 272V258.909H106.136V261.219H106.289C106.562 260.452 107.016 259.847 107.653 259.403C108.289 258.96 109.05 258.739 109.937 258.739C110.835 258.739 111.599 258.963 112.229 259.412C112.86 259.855 113.281 260.457 113.491 261.219H113.627C113.894 260.469 114.377 259.869 115.076 259.42C115.781 258.966 116.613 258.739 117.573 258.739C118.795 258.739 119.786 259.128 120.548 259.906C121.315 260.679 121.698 261.776 121.698 263.196V272H118.076V263.912C118.076 263.185 117.883 262.639 117.496 262.276C117.11 261.912 116.627 261.73 116.048 261.73C115.388 261.73 114.874 261.94 114.505 262.361C114.136 262.776 113.951 263.324 113.951 264.006V272H110.431V263.835C110.431 263.193 110.246 262.682 109.877 262.301C109.513 261.92 109.033 261.73 108.437 261.73C108.033 261.73 107.67 261.832 107.346 262.037C107.028 262.236 106.775 262.517 106.587 262.881C106.4 263.239 106.306 263.659 106.306 264.142V272H102.675ZM130.532 272.256C129.185 272.256 128.026 271.983 127.055 271.438C126.089 270.886 125.344 270.108 124.822 269.102C124.299 268.091 124.038 266.895 124.038 265.514C124.038 264.168 124.299 262.986 124.822 261.969C125.344 260.952 126.08 260.159 127.029 259.591C127.984 259.023 129.103 258.739 130.387 258.739C131.251 258.739 132.055 258.878 132.799 259.156C133.549 259.429 134.202 259.841 134.759 260.392C135.322 260.943 135.759 261.636 136.072 262.472C136.384 263.301 136.54 264.273 136.54 265.386V266.384H125.487V264.134H133.123C133.123 263.611 133.009 263.148 132.782 262.744C132.555 262.341 132.239 262.026 131.836 261.798C131.438 261.565 130.975 261.449 130.447 261.449C129.896 261.449 129.407 261.577 128.981 261.832C128.56 262.082 128.231 262.42 127.992 262.847C127.754 263.267 127.631 263.736 127.626 264.253V266.392C127.626 267.04 127.745 267.599 127.984 268.071C128.228 268.543 128.572 268.906 129.015 269.162C129.458 269.418 129.984 269.545 130.592 269.545C130.995 269.545 131.364 269.489 131.7 269.375C132.035 269.261 132.322 269.091 132.56 268.864C132.799 268.636 132.981 268.358 133.106 268.028L136.464 268.25C136.293 269.057 135.944 269.761 135.415 270.364C134.893 270.96 134.217 271.426 133.387 271.761C132.563 272.091 131.612 272.256 130.532 272.256ZM149.288 272.213C148.294 272.213 147.393 271.957 146.587 271.446C145.786 270.929 145.149 270.17 144.678 269.17C144.212 268.165 143.979 266.932 143.979 265.472C143.979 263.972 144.22 262.724 144.703 261.73C145.186 260.73 145.828 259.983 146.629 259.489C147.436 258.989 148.32 258.739 149.28 258.739C150.013 258.739 150.624 258.864 151.112 259.114C151.607 259.358 152.004 259.665 152.305 260.034C152.612 260.398 152.845 260.756 153.004 261.108H153.115V254.545H156.737V272H153.158V269.903H153.004C152.834 270.267 152.592 270.628 152.28 270.986C151.973 271.338 151.572 271.631 151.078 271.864C150.589 272.097 149.993 272.213 149.288 272.213ZM150.439 269.324C151.024 269.324 151.518 269.165 151.922 268.847C152.331 268.523 152.643 268.071 152.859 267.491C153.081 266.912 153.192 266.233 153.192 265.455C153.192 264.676 153.084 264 152.868 263.426C152.652 262.852 152.339 262.409 151.93 262.097C151.521 261.784 151.024 261.628 150.439 261.628C149.842 261.628 149.339 261.79 148.93 262.114C148.521 262.437 148.212 262.886 148.001 263.46C147.791 264.034 147.686 264.699 147.686 265.455C147.686 266.216 147.791 266.889 148.001 267.474C148.217 268.054 148.527 268.509 148.93 268.838C149.339 269.162 149.842 269.324 150.439 269.324ZM163.455 272.247C162.62 272.247 161.876 272.102 161.222 271.812C160.569 271.517 160.052 271.082 159.671 270.509C159.296 269.929 159.109 269.207 159.109 268.344C159.109 267.616 159.242 267.006 159.509 266.511C159.776 266.017 160.14 265.619 160.6 265.318C161.06 265.017 161.583 264.79 162.168 264.636C162.759 264.483 163.379 264.375 164.026 264.312C164.788 264.233 165.401 264.159 165.867 264.091C166.333 264.017 166.671 263.909 166.881 263.767C167.092 263.625 167.197 263.415 167.197 263.136V263.085C167.197 262.545 167.026 262.128 166.685 261.832C166.35 261.537 165.873 261.389 165.254 261.389C164.6 261.389 164.08 261.534 163.694 261.824C163.308 262.108 163.052 262.466 162.927 262.898L159.569 262.625C159.739 261.83 160.075 261.142 160.575 260.562C161.075 259.977 161.719 259.528 162.509 259.216C163.305 258.898 164.225 258.739 165.271 258.739C165.998 258.739 166.694 258.824 167.359 258.994C168.029 259.165 168.623 259.429 169.14 259.787C169.663 260.145 170.075 260.605 170.376 261.168C170.677 261.724 170.827 262.392 170.827 263.17V272H167.384V270.185H167.282C167.072 270.594 166.79 270.955 166.438 271.267C166.086 271.574 165.663 271.815 165.168 271.991C164.674 272.162 164.103 272.247 163.455 272.247ZM164.495 269.741C165.029 269.741 165.501 269.636 165.91 269.426C166.319 269.21 166.64 268.92 166.873 268.557C167.106 268.193 167.222 267.781 167.222 267.321V265.932C167.109 266.006 166.952 266.074 166.754 266.136C166.56 266.193 166.342 266.247 166.097 266.298C165.853 266.344 165.609 266.386 165.364 266.426C165.12 266.46 164.898 266.491 164.7 266.52C164.273 266.582 163.901 266.682 163.583 266.818C163.265 266.955 163.018 267.139 162.842 267.372C162.665 267.599 162.577 267.884 162.577 268.224C162.577 268.719 162.756 269.097 163.114 269.358C163.478 269.614 163.938 269.741 164.495 269.741ZM175.417 276.909C174.957 276.909 174.525 276.872 174.121 276.798C173.724 276.73 173.394 276.642 173.133 276.534L173.951 273.824C174.377 273.955 174.761 274.026 175.102 274.037C175.448 274.048 175.746 273.969 175.996 273.798C176.252 273.628 176.46 273.338 176.619 272.929L176.832 272.375L172.136 258.909H175.954L178.664 268.523H178.8L181.536 258.909H185.38L180.292 273.415C180.048 274.119 179.715 274.733 179.295 275.256C178.88 275.784 178.354 276.19 177.718 276.474C177.082 276.764 176.315 276.909 175.417 276.909ZM190.364 269.614L190.27 270.551C190.196 271.301 190.054 272.048 189.844 272.793C189.639 273.543 189.423 274.222 189.196 274.83C188.974 275.438 188.795 275.915 188.659 276.261H186.307C186.392 275.926 186.509 275.457 186.656 274.855C186.804 274.259 186.943 273.588 187.074 272.844C187.205 272.099 187.287 271.341 187.321 270.568L187.364 269.614H190.364ZM204.332 272.256C203.009 272.256 201.864 271.974 200.898 271.412C199.938 270.844 199.196 270.054 198.673 269.043C198.151 268.026 197.889 266.847 197.889 265.506C197.889 264.153 198.151 262.972 198.673 261.96C199.196 260.943 199.938 260.153 200.898 259.591C201.864 259.023 203.009 258.739 204.332 258.739C205.656 258.739 206.798 259.023 207.759 259.591C208.724 260.153 209.469 260.943 209.991 261.96C210.514 262.972 210.776 264.153 210.776 265.506C210.776 266.847 210.514 268.026 209.991 269.043C209.469 270.054 208.724 270.844 207.759 271.412C206.798 271.974 205.656 272.256 204.332 272.256ZM204.349 269.443C204.952 269.443 205.455 269.273 205.858 268.932C206.261 268.585 206.565 268.114 206.77 267.517C206.98 266.92 207.085 266.241 207.085 265.48C207.085 264.719 206.98 264.04 206.77 263.443C206.565 262.847 206.261 262.375 205.858 262.028C205.455 261.682 204.952 261.509 204.349 261.509C203.741 261.509 203.23 261.682 202.815 262.028C202.406 262.375 202.097 262.847 201.886 263.443C201.682 264.04 201.58 264.719 201.58 265.48C201.58 266.241 201.682 266.92 201.886 267.517C202.097 268.114 202.406 268.585 202.815 268.932C203.23 269.273 203.741 269.443 204.349 269.443ZM213.136 272V258.909H216.656V261.193H216.793C217.031 260.381 217.432 259.767 217.994 259.352C218.557 258.932 219.205 258.722 219.938 258.722C220.119 258.722 220.315 258.733 220.526 258.756C220.736 258.778 220.92 258.81 221.08 258.849V262.071C220.909 262.02 220.673 261.974 220.372 261.935C220.071 261.895 219.795 261.875 219.545 261.875C219.011 261.875 218.534 261.991 218.114 262.224C217.699 262.452 217.369 262.77 217.125 263.179C216.886 263.588 216.767 264.06 216.767 264.594V272H213.136ZM228.511 272V258.909H232.142V272H228.511ZM230.335 257.222C229.795 257.222 229.332 257.043 228.946 256.685C228.565 256.321 228.375 255.886 228.375 255.381C228.375 254.881 228.565 254.452 228.946 254.094C229.332 253.73 229.795 253.548 230.335 253.548C230.875 253.548 231.335 253.73 231.716 254.094C232.102 254.452 232.295 254.881 232.295 255.381C232.295 255.886 232.102 256.321 231.716 256.685C231.335 257.043 230.875 257.222 230.335 257.222ZM238.681 264.432V272H235.05V258.909H238.511V261.219H238.664C238.954 260.457 239.44 259.855 240.121 259.412C240.803 258.963 241.63 258.739 242.602 258.739C243.511 258.739 244.303 258.938 244.979 259.335C245.656 259.733 246.181 260.301 246.556 261.04C246.931 261.773 247.119 262.648 247.119 263.665V272H243.488V264.312C243.494 263.511 243.289 262.886 242.874 262.438C242.46 261.983 241.888 261.756 241.161 261.756C240.673 261.756 240.241 261.861 239.866 262.071C239.496 262.281 239.207 262.588 238.996 262.991C238.792 263.389 238.687 263.869 238.681 264.432ZM262.498 258.909V261.636H254.614V258.909H262.498ZM256.404 255.773H260.035V267.977C260.035 268.312 260.086 268.574 260.188 268.761C260.29 268.943 260.433 269.071 260.614 269.145C260.802 269.219 261.018 269.256 261.262 269.256C261.433 269.256 261.603 269.241 261.773 269.213C261.944 269.179 262.075 269.153 262.165 269.136L262.737 271.838C262.555 271.895 262.299 271.96 261.969 272.034C261.64 272.114 261.239 272.162 260.768 272.179C259.893 272.213 259.126 272.097 258.467 271.83C257.813 271.562 257.305 271.148 256.941 270.585C256.577 270.023 256.398 269.312 256.404 268.455V255.773ZM268.775 264.432V272H265.144V254.545H268.673V261.219H268.826C269.121 260.446 269.599 259.841 270.258 259.403C270.917 258.96 271.744 258.739 272.738 258.739C273.647 258.739 274.44 258.938 275.116 259.335C275.798 259.727 276.326 260.293 276.701 261.031C277.082 261.764 277.269 262.642 277.263 263.665V272H273.633V264.312C273.638 263.506 273.434 262.878 273.019 262.429C272.61 261.98 272.036 261.756 271.298 261.756C270.803 261.756 270.366 261.861 269.985 262.071C269.61 262.281 269.315 262.588 269.099 262.991C268.888 263.389 268.781 263.869 268.775 264.432ZM286.087 272.256C284.74 272.256 283.581 271.983 282.609 271.438C281.643 270.886 280.899 270.108 280.376 269.102C279.854 268.091 279.592 266.895 279.592 265.514C279.592 264.168 279.854 262.986 280.376 261.969C280.899 260.952 281.635 260.159 282.584 259.591C283.538 259.023 284.658 258.739 285.942 258.739C286.805 258.739 287.609 258.878 288.354 259.156C289.104 259.429 289.757 259.841 290.314 260.392C290.876 260.943 291.314 261.636 291.626 262.472C291.939 263.301 292.095 264.273 292.095 265.386V266.384H281.041V264.134H288.678C288.678 263.611 288.564 263.148 288.337 262.744C288.109 262.341 287.794 262.026 287.391 261.798C286.993 261.565 286.53 261.449 286.001 261.449C285.45 261.449 284.962 261.577 284.536 261.832C284.115 262.082 283.786 262.42 283.547 262.847C283.308 263.267 283.186 263.736 283.18 264.253V266.392C283.18 267.04 283.3 267.599 283.538 268.071C283.783 268.543 284.126 268.906 284.57 269.162C285.013 269.418 285.538 269.545 286.146 269.545C286.55 269.545 286.919 269.489 287.254 269.375C287.589 269.261 287.876 269.091 288.115 268.864C288.354 268.636 288.536 268.358 288.661 268.028L292.018 268.25C291.848 269.057 291.499 269.761 290.97 270.364C290.447 270.96 289.771 271.426 288.942 271.761C288.118 272.091 287.166 272.256 286.087 272.256ZM310.911 262.642L307.587 262.847C307.531 262.562 307.408 262.307 307.221 262.08C307.033 261.847 306.786 261.662 306.479 261.526C306.178 261.384 305.817 261.312 305.397 261.312C304.835 261.312 304.36 261.432 303.974 261.67C303.587 261.903 303.394 262.216 303.394 262.608C303.394 262.92 303.519 263.185 303.769 263.401C304.019 263.616 304.448 263.79 305.056 263.92L307.425 264.398C308.698 264.659 309.647 265.08 310.272 265.659C310.897 266.239 311.21 267 311.21 267.943C311.21 268.801 310.957 269.554 310.451 270.202C309.951 270.849 309.263 271.355 308.388 271.719C307.519 272.077 306.516 272.256 305.38 272.256C303.647 272.256 302.266 271.895 301.238 271.173C300.215 270.446 299.616 269.457 299.44 268.207L303.011 268.02C303.119 268.548 303.38 268.952 303.795 269.23C304.21 269.503 304.741 269.639 305.388 269.639C306.025 269.639 306.536 269.517 306.923 269.273C307.315 269.023 307.513 268.702 307.519 268.31C307.513 267.98 307.374 267.71 307.102 267.5C306.829 267.284 306.408 267.119 305.84 267.006L303.573 266.554C302.295 266.298 301.343 265.855 300.718 265.224C300.099 264.594 299.789 263.79 299.789 262.812C299.789 261.972 300.016 261.247 300.471 260.639C300.931 260.031 301.576 259.562 302.406 259.233C303.241 258.903 304.218 258.739 305.337 258.739C306.991 258.739 308.292 259.088 309.241 259.787C310.195 260.486 310.752 261.437 310.911 262.642ZM317.229 272.247C316.393 272.247 315.649 272.102 314.996 271.812C314.342 271.517 313.825 271.082 313.445 270.509C313.07 269.929 312.882 269.207 312.882 268.344C312.882 267.616 313.016 267.006 313.283 266.511C313.55 266.017 313.913 265.619 314.374 265.318C314.834 265.017 315.357 264.79 315.942 264.636C316.533 264.483 317.152 264.375 317.8 264.312C318.561 264.233 319.175 264.159 319.641 264.091C320.107 264.017 320.445 263.909 320.655 263.767C320.865 263.625 320.97 263.415 320.97 263.136V263.085C320.97 262.545 320.8 262.128 320.459 261.832C320.124 261.537 319.646 261.389 319.027 261.389C318.374 261.389 317.854 261.534 317.467 261.824C317.081 262.108 316.825 262.466 316.7 262.898L313.342 262.625C313.513 261.83 313.848 261.142 314.348 260.562C314.848 259.977 315.493 259.528 316.283 259.216C317.078 258.898 317.999 258.739 319.044 258.739C319.771 258.739 320.467 258.824 321.132 258.994C321.803 259.165 322.396 259.429 322.913 259.787C323.436 260.145 323.848 260.605 324.149 261.168C324.45 261.724 324.601 262.392 324.601 263.17V272H321.158V270.185H321.055C320.845 270.594 320.564 270.955 320.212 271.267C319.859 271.574 319.436 271.815 318.942 271.991C318.447 272.162 317.876 272.247 317.229 272.247ZM318.268 269.741C318.803 269.741 319.274 269.636 319.683 269.426C320.092 269.21 320.413 268.92 320.646 268.557C320.879 268.193 320.996 267.781 320.996 267.321V265.932C320.882 266.006 320.726 266.074 320.527 266.136C320.334 266.193 320.115 266.247 319.871 266.298C319.626 266.344 319.382 266.386 319.138 266.426C318.893 266.46 318.672 266.491 318.473 266.52C318.047 266.582 317.675 266.682 317.357 266.818C317.038 266.955 316.791 267.139 316.615 267.372C316.439 267.599 316.351 267.884 316.351 268.224C316.351 268.719 316.53 269.097 316.888 269.358C317.251 269.614 317.712 269.741 318.268 269.741ZM327.418 272V258.909H330.878V261.219H331.031C331.304 260.452 331.759 259.847 332.395 259.403C333.031 258.96 333.793 258.739 334.679 258.739C335.577 258.739 336.341 258.963 336.972 259.412C337.602 259.855 338.023 260.457 338.233 261.219H338.369C338.636 260.469 339.119 259.869 339.818 259.42C340.523 258.966 341.355 258.739 342.315 258.739C343.537 258.739 344.528 259.128 345.29 259.906C346.057 260.679 346.44 261.776 346.44 263.196V272H342.818V263.912C342.818 263.185 342.625 262.639 342.239 262.276C341.852 261.912 341.369 261.73 340.79 261.73C340.131 261.73 339.616 261.94 339.247 262.361C338.878 262.776 338.693 263.324 338.693 264.006V272H335.173V263.835C335.173 263.193 334.989 262.682 334.619 262.301C334.256 261.92 333.776 261.73 333.179 261.73C332.776 261.73 332.412 261.832 332.088 262.037C331.77 262.236 331.517 262.517 331.33 262.881C331.142 263.239 331.048 263.659 331.048 264.142V272H327.418ZM355.274 272.256C353.928 272.256 352.768 271.983 351.797 271.438C350.831 270.886 350.087 270.108 349.564 269.102C349.041 268.091 348.78 266.895 348.78 265.514C348.78 264.168 349.041 262.986 349.564 261.969C350.087 260.952 350.822 260.159 351.771 259.591C352.726 259.023 353.845 258.739 355.129 258.739C355.993 258.739 356.797 258.878 357.541 259.156C358.291 259.429 358.945 259.841 359.501 260.392C360.064 260.943 360.501 261.636 360.814 262.472C361.126 263.301 361.283 264.273 361.283 265.386V266.384H350.229V264.134H357.865C357.865 263.611 357.751 263.148 357.524 262.744C357.297 262.341 356.982 262.026 356.578 261.798C356.18 261.565 355.717 261.449 355.189 261.449C354.638 261.449 354.149 261.577 353.723 261.832C353.303 262.082 352.973 262.42 352.734 262.847C352.496 263.267 352.374 263.736 352.368 264.253V266.392C352.368 267.04 352.487 267.599 352.726 268.071C352.97 268.543 353.314 268.906 353.757 269.162C354.2 269.418 354.726 269.545 355.334 269.545C355.737 269.545 356.107 269.489 356.442 269.375C356.777 269.261 357.064 269.091 357.303 268.864C357.541 268.636 357.723 268.358 357.848 268.028L361.206 268.25C361.036 269.057 360.686 269.761 360.158 270.364C359.635 270.96 358.959 271.426 358.129 271.761C357.305 272.091 356.354 272.256 355.274 272.256ZM371.789 272L368.227 258.909H371.9L373.928 267.705H374.048L376.161 258.909H379.766L381.914 267.653H382.025L384.019 258.909H387.684L384.13 272H380.286L378.036 263.767H377.874L375.624 272H371.789ZM393.354 272.247C392.518 272.247 391.774 272.102 391.121 271.812C390.467 271.517 389.95 271.082 389.57 270.509C389.195 269.929 389.007 269.207 389.007 268.344C389.007 267.616 389.141 267.006 389.408 266.511C389.675 266.017 390.038 265.619 390.499 265.318C390.959 265.017 391.482 264.79 392.067 264.636C392.658 264.483 393.277 264.375 393.925 264.312C394.686 264.233 395.3 264.159 395.766 264.091C396.232 264.017 396.57 263.909 396.78 263.767C396.99 263.625 397.095 263.415 397.095 263.136V263.085C397.095 262.545 396.925 262.128 396.584 261.832C396.249 261.537 395.771 261.389 395.152 261.389C394.499 261.389 393.979 261.534 393.592 261.824C393.206 262.108 392.95 262.466 392.825 262.898L389.467 262.625C389.638 261.83 389.973 261.142 390.473 260.562C390.973 259.977 391.618 259.528 392.408 259.216C393.203 258.898 394.124 258.739 395.169 258.739C395.896 258.739 396.592 258.824 397.257 258.994C397.928 259.165 398.521 259.429 399.038 259.787C399.561 260.145 399.973 260.605 400.274 261.168C400.575 261.724 400.726 262.392 400.726 263.17V272H397.283V270.185H397.18C396.97 270.594 396.689 270.955 396.337 271.267C395.984 271.574 395.561 271.815 395.067 271.991C394.572 272.162 394.001 272.247 393.354 272.247ZM394.393 269.741C394.928 269.741 395.399 269.636 395.808 269.426C396.217 269.21 396.538 268.92 396.771 268.557C397.004 268.193 397.121 267.781 397.121 267.321V265.932C397.007 266.006 396.851 266.074 396.652 266.136C396.459 266.193 396.24 266.247 395.996 266.298C395.751 266.344 395.507 266.386 395.263 266.426C395.018 266.46 394.797 266.491 394.598 266.52C394.172 266.582 393.8 266.682 393.482 266.818C393.163 266.955 392.916 267.139 392.74 267.372C392.564 267.599 392.476 267.884 392.476 268.224C392.476 268.719 392.655 269.097 393.013 269.358C393.376 269.614 393.837 269.741 394.393 269.741ZM405.315 276.909C404.855 276.909 404.423 276.872 404.02 276.798C403.622 276.73 403.293 276.642 403.031 276.534L403.849 273.824C404.276 273.955 404.659 274.026 405 274.037C405.347 274.048 405.645 273.969 405.895 273.798C406.151 273.628 406.358 273.338 406.517 272.929L406.73 272.375L402.034 258.909H405.852L408.562 268.523H408.699L411.435 258.909H415.278L410.19 273.415C409.946 274.119 409.614 274.733 409.193 275.256C408.778 275.784 408.253 276.19 407.616 276.474C406.98 276.764 406.213 276.909 405.315 276.909ZM418.438 272.222C417.876 272.222 417.393 272.023 416.989 271.625C416.592 271.222 416.393 270.739 416.393 270.176C416.393 269.619 416.592 269.142 416.989 268.744C417.393 268.347 417.876 268.148 418.438 268.148C418.984 268.148 419.461 268.347 419.87 268.744C420.279 269.142 420.484 269.619 420.484 270.176C420.484 270.551 420.387 270.895 420.194 271.207C420.006 271.514 419.759 271.761 419.452 271.949C419.146 272.131 418.808 272.222 418.438 272.222ZM424.116 254.545V256.386C424.116 256.909 424.014 257.443 423.81 257.989C423.611 258.528 423.344 259.04 423.009 259.523C422.673 260 422.307 260.406 421.909 260.741L420.307 259.795C420.591 259.347 420.841 258.849 421.057 258.304C421.278 257.759 421.389 257.125 421.389 256.403V254.545H424.116ZM428.403 254.545V256.386C428.403 256.909 428.301 257.443 428.097 257.989C427.898 258.528 427.631 259.04 427.295 259.523C426.96 260 426.591 260.406 426.188 260.741L424.585 259.795C424.875 259.347 425.128 258.849 425.344 258.304C425.565 257.759 425.676 257.125 425.676 256.403V254.545H428.403ZM196.307 283.545H198.421V296.023C198.421 297.136 198.216 298.082 197.807 298.861C197.398 299.639 196.821 300.23 196.077 300.634C195.333 301.037 194.455 301.239 193.444 301.239C192.489 301.239 191.64 301.065 190.895 300.719C190.151 300.366 189.566 299.866 189.14 299.219C188.713 298.571 188.5 297.801 188.5 296.909H190.58C190.58 297.403 190.702 297.835 190.946 298.205C191.196 298.568 191.537 298.852 191.969 299.057C192.401 299.261 192.892 299.364 193.444 299.364C194.051 299.364 194.569 299.236 194.995 298.98C195.421 298.724 195.745 298.349 195.966 297.855C196.194 297.355 196.307 296.744 196.307 296.023V283.545ZM207.702 301.273C206.52 301.273 205.483 300.991 204.591 300.429C203.705 299.866 203.012 299.08 202.512 298.068C202.017 297.057 201.77 295.875 201.77 294.523C201.77 293.159 202.017 291.969 202.512 290.952C203.012 289.935 203.705 289.145 204.591 288.582C205.483 288.02 206.52 287.739 207.702 287.739C208.884 287.739 209.918 288.02 210.804 288.582C211.696 289.145 212.39 289.935 212.884 290.952C213.384 291.969 213.634 293.159 213.634 294.523C213.634 295.875 213.384 297.057 212.884 298.068C212.39 299.08 211.696 299.866 210.804 300.429C209.918 300.991 208.884 301.273 207.702 301.273ZM207.702 299.466C208.6 299.466 209.338 299.236 209.918 298.776C210.498 298.315 210.926 297.71 211.205 296.96C211.483 296.21 211.623 295.398 211.623 294.523C211.623 293.648 211.483 292.832 211.205 292.077C210.926 291.321 210.498 290.71 209.918 290.244C209.338 289.778 208.6 289.545 207.702 289.545C206.804 289.545 206.066 289.778 205.486 290.244C204.907 290.71 204.478 291.321 204.199 292.077C203.921 292.832 203.782 293.648 203.782 294.523C203.782 295.398 203.921 296.21 204.199 296.96C204.478 297.71 204.907 298.315 205.486 298.776C206.066 299.236 206.804 299.466 207.702 299.466ZM218.716 293.125V301H216.704V283.545H218.716V289.955H218.886C219.193 289.278 219.653 288.741 220.267 288.344C220.886 287.94 221.71 287.739 222.738 287.739C223.63 287.739 224.412 287.918 225.082 288.276C225.752 288.628 226.272 289.17 226.642 289.903C227.017 290.631 227.204 291.557 227.204 292.682V301H225.193V292.818C225.193 291.778 224.923 290.974 224.383 290.406C223.849 289.832 223.108 289.545 222.159 289.545C221.5 289.545 220.909 289.685 220.386 289.963C219.869 290.241 219.46 290.648 219.159 291.182C218.863 291.716 218.716 292.364 218.716 293.125ZM232.895 293.125V301H230.884V287.909H232.827V289.955H232.998C233.304 289.29 233.77 288.756 234.395 288.352C235.02 287.943 235.827 287.739 236.816 287.739C237.702 287.739 238.478 287.92 239.142 288.284C239.807 288.642 240.324 289.188 240.694 289.92C241.063 290.648 241.248 291.568 241.248 292.682V301H239.236V292.818C239.236 291.79 238.969 290.989 238.435 290.415C237.901 289.835 237.168 289.545 236.236 289.545C235.594 289.545 235.02 289.685 234.515 289.963C234.015 290.241 233.62 290.648 233.33 291.182C233.04 291.716 232.895 292.364 232.895 293.125ZM251.946 301V283.545H262.48V285.42H254.059V291.318H261.934V293.193H254.059V299.125H262.616V301H251.946ZM276.721 287.909L271.88 301H269.835L264.994 287.909H267.176L270.789 298.341H270.926L274.539 287.909H276.721ZM282.83 301.307C282 301.307 281.248 301.151 280.571 300.838C279.895 300.52 279.358 300.062 278.961 299.466C278.563 298.864 278.364 298.136 278.364 297.284C278.364 296.534 278.512 295.926 278.807 295.46C279.103 294.989 279.498 294.619 279.992 294.352C280.486 294.085 281.032 293.886 281.628 293.756C282.23 293.619 282.836 293.511 283.444 293.432C284.239 293.33 284.884 293.253 285.378 293.202C285.878 293.145 286.242 293.051 286.469 292.92C286.702 292.79 286.819 292.562 286.819 292.239V292.17C286.819 291.33 286.588 290.676 286.128 290.21C285.674 289.744 284.983 289.511 284.057 289.511C283.097 289.511 282.344 289.722 281.799 290.142C281.253 290.562 280.87 291.011 280.648 291.489L278.739 290.807C279.08 290.011 279.534 289.392 280.103 288.949C280.676 288.5 281.301 288.187 281.978 288.011C282.659 287.83 283.33 287.739 283.989 287.739C284.409 287.739 284.892 287.79 285.438 287.892C285.989 287.989 286.52 288.19 287.032 288.497C287.549 288.804 287.978 289.267 288.319 289.886C288.659 290.506 288.83 291.335 288.83 292.375V301H286.819V299.227H286.716C286.58 299.511 286.353 299.815 286.034 300.139C285.716 300.463 285.293 300.739 284.765 300.966C284.236 301.193 283.591 301.307 282.83 301.307ZM283.137 299.5C283.932 299.5 284.603 299.344 285.148 299.031C285.699 298.719 286.114 298.315 286.392 297.821C286.676 297.327 286.819 296.807 286.819 296.261V294.42C286.733 294.523 286.546 294.616 286.256 294.702C285.972 294.781 285.642 294.852 285.267 294.915C284.898 294.972 284.537 295.023 284.185 295.068C283.838 295.108 283.557 295.142 283.341 295.17C282.819 295.239 282.33 295.349 281.875 295.503C281.426 295.651 281.063 295.875 280.784 296.176C280.512 296.472 280.375 296.875 280.375 297.386C280.375 298.085 280.634 298.614 281.151 298.972C281.674 299.324 282.336 299.5 283.137 299.5ZM294.512 293.125V301H292.501V287.909H294.444V289.955H294.615C294.922 289.29 295.387 288.756 296.012 288.352C296.637 287.943 297.444 287.739 298.433 287.739C299.319 287.739 300.095 287.92 300.76 288.284C301.424 288.642 301.941 289.188 302.311 289.92C302.68 290.648 302.865 291.568 302.865 292.682V301H300.853V292.818C300.853 291.79 300.586 290.989 300.052 290.415C299.518 289.835 298.785 289.545 297.853 289.545C297.211 289.545 296.637 289.685 296.132 289.963C295.632 290.241 295.237 290.648 294.947 291.182C294.657 291.716 294.512 292.364 294.512 293.125ZM315.813 290.841L314.006 291.352C313.892 291.051 313.725 290.759 313.503 290.474C313.287 290.185 312.992 289.946 312.617 289.759C312.242 289.571 311.762 289.477 311.176 289.477C310.375 289.477 309.708 289.662 309.174 290.031C308.645 290.395 308.381 290.858 308.381 291.42C308.381 291.92 308.563 292.315 308.926 292.605C309.29 292.895 309.858 293.136 310.631 293.33L312.574 293.807C313.745 294.091 314.617 294.526 315.191 295.111C315.765 295.69 316.051 296.437 316.051 297.352C316.051 298.102 315.836 298.773 315.404 299.364C314.978 299.955 314.381 300.42 313.614 300.761C312.847 301.102 311.955 301.273 310.938 301.273C309.603 301.273 308.498 300.983 307.623 300.403C306.748 299.824 306.194 298.977 305.961 297.864L307.87 297.386C308.051 298.091 308.395 298.619 308.901 298.972C309.412 299.324 310.08 299.5 310.904 299.5C311.841 299.5 312.586 299.301 313.137 298.903C313.694 298.5 313.972 298.017 313.972 297.455C313.972 297 313.813 296.619 313.495 296.312C313.176 296 312.688 295.767 312.029 295.614L309.847 295.102C308.648 294.818 307.767 294.378 307.205 293.781C306.648 293.179 306.37 292.426 306.37 291.523C306.37 290.784 306.577 290.131 306.992 289.562C307.412 288.994 307.983 288.548 308.705 288.224C309.432 287.901 310.256 287.739 311.176 287.739C312.472 287.739 313.489 288.023 314.228 288.591C314.972 289.159 315.5 289.909 315.813 290.841Z" fill="#554D3F"/>
</svg>
