<svg width="420" height="420" viewBox="0 0 420 420" fill="none" xmlns="http://www.w3.org/2000/svg">
<g opacity="0.5">
<rect width="420" height="420" rx="210" fill="#B6C7AA"/>
</g>
<path d="M70.3913 133V131.159C70.3913 130.636 70.4936 130.102 70.6982 129.557C70.9027 129.011 71.1726 128.497 71.5078 128.014C71.843 127.531 72.2067 127.128 72.5987 126.804L74.201 127.75C73.8828 128.25 73.6214 128.773 73.4169 129.318C73.218 129.864 73.1186 130.472 73.1186 131.142V133H70.3913ZM74.6953 133V131.159C74.6953 130.636 74.7976 130.102 75.0021 129.557C75.2067 129.011 75.4766 128.497 75.8118 128.014C76.147 127.531 76.5107 127.128 76.9027 126.804L78.505 127.75C78.1868 128.25 77.9254 128.773 77.7209 129.318C77.522 129.864 77.4226 130.472 77.4226 131.142V133H74.6953ZM84.4027 127.545V145H80.7124V127.545H84.4027ZM94.4105 131.909V134.636H86.331V131.909H94.4105ZM88.1804 145V130.963C88.1804 130.014 88.3651 129.227 88.7344 128.602C89.1094 127.977 89.6207 127.509 90.2685 127.196C90.9162 126.884 91.652 126.727 92.4759 126.727C93.0327 126.727 93.5412 126.77 94.0014 126.855C94.4673 126.94 94.8139 127.017 95.0412 127.085L94.3935 129.812C94.2514 129.767 94.0753 129.724 93.8651 129.685C93.6605 129.645 93.4503 129.625 93.2344 129.625C92.7003 129.625 92.3281 129.75 92.1179 130C91.9077 130.244 91.8026 130.588 91.8026 131.031V145H88.1804ZM105.916 145.247C105.081 145.247 104.337 145.102 103.683 144.812C103.03 144.517 102.513 144.082 102.132 143.509C101.757 142.929 101.57 142.207 101.57 141.344C101.57 140.616 101.703 140.006 101.97 139.511C102.237 139.017 102.601 138.619 103.061 138.318C103.521 138.017 104.044 137.79 104.629 137.636C105.22 137.483 105.839 137.375 106.487 137.312C107.249 137.233 107.862 137.159 108.328 137.091C108.794 137.017 109.132 136.909 109.342 136.767C109.553 136.625 109.658 136.415 109.658 136.136V136.085C109.658 135.545 109.487 135.128 109.146 134.832C108.811 134.537 108.334 134.389 107.714 134.389C107.061 134.389 106.541 134.534 106.155 134.824C105.768 135.108 105.513 135.466 105.388 135.898L102.03 135.625C102.2 134.83 102.536 134.142 103.036 133.562C103.536 132.977 104.18 132.528 104.97 132.216C105.766 131.898 106.686 131.739 107.732 131.739C108.459 131.739 109.155 131.824 109.82 131.994C110.49 132.165 111.084 132.429 111.601 132.787C112.124 133.145 112.536 133.605 112.837 134.168C113.138 134.724 113.288 135.392 113.288 136.17V145H109.845V143.185H109.743C109.533 143.594 109.251 143.955 108.899 144.267C108.547 144.574 108.124 144.815 107.629 144.991C107.135 145.162 106.564 145.247 105.916 145.247ZM106.956 142.741C107.49 142.741 107.962 142.636 108.371 142.426C108.78 142.21 109.101 141.92 109.334 141.557C109.567 141.193 109.683 140.781 109.683 140.321V138.932C109.57 139.006 109.413 139.074 109.214 139.136C109.021 139.193 108.803 139.247 108.558 139.298C108.314 139.344 108.07 139.386 107.825 139.426C107.581 139.46 107.359 139.491 107.161 139.52C106.734 139.582 106.362 139.682 106.044 139.818C105.726 139.955 105.479 140.139 105.303 140.372C105.126 140.599 105.038 140.884 105.038 141.224C105.038 141.719 105.217 142.097 105.575 142.358C105.939 142.614 106.399 142.741 106.956 142.741ZM127.575 145.256C126.234 145.256 125.08 144.972 124.114 144.403C123.154 143.83 122.415 143.034 121.898 142.017C121.387 141 121.131 139.83 121.131 138.506C121.131 137.165 121.39 135.989 121.907 134.977C122.43 133.96 123.171 133.168 124.131 132.599C125.092 132.026 126.234 131.739 127.558 131.739C128.7 131.739 129.7 131.946 130.558 132.361C131.415 132.776 132.094 133.358 132.594 134.108C133.094 134.858 133.37 135.739 133.421 136.75H129.995C129.898 136.097 129.643 135.571 129.228 135.173C128.819 134.77 128.282 134.568 127.617 134.568C127.055 134.568 126.563 134.722 126.143 135.028C125.728 135.33 125.404 135.77 125.171 136.349C124.938 136.929 124.822 137.631 124.822 138.455C124.822 139.29 124.935 140 125.163 140.585C125.396 141.17 125.722 141.616 126.143 141.923C126.563 142.23 127.055 142.384 127.617 142.384C128.032 142.384 128.404 142.298 128.734 142.128C129.069 141.957 129.344 141.71 129.56 141.386C129.782 141.057 129.927 140.662 129.995 140.202H133.421C133.364 141.202 133.092 142.082 132.603 142.844C132.12 143.599 131.452 144.19 130.6 144.616C129.748 145.043 128.739 145.256 127.575 145.256ZM139.376 137.432V145H135.746V127.545H139.274V134.219H139.428C139.723 133.446 140.2 132.841 140.859 132.403C141.518 131.96 142.345 131.739 143.339 131.739C144.249 131.739 145.041 131.938 145.717 132.335C146.399 132.727 146.928 133.293 147.303 134.031C147.683 134.764 147.871 135.642 147.865 136.665V145H144.234V137.312C144.24 136.506 144.036 135.878 143.621 135.429C143.212 134.98 142.638 134.756 141.899 134.756C141.405 134.756 140.967 134.861 140.587 135.071C140.212 135.281 139.916 135.588 139.7 135.991C139.49 136.389 139.382 136.869 139.376 137.432ZM150.722 145V131.909H154.353V145H150.722ZM152.546 130.222C152.006 130.222 151.543 130.043 151.157 129.685C150.776 129.321 150.586 128.886 150.586 128.381C150.586 127.881 150.776 127.452 151.157 127.094C151.543 126.73 152.006 126.548 152.546 126.548C153.086 126.548 153.546 126.73 153.927 127.094C154.313 127.452 154.506 127.881 154.506 128.381C154.506 128.886 154.313 129.321 153.927 129.685C153.546 130.043 153.086 130.222 152.546 130.222ZM160.892 127.545V145H157.261V127.545H160.892ZM168.624 145.213C167.63 145.213 166.729 144.957 165.923 144.446C165.121 143.929 164.485 143.17 164.013 142.17C163.548 141.165 163.315 139.932 163.315 138.472C163.315 136.972 163.556 135.724 164.039 134.73C164.522 133.73 165.164 132.983 165.965 132.489C166.772 131.989 167.656 131.739 168.616 131.739C169.349 131.739 169.96 131.864 170.448 132.114C170.942 132.358 171.34 132.665 171.641 133.034C171.948 133.398 172.181 133.756 172.34 134.108H172.451V127.545H176.073V145H172.494V142.903H172.34C172.17 143.267 171.928 143.628 171.616 143.986C171.309 144.338 170.908 144.631 170.414 144.864C169.925 145.097 169.329 145.213 168.624 145.213ZM169.775 142.324C170.36 142.324 170.854 142.165 171.258 141.847C171.667 141.523 171.979 141.071 172.195 140.491C172.417 139.912 172.528 139.233 172.528 138.455C172.528 137.676 172.42 137 172.204 136.426C171.988 135.852 171.675 135.409 171.266 135.097C170.857 134.784 170.36 134.628 169.775 134.628C169.178 134.628 168.675 134.79 168.266 135.114C167.857 135.437 167.548 135.886 167.337 136.46C167.127 137.034 167.022 137.699 167.022 138.455C167.022 139.216 167.127 139.889 167.337 140.474C167.553 141.054 167.863 141.509 168.266 141.838C168.675 142.162 169.178 142.324 169.775 142.324ZM190.528 145.256C189.187 145.256 188.033 144.972 187.067 144.403C186.107 143.83 185.369 143.034 184.852 142.017C184.34 141 184.085 139.83 184.085 138.506C184.085 137.165 184.343 135.989 184.86 134.977C185.383 133.96 186.124 133.168 187.085 132.599C188.045 132.026 189.187 131.739 190.511 131.739C191.653 131.739 192.653 131.946 193.511 132.361C194.369 132.776 195.048 133.358 195.548 134.108C196.048 134.858 196.323 135.739 196.374 136.75H192.948C192.852 136.097 192.596 135.571 192.181 135.173C191.772 134.77 191.235 134.568 190.57 134.568C190.008 134.568 189.516 134.722 189.096 135.028C188.681 135.33 188.357 135.77 188.124 136.349C187.891 136.929 187.775 137.631 187.775 138.455C187.775 139.29 187.888 140 188.116 140.585C188.349 141.17 188.675 141.616 189.096 141.923C189.516 142.23 190.008 142.384 190.57 142.384C190.985 142.384 191.357 142.298 191.687 142.128C192.022 141.957 192.298 141.71 192.513 141.386C192.735 141.057 192.88 140.662 192.948 140.202H196.374C196.317 141.202 196.045 142.082 195.556 142.844C195.073 143.599 194.406 144.19 193.553 144.616C192.701 145.043 191.692 145.256 190.528 145.256ZM202.432 145.247C201.597 145.247 200.852 145.102 200.199 144.812C199.545 144.517 199.028 144.082 198.648 143.509C198.273 142.929 198.085 142.207 198.085 141.344C198.085 140.616 198.219 140.006 198.486 139.511C198.753 139.017 199.116 138.619 199.577 138.318C200.037 138.017 200.56 137.79 201.145 137.636C201.736 137.483 202.355 137.375 203.003 137.312C203.764 137.233 204.378 137.159 204.844 137.091C205.31 137.017 205.648 136.909 205.858 136.767C206.068 136.625 206.173 136.415 206.173 136.136V136.085C206.173 135.545 206.003 135.128 205.662 134.832C205.327 134.537 204.849 134.389 204.23 134.389C203.577 134.389 203.057 134.534 202.67 134.824C202.284 135.108 202.028 135.466 201.903 135.898L198.545 135.625C198.716 134.83 199.051 134.142 199.551 133.562C200.051 132.977 200.696 132.528 201.486 132.216C202.281 131.898 203.202 131.739 204.247 131.739C204.974 131.739 205.67 131.824 206.335 131.994C207.006 132.165 207.599 132.429 208.116 132.787C208.639 133.145 209.051 133.605 209.352 134.168C209.653 134.724 209.804 135.392 209.804 136.17V145H206.361V143.185H206.259C206.048 143.594 205.767 143.955 205.415 144.267C205.062 144.574 204.639 144.815 204.145 144.991C203.651 145.162 203.08 145.247 202.432 145.247ZM203.472 142.741C204.006 142.741 204.477 142.636 204.886 142.426C205.295 142.21 205.616 141.92 205.849 141.557C206.082 141.193 206.199 140.781 206.199 140.321V138.932C206.085 139.006 205.929 139.074 205.73 139.136C205.537 139.193 205.318 139.247 205.074 139.298C204.83 139.344 204.585 139.386 204.341 139.426C204.097 139.46 203.875 139.491 203.676 139.52C203.25 139.582 202.878 139.682 202.56 139.818C202.241 139.955 201.994 140.139 201.818 140.372C201.642 140.599 201.554 140.884 201.554 141.224C201.554 141.719 201.733 142.097 202.091 142.358C202.455 142.614 202.915 142.741 203.472 142.741ZM216.251 137.432V145H212.621V131.909H216.081V134.219H216.234C216.524 133.457 217.01 132.855 217.692 132.412C218.374 131.963 219.2 131.739 220.172 131.739C221.081 131.739 221.874 131.938 222.55 132.335C223.226 132.733 223.751 133.301 224.126 134.04C224.501 134.773 224.689 135.648 224.689 136.665V145H221.058V137.312C221.064 136.511 220.859 135.886 220.445 135.438C220.03 134.983 219.459 134.756 218.732 134.756C218.243 134.756 217.811 134.861 217.436 135.071C217.067 135.281 216.777 135.588 216.567 135.991C216.362 136.389 216.257 136.869 216.251 137.432ZM230.593 127.545V129.386C230.593 129.909 230.491 130.443 230.286 130.989C230.087 131.528 229.82 132.04 229.485 132.523C229.15 133 228.783 133.406 228.386 133.741L226.783 132.795C227.067 132.347 227.317 131.849 227.533 131.304C227.755 130.759 227.866 130.125 227.866 129.403V127.545H230.593ZM240.42 131.909V134.636H232.536V131.909H240.42ZM234.326 128.773H237.957V140.977C237.957 141.312 238.008 141.574 238.11 141.761C238.212 141.943 238.354 142.071 238.536 142.145C238.724 142.219 238.94 142.256 239.184 142.256C239.354 142.256 239.525 142.241 239.695 142.213C239.866 142.179 239.996 142.153 240.087 142.136L240.658 144.838C240.477 144.895 240.221 144.96 239.891 145.034C239.562 145.114 239.161 145.162 238.69 145.179C237.815 145.213 237.048 145.097 236.388 144.83C235.735 144.562 235.227 144.148 234.863 143.585C234.499 143.023 234.32 142.312 234.326 141.455V128.773ZM251.97 127.545V145H248.339V127.545H251.97ZM260.844 145.256C259.498 145.256 258.339 144.983 257.367 144.438C256.401 143.886 255.657 143.108 255.134 142.102C254.612 141.091 254.35 139.895 254.35 138.514C254.35 137.168 254.612 135.986 255.134 134.969C255.657 133.952 256.393 133.159 257.342 132.591C258.296 132.023 259.415 131.739 260.7 131.739C261.563 131.739 262.367 131.878 263.112 132.156C263.862 132.429 264.515 132.841 265.072 133.392C265.634 133.943 266.072 134.636 266.384 135.472C266.697 136.301 266.853 137.273 266.853 138.386V139.384H255.799V137.134H263.435C263.435 136.611 263.322 136.148 263.094 135.744C262.867 135.341 262.552 135.026 262.148 134.798C261.751 134.565 261.288 134.449 260.759 134.449C260.208 134.449 259.719 134.577 259.293 134.832C258.873 135.082 258.543 135.42 258.305 135.847C258.066 136.267 257.944 136.736 257.938 137.253V139.392C257.938 140.04 258.058 140.599 258.296 141.071C258.54 141.543 258.884 141.906 259.327 142.162C259.771 142.418 260.296 142.545 260.904 142.545C261.308 142.545 261.677 142.489 262.012 142.375C262.347 142.261 262.634 142.091 262.873 141.864C263.112 141.636 263.293 141.358 263.418 141.028L266.776 141.25C266.606 142.057 266.256 142.761 265.728 143.364C265.205 143.96 264.529 144.426 263.7 144.761C262.876 145.091 261.924 145.256 260.844 145.256ZM272.955 145.247C272.12 145.247 271.376 145.102 270.722 144.812C270.069 144.517 269.552 144.082 269.171 143.509C268.796 142.929 268.609 142.207 268.609 141.344C268.609 140.616 268.742 140.006 269.009 139.511C269.276 139.017 269.64 138.619 270.1 138.318C270.56 138.017 271.083 137.79 271.668 137.636C272.259 137.483 272.879 137.375 273.526 137.312C274.288 137.233 274.901 137.159 275.367 137.091C275.833 137.017 276.171 136.909 276.381 136.767C276.592 136.625 276.697 136.415 276.697 136.136V136.085C276.697 135.545 276.526 135.128 276.185 134.832C275.85 134.537 275.373 134.389 274.754 134.389C274.1 134.389 273.58 134.534 273.194 134.824C272.808 135.108 272.552 135.466 272.427 135.898L269.069 135.625C269.239 134.83 269.575 134.142 270.075 133.562C270.575 132.977 271.219 132.528 272.009 132.216C272.805 131.898 273.725 131.739 274.771 131.739C275.498 131.739 276.194 131.824 276.859 131.994C277.529 132.165 278.123 132.429 278.64 132.787C279.163 133.145 279.575 133.605 279.876 134.168C280.177 134.724 280.327 135.392 280.327 136.17V145H276.884V143.185H276.782C276.572 143.594 276.29 143.955 275.938 144.267C275.586 144.574 275.163 144.815 274.668 144.991C274.174 145.162 273.603 145.247 272.955 145.247ZM273.995 142.741C274.529 142.741 275.001 142.636 275.41 142.426C275.819 142.21 276.14 141.92 276.373 141.557C276.606 141.193 276.722 140.781 276.722 140.321V138.932C276.609 139.006 276.452 139.074 276.254 139.136C276.06 139.193 275.842 139.247 275.597 139.298C275.353 139.344 275.109 139.386 274.864 139.426C274.62 139.46 274.398 139.491 274.2 139.52C273.773 139.582 273.401 139.682 273.083 139.818C272.765 139.955 272.518 140.139 272.342 140.372C272.165 140.599 272.077 140.884 272.077 141.224C272.077 141.719 272.256 142.097 272.614 142.358C272.978 142.614 273.438 142.741 273.995 142.741ZM283.144 145V131.909H286.664V134.193H286.8C287.039 133.381 287.44 132.767 288.002 132.352C288.565 131.932 289.212 131.722 289.945 131.722C290.127 131.722 290.323 131.733 290.533 131.756C290.744 131.778 290.928 131.81 291.087 131.849V135.071C290.917 135.02 290.681 134.974 290.38 134.935C290.079 134.895 289.803 134.875 289.553 134.875C289.019 134.875 288.542 134.991 288.121 135.224C287.707 135.452 287.377 135.77 287.133 136.179C286.894 136.588 286.775 137.06 286.775 137.594V145H283.144ZM296.595 137.432V145H292.964V131.909H296.425V134.219H296.578C296.868 133.457 297.354 132.855 298.036 132.412C298.717 131.963 299.544 131.739 300.516 131.739C301.425 131.739 302.217 131.938 302.893 132.335C303.57 132.733 304.095 133.301 304.47 134.04C304.845 134.773 305.033 135.648 305.033 136.665V145H301.402V137.312C301.408 136.511 301.203 135.886 300.788 135.438C300.374 134.983 299.803 134.756 299.075 134.756C298.587 134.756 298.155 134.861 297.78 135.071C297.411 135.281 297.121 135.588 296.911 135.991C296.706 136.389 296.601 136.869 296.595 137.432ZM320.412 131.909V134.636H312.528V131.909H320.412ZM314.318 128.773H317.949V140.977C317.949 141.312 318 141.574 318.102 141.761C318.205 141.943 318.347 142.071 318.528 142.145C318.716 142.219 318.932 142.256 319.176 142.256C319.347 142.256 319.517 142.241 319.688 142.213C319.858 142.179 319.989 142.153 320.08 142.136L320.651 144.838C320.469 144.895 320.213 144.96 319.884 145.034C319.554 145.114 319.153 145.162 318.682 145.179C317.807 145.213 317.04 145.097 316.381 144.83C315.727 144.562 315.219 144.148 314.855 143.585C314.491 143.023 314.313 142.312 314.318 141.455V128.773ZM326.689 137.432V145H323.058V127.545H326.587V134.219H326.74C327.036 133.446 327.513 132.841 328.172 132.403C328.831 131.96 329.658 131.739 330.652 131.739C331.561 131.739 332.354 131.938 333.03 132.335C333.712 132.727 334.24 133.293 334.615 134.031C334.996 134.764 335.183 135.642 335.178 136.665V145H331.547V137.312C331.553 136.506 331.348 135.878 330.933 135.429C330.524 134.98 329.95 134.756 329.212 134.756C328.717 134.756 328.28 134.861 327.899 135.071C327.524 135.281 327.229 135.588 327.013 135.991C326.803 136.389 326.695 136.869 326.689 137.432ZM344.001 145.256C342.654 145.256 341.495 144.983 340.523 144.438C339.558 143.886 338.813 143.108 338.29 142.102C337.768 141.091 337.506 139.895 337.506 138.514C337.506 137.168 337.768 135.986 338.29 134.969C338.813 133.952 339.549 133.159 340.498 132.591C341.452 132.023 342.572 131.739 343.856 131.739C344.719 131.739 345.523 131.878 346.268 132.156C347.018 132.429 347.671 132.841 348.228 133.392C348.79 133.943 349.228 134.636 349.54 135.472C349.853 136.301 350.009 137.273 350.009 138.386V139.384H338.955V137.134H346.592C346.592 136.611 346.478 136.148 346.251 135.744C346.023 135.341 345.708 135.026 345.305 134.798C344.907 134.565 344.444 134.449 343.915 134.449C343.364 134.449 342.876 134.577 342.45 134.832C342.029 135.082 341.7 135.42 341.461 135.847C341.222 136.267 341.1 136.736 341.094 137.253V139.392C341.094 140.04 341.214 140.599 341.452 141.071C341.697 141.543 342.04 141.906 342.484 142.162C342.927 142.418 343.452 142.545 344.06 142.545C344.464 142.545 344.833 142.489 345.168 142.375C345.504 142.261 345.79 142.091 346.029 141.864C346.268 141.636 346.45 141.358 346.575 141.028L349.933 141.25C349.762 142.057 349.413 142.761 348.884 143.364C348.362 143.96 347.685 144.426 346.856 144.761C346.032 145.091 345.08 145.256 344.001 145.256ZM167.297 174L163.734 160.909H167.408L169.436 169.705H169.555L171.669 160.909H175.274L177.422 169.653H177.533L179.527 160.909H183.192L179.638 174H175.794L173.544 165.767H173.382L171.132 174H167.297ZM188.862 174.247C188.026 174.247 187.282 174.102 186.629 173.812C185.975 173.517 185.458 173.082 185.077 172.509C184.702 171.929 184.515 171.207 184.515 170.344C184.515 169.616 184.648 169.006 184.915 168.511C185.183 168.017 185.546 167.619 186.006 167.318C186.467 167.017 186.989 166.79 187.575 166.636C188.165 166.483 188.785 166.375 189.433 166.312C190.194 166.233 190.808 166.159 191.273 166.091C191.739 166.017 192.077 165.909 192.288 165.767C192.498 165.625 192.603 165.415 192.603 165.136V165.085C192.603 164.545 192.433 164.128 192.092 163.832C191.756 163.537 191.279 163.389 190.66 163.389C190.006 163.389 189.487 163.534 189.1 163.824C188.714 164.108 188.458 164.466 188.333 164.898L184.975 164.625C185.146 163.83 185.481 163.142 185.981 162.562C186.481 161.977 187.126 161.528 187.915 161.216C188.711 160.898 189.631 160.739 190.677 160.739C191.404 160.739 192.1 160.824 192.765 160.994C193.435 161.165 194.029 161.429 194.546 161.787C195.069 162.145 195.481 162.605 195.782 163.168C196.083 163.724 196.234 164.392 196.234 165.17V174H192.79V172.185H192.688C192.478 172.594 192.197 172.955 191.844 173.267C191.492 173.574 191.069 173.815 190.575 173.991C190.08 174.162 189.509 174.247 188.862 174.247ZM189.901 171.741C190.435 171.741 190.907 171.636 191.316 171.426C191.725 171.21 192.046 170.92 192.279 170.557C192.512 170.193 192.629 169.781 192.629 169.321V167.932C192.515 168.006 192.359 168.074 192.16 168.136C191.967 168.193 191.748 168.247 191.504 168.298C191.259 168.344 191.015 168.386 190.771 168.426C190.526 168.46 190.305 168.491 190.106 168.52C189.68 168.582 189.308 168.682 188.989 168.818C188.671 168.955 188.424 169.139 188.248 169.372C188.072 169.599 187.984 169.884 187.984 170.224C187.984 170.719 188.163 171.097 188.521 171.358C188.884 171.614 189.344 171.741 189.901 171.741ZM200.823 178.909C200.363 178.909 199.931 178.872 199.528 178.798C199.13 178.73 198.8 178.642 198.539 178.534L199.357 175.824C199.783 175.955 200.167 176.026 200.508 176.037C200.854 176.048 201.153 175.969 201.403 175.798C201.658 175.628 201.866 175.338 202.025 174.929L202.238 174.375L197.542 160.909H201.36L204.07 170.523H204.207L206.942 160.909H210.786L205.698 175.415C205.454 176.119 205.121 176.733 204.701 177.256C204.286 177.784 203.761 178.19 203.124 178.474C202.488 178.764 201.721 178.909 200.823 178.909ZM220.781 174L217.219 160.909H220.892L222.92 169.705H223.04L225.153 160.909H228.759L230.906 169.653H231.017L233.011 160.909H236.676L233.122 174H229.278L227.028 165.767H226.866L224.616 174H220.781ZM244.251 174.256C242.904 174.256 241.745 173.983 240.773 173.438C239.808 172.886 239.063 172.108 238.54 171.102C238.018 170.091 237.756 168.895 237.756 167.514C237.756 166.168 238.018 164.986 238.54 163.969C239.063 162.952 239.799 162.159 240.748 161.591C241.702 161.023 242.822 160.739 244.106 160.739C244.969 160.739 245.773 160.878 246.518 161.156C247.268 161.429 247.921 161.841 248.478 162.392C249.04 162.943 249.478 163.636 249.79 164.472C250.103 165.301 250.259 166.273 250.259 167.386V168.384H239.205V166.134H246.842C246.842 165.611 246.728 165.148 246.501 164.744C246.273 164.341 245.958 164.026 245.555 163.798C245.157 163.565 244.694 163.449 244.165 163.449C243.614 163.449 243.126 163.577 242.7 163.832C242.279 164.082 241.95 164.42 241.711 164.847C241.472 165.267 241.35 165.736 241.344 166.253V168.392C241.344 169.04 241.464 169.599 241.702 170.071C241.947 170.543 242.29 170.906 242.734 171.162C243.177 171.418 243.702 171.545 244.31 171.545C244.714 171.545 245.083 171.489 245.418 171.375C245.754 171.261 246.04 171.091 246.279 170.864C246.518 170.636 246.7 170.358 246.825 170.028L250.183 170.25C250.012 171.057 249.663 171.761 249.134 172.364C248.612 172.96 247.935 173.426 247.106 173.761C246.282 174.091 245.33 174.256 244.251 174.256ZM181.521 189.909V192.636H173.638V189.909H181.521ZM175.428 186.773H179.058V198.977C179.058 199.312 179.109 199.574 179.212 199.761C179.314 199.943 179.456 200.071 179.638 200.145C179.825 200.219 180.041 200.256 180.286 200.256C180.456 200.256 180.626 200.241 180.797 200.213C180.967 200.179 181.098 200.153 181.189 200.136L181.76 202.838C181.578 202.895 181.322 202.96 180.993 203.034C180.663 203.114 180.263 203.162 179.791 203.179C178.916 203.213 178.149 203.097 177.49 202.83C176.837 202.562 176.328 202.148 175.964 201.585C175.601 201.023 175.422 200.312 175.428 199.455V186.773ZM189.712 203.256C188.365 203.256 187.206 202.983 186.234 202.438C185.268 201.886 184.524 201.108 184.001 200.102C183.479 199.091 183.217 197.895 183.217 196.514C183.217 195.168 183.479 193.986 184.001 192.969C184.524 191.952 185.26 191.159 186.209 190.591C187.163 190.023 188.283 189.739 189.567 189.739C190.43 189.739 191.234 189.878 191.979 190.156C192.729 190.429 193.382 190.841 193.939 191.392C194.501 191.943 194.939 192.636 195.251 193.472C195.564 194.301 195.72 195.273 195.72 196.386V197.384H184.666V195.134H192.303C192.303 194.611 192.189 194.148 191.962 193.744C191.734 193.341 191.419 193.026 191.016 192.798C190.618 192.565 190.155 192.449 189.626 192.449C189.075 192.449 188.587 192.577 188.161 192.832C187.74 193.082 187.411 193.42 187.172 193.847C186.933 194.267 186.811 194.736 186.805 195.253V197.392C186.805 198.04 186.925 198.599 187.163 199.071C187.408 199.543 187.751 199.906 188.195 200.162C188.638 200.418 189.163 200.545 189.771 200.545C190.175 200.545 190.544 200.489 190.879 200.375C191.214 200.261 191.501 200.091 191.74 199.864C191.979 199.636 192.161 199.358 192.286 199.028L195.643 199.25C195.473 200.057 195.124 200.761 194.595 201.364C194.072 201.96 193.396 202.426 192.567 202.761C191.743 203.091 190.791 203.256 189.712 203.256ZM201.822 203.247C200.987 203.247 200.243 203.102 199.589 202.812C198.936 202.517 198.419 202.082 198.038 201.509C197.663 200.929 197.476 200.207 197.476 199.344C197.476 198.616 197.609 198.006 197.876 197.511C198.143 197.017 198.507 196.619 198.967 196.318C199.428 196.017 199.95 195.79 200.536 195.636C201.126 195.483 201.746 195.375 202.393 195.312C203.155 195.233 203.768 195.159 204.234 195.091C204.7 195.017 205.038 194.909 205.249 194.767C205.459 194.625 205.564 194.415 205.564 194.136V194.085C205.564 193.545 205.393 193.128 205.053 192.832C204.717 192.537 204.24 192.389 203.621 192.389C202.967 192.389 202.447 192.534 202.061 192.824C201.675 193.108 201.419 193.466 201.294 193.898L197.936 193.625C198.107 192.83 198.442 192.142 198.942 191.562C199.442 190.977 200.087 190.528 200.876 190.216C201.672 189.898 202.592 189.739 203.638 189.739C204.365 189.739 205.061 189.824 205.726 189.994C206.396 190.165 206.99 190.429 207.507 190.787C208.03 191.145 208.442 191.605 208.743 192.168C209.044 192.724 209.195 193.392 209.195 194.17V203H205.751V201.185H205.649C205.439 201.594 205.158 201.955 204.805 202.267C204.453 202.574 204.03 202.815 203.536 202.991C203.041 203.162 202.47 203.247 201.822 203.247ZM202.862 200.741C203.396 200.741 203.868 200.636 204.277 200.426C204.686 200.21 205.007 199.92 205.24 199.557C205.473 199.193 205.589 198.781 205.589 198.321V196.932C205.476 197.006 205.32 197.074 205.121 197.136C204.928 197.193 204.709 197.247 204.464 197.298C204.22 197.344 203.976 197.386 203.732 197.426C203.487 197.46 203.266 197.491 203.067 197.52C202.641 197.582 202.268 197.682 201.95 197.818C201.632 197.955 201.385 198.139 201.209 198.372C201.033 198.599 200.945 198.884 200.945 199.224C200.945 199.719 201.124 200.097 201.482 200.358C201.845 200.614 202.305 200.741 202.862 200.741ZM217.926 203.256C216.585 203.256 215.432 202.972 214.466 202.403C213.506 201.83 212.767 201.034 212.25 200.017C211.739 199 211.483 197.83 211.483 196.506C211.483 195.165 211.741 193.989 212.259 192.977C212.781 191.96 213.523 191.168 214.483 190.599C215.443 190.026 216.585 189.739 217.909 189.739C219.051 189.739 220.051 189.946 220.909 190.361C221.767 190.776 222.446 191.358 222.946 192.108C223.446 192.858 223.722 193.739 223.773 194.75H220.347C220.25 194.097 219.994 193.571 219.58 193.173C219.17 192.77 218.634 192.568 217.969 192.568C217.406 192.568 216.915 192.722 216.494 193.028C216.08 193.33 215.756 193.77 215.523 194.349C215.29 194.929 215.173 195.631 215.173 196.455C215.173 197.29 215.287 198 215.514 198.585C215.747 199.17 216.074 199.616 216.494 199.923C216.915 200.23 217.406 200.384 217.969 200.384C218.384 200.384 218.756 200.298 219.085 200.128C219.42 199.957 219.696 199.71 219.912 199.386C220.134 199.057 220.278 198.662 220.347 198.202H223.773C223.716 199.202 223.443 200.082 222.955 200.844C222.472 201.599 221.804 202.19 220.952 202.616C220.099 203.043 219.091 203.256 217.926 203.256ZM229.728 195.432V203H226.097V185.545H229.626V192.219H229.779C230.075 191.446 230.552 190.841 231.211 190.403C231.87 189.96 232.697 189.739 233.691 189.739C234.6 189.739 235.393 189.938 236.069 190.335C236.751 190.727 237.279 191.293 237.654 192.031C238.035 192.764 238.222 193.642 238.217 194.665V203H234.586V195.312C234.592 194.506 234.387 193.878 233.972 193.429C233.563 192.98 232.989 192.756 232.251 192.756C231.756 192.756 231.319 192.861 230.938 193.071C230.563 193.281 230.268 193.588 230.052 193.991C229.842 194.389 229.734 194.869 229.728 195.432ZM245.02 200.614L244.926 201.551C244.852 202.301 244.71 203.048 244.5 203.793C244.295 204.543 244.08 205.222 243.852 205.83C243.631 206.438 243.452 206.915 243.315 207.261H240.963C241.048 206.926 241.165 206.457 241.312 205.855C241.46 205.259 241.599 204.588 241.73 203.844C241.861 203.099 241.943 202.341 241.977 201.568L242.02 200.614H245.02ZM48.1715 232V218.909H51.6317V221.219H51.7852C52.0579 220.452 52.5124 219.847 53.1488 219.403C53.7852 218.96 54.5465 218.739 55.4329 218.739C56.3306 218.739 57.0948 218.963 57.7255 219.412C58.3562 219.855 58.7766 220.457 58.9869 221.219H59.1232C59.3903 220.469 59.8732 219.869 60.5721 219.42C61.2766 218.966 62.109 218.739 63.0692 218.739C64.2908 218.739 65.2823 219.128 66.0437 219.906C66.8107 220.679 67.1942 221.776 67.1942 223.196V232H63.5721V223.912C63.5721 223.185 63.3789 222.639 62.9925 222.276C62.6062 221.912 62.1232 221.73 61.5437 221.73C60.8846 221.73 60.3704 221.94 60.0011 222.361C59.6317 222.776 59.4471 223.324 59.4471 224.006V232H55.9272V223.835C55.9272 223.193 55.7425 222.682 55.3732 222.301C55.0096 221.92 54.5295 221.73 53.9329 221.73C53.5295 221.73 53.1658 221.832 52.842 222.037C52.5238 222.236 52.271 222.517 52.0835 222.881C51.896 223.239 51.8022 223.659 51.8022 224.142V232H48.1715ZM73.7951 232.247C72.9599 232.247 72.2156 232.102 71.5621 231.812C70.9087 231.517 70.3917 231.082 70.011 230.509C69.636 229.929 69.4485 229.207 69.4485 228.344C69.4485 227.616 69.582 227.006 69.8491 226.511C70.1161 226.017 70.4798 225.619 70.94 225.318C71.4002 225.017 71.9229 224.79 72.5082 224.636C73.0991 224.483 73.7184 224.375 74.3661 224.312C75.1275 224.233 75.7411 224.159 76.207 224.091C76.6729 224.017 77.011 223.909 77.2212 223.767C77.4315 223.625 77.5366 223.415 77.5366 223.136V223.085C77.5366 222.545 77.3661 222.128 77.0252 221.832C76.69 221.537 76.2127 221.389 75.5934 221.389C74.94 221.389 74.4201 221.534 74.0337 221.824C73.6474 222.108 73.3917 222.466 73.2667 222.898L69.9087 222.625C70.0792 221.83 70.4144 221.142 70.9144 220.562C71.4144 219.977 72.0593 219.528 72.8491 219.216C73.6445 218.898 74.565 218.739 75.6104 218.739C76.3377 218.739 77.0337 218.824 77.6985 218.994C78.369 219.165 78.9627 219.429 79.4798 219.787C80.0025 220.145 80.4144 220.605 80.7156 221.168C81.0167 221.724 81.1673 222.392 81.1673 223.17V232H77.7241V230.185H77.6218C77.4116 230.594 77.1303 230.955 76.7781 231.267C76.4258 231.574 76.0025 231.815 75.5082 231.991C75.0138 232.162 74.4428 232.247 73.7951 232.247ZM74.8349 229.741C75.369 229.741 75.8406 229.636 76.2496 229.426C76.6587 229.21 76.9798 228.92 77.2127 228.557C77.4457 228.193 77.5621 227.781 77.5621 227.321V225.932C77.4485 226.006 77.2923 226.074 77.0934 226.136C76.9002 226.193 76.6815 226.247 76.4371 226.298C76.1928 226.344 75.9485 226.386 75.7042 226.426C75.4599 226.46 75.2383 226.491 75.0394 226.52C74.6133 226.582 74.2411 226.682 73.9229 226.818C73.6048 226.955 73.3576 227.139 73.1815 227.372C73.0053 227.599 72.9173 227.884 72.9173 228.224C72.9173 228.719 73.0962 229.097 73.4542 229.358C73.8178 229.614 74.2781 229.741 74.8349 229.741ZM85.7567 236.909C85.2965 236.909 84.8647 236.872 84.4613 236.798C84.0636 236.73 83.734 236.642 83.4727 236.534L84.2908 233.824C84.717 233.955 85.1005 234.026 85.4414 234.037C85.788 234.048 86.0863 233.969 86.3363 233.798C86.592 233.628 86.7994 233.338 86.9585 232.929L87.1715 232.375L82.4755 218.909H86.2937L89.0039 228.523H89.1403L91.8761 218.909H95.7198L90.6317 233.415C90.3874 234.119 90.055 234.733 89.6346 235.256C89.2198 235.784 88.6942 236.19 88.0579 236.474C87.4215 236.764 86.6545 236.909 85.7567 236.909ZM97.646 232V214.545H101.277V221.108H101.387C101.547 220.756 101.777 220.398 102.078 220.034C102.385 219.665 102.782 219.358 103.271 219.114C103.765 218.864 104.379 218.739 105.112 218.739C106.066 218.739 106.947 218.989 107.754 219.489C108.561 219.983 109.206 220.73 109.689 221.73C110.172 222.724 110.413 223.972 110.413 225.472C110.413 226.932 110.177 228.165 109.706 229.17C109.24 230.17 108.603 230.929 107.797 231.446C106.995 231.957 106.098 232.213 105.103 232.213C104.399 232.213 103.799 232.097 103.305 231.864C102.816 231.631 102.416 231.338 102.103 230.986C101.791 230.628 101.552 230.267 101.387 229.903H101.225V232H97.646ZM101.2 225.455C101.2 226.233 101.308 226.912 101.524 227.491C101.74 228.071 102.052 228.523 102.461 228.847C102.87 229.165 103.368 229.324 103.953 229.324C104.544 229.324 105.044 229.162 105.453 228.838C105.862 228.509 106.172 228.054 106.382 227.474C106.598 226.889 106.706 226.216 106.706 225.455C106.706 224.699 106.6 224.034 106.39 223.46C106.18 222.886 105.87 222.437 105.461 222.114C105.052 221.79 104.549 221.628 103.953 221.628C103.362 221.628 102.862 221.784 102.453 222.097C102.049 222.409 101.74 222.852 101.524 223.426C101.308 224 101.2 224.676 101.2 225.455ZM118.801 232.256C117.455 232.256 116.296 231.983 115.324 231.438C114.358 230.886 113.614 230.108 113.091 229.102C112.569 228.091 112.307 226.895 112.307 225.514C112.307 224.168 112.569 222.986 113.091 221.969C113.614 220.952 114.35 220.159 115.299 219.591C116.253 219.023 117.373 218.739 118.657 218.739C119.52 218.739 120.324 218.878 121.069 219.156C121.819 219.429 122.472 219.841 123.029 220.392C123.591 220.943 124.029 221.636 124.341 222.472C124.654 223.301 124.81 224.273 124.81 225.386V226.384H113.756V224.134H121.392C121.392 223.611 121.279 223.148 121.051 222.744C120.824 222.341 120.509 222.026 120.105 221.798C119.708 221.565 119.245 221.449 118.716 221.449C118.165 221.449 117.676 221.577 117.25 221.832C116.83 222.082 116.5 222.42 116.262 222.847C116.023 223.267 115.901 223.736 115.895 224.253V226.392C115.895 227.04 116.015 227.599 116.253 228.071C116.498 228.543 116.841 228.906 117.284 229.162C117.728 229.418 118.253 229.545 118.861 229.545C119.265 229.545 119.634 229.489 119.969 229.375C120.304 229.261 120.591 229.091 120.83 228.864C121.069 228.636 121.25 228.358 121.375 228.028L124.733 228.25C124.563 229.057 124.213 229.761 123.685 230.364C123.162 230.96 122.486 231.426 121.657 231.761C120.833 232.091 119.881 232.256 118.801 232.256ZM135.316 232L131.754 218.909H135.427L137.456 227.705H137.575L139.689 218.909H143.294L145.441 227.653H145.552L147.547 218.909H151.211L147.657 232H143.814L141.564 223.767H141.402L139.152 232H135.316ZM158.786 232.256C157.439 232.256 156.28 231.983 155.309 231.438C154.343 230.886 153.598 230.108 153.076 229.102C152.553 228.091 152.292 226.895 152.292 225.514C152.292 224.168 152.553 222.986 153.076 221.969C153.598 220.952 154.334 220.159 155.283 219.591C156.238 219.023 157.357 218.739 158.641 218.739C159.505 218.739 160.309 218.878 161.053 219.156C161.803 219.429 162.456 219.841 163.013 220.392C163.576 220.943 164.013 221.636 164.326 222.472C164.638 223.301 164.794 224.273 164.794 225.386V226.384H153.74V224.134H161.377C161.377 223.611 161.263 223.148 161.036 222.744C160.809 222.341 160.493 222.026 160.09 221.798C159.692 221.565 159.229 221.449 158.701 221.449C158.15 221.449 157.661 221.577 157.235 221.832C156.814 222.082 156.485 222.42 156.246 222.847C156.007 223.267 155.885 223.736 155.88 224.253V226.392C155.88 227.04 155.999 227.599 156.238 228.071C156.482 228.543 156.826 228.906 157.269 229.162C157.712 229.418 158.238 229.545 158.846 229.545C159.249 229.545 159.618 229.489 159.953 229.375C160.289 229.261 160.576 229.091 160.814 228.864C161.053 228.636 161.235 228.358 161.36 228.028L164.718 228.25C164.547 229.057 164.198 229.761 163.669 230.364C163.147 230.96 162.471 231.426 161.641 231.761C160.817 232.091 159.865 232.256 158.786 232.256ZM183.61 222.642L180.287 222.847C180.23 222.562 180.108 222.307 179.92 222.08C179.733 221.847 179.485 221.662 179.179 221.526C178.877 221.384 178.517 221.312 178.096 221.312C177.534 221.312 177.059 221.432 176.673 221.67C176.287 221.903 176.093 222.216 176.093 222.608C176.093 222.92 176.218 223.185 176.468 223.401C176.718 223.616 177.147 223.79 177.755 223.92L180.125 224.398C181.397 224.659 182.346 225.08 182.971 225.659C183.596 226.239 183.909 227 183.909 227.943C183.909 228.801 183.656 229.554 183.15 230.202C182.65 230.849 181.963 231.355 181.088 231.719C180.218 232.077 179.216 232.256 178.079 232.256C176.346 232.256 174.966 231.895 173.937 231.173C172.914 230.446 172.315 229.457 172.139 228.207L175.71 228.02C175.818 228.548 176.079 228.952 176.494 229.23C176.909 229.503 177.44 229.639 178.088 229.639C178.724 229.639 179.235 229.517 179.622 229.273C180.014 229.023 180.213 228.702 180.218 228.31C180.213 227.98 180.074 227.71 179.801 227.5C179.528 227.284 179.108 227.119 178.539 227.006L176.272 226.554C174.994 226.298 174.042 225.855 173.417 225.224C172.798 224.594 172.488 223.79 172.488 222.812C172.488 221.972 172.716 221.247 173.17 220.639C173.63 220.031 174.275 219.562 175.105 219.233C175.94 218.903 176.917 218.739 178.037 218.739C179.69 218.739 180.991 219.088 181.94 219.787C182.895 220.486 183.451 221.437 183.61 222.642ZM189.826 224.432V232H186.195V214.545H189.723V221.219H189.877C190.172 220.446 190.65 219.841 191.309 219.403C191.968 218.96 192.794 218.739 193.789 218.739C194.698 218.739 195.49 218.938 196.167 219.335C196.848 219.727 197.377 220.293 197.752 221.031C198.132 221.764 198.32 222.642 198.314 223.665V232H194.684V224.312C194.689 223.506 194.485 222.878 194.07 222.429C193.661 221.98 193.087 221.756 192.348 221.756C191.854 221.756 191.417 221.861 191.036 222.071C190.661 222.281 190.365 222.588 190.15 222.991C189.939 223.389 189.831 223.869 189.826 224.432ZM207.086 232.256C205.762 232.256 204.618 231.974 203.652 231.412C202.691 230.844 201.95 230.054 201.427 229.043C200.904 228.026 200.643 226.847 200.643 225.506C200.643 224.153 200.904 222.972 201.427 221.96C201.95 220.943 202.691 220.153 203.652 219.591C204.618 219.023 205.762 218.739 207.086 218.739C208.41 218.739 209.552 219.023 210.512 219.591C211.478 220.153 212.223 220.943 212.745 221.96C213.268 222.972 213.529 224.153 213.529 225.506C213.529 226.847 213.268 228.026 212.745 229.043C212.223 230.054 211.478 230.844 210.512 231.412C209.552 231.974 208.41 232.256 207.086 232.256ZM207.103 229.443C207.706 229.443 208.208 229.273 208.612 228.932C209.015 228.585 209.319 228.114 209.524 227.517C209.734 226.92 209.839 226.241 209.839 225.48C209.839 224.719 209.734 224.04 209.524 223.443C209.319 222.847 209.015 222.375 208.612 222.028C208.208 221.682 207.706 221.509 207.103 221.509C206.495 221.509 205.984 221.682 205.569 222.028C205.16 222.375 204.85 222.847 204.64 223.443C204.436 224.04 204.333 224.719 204.333 225.48C204.333 226.241 204.436 226.92 204.64 227.517C204.85 228.114 205.16 228.585 205.569 228.932C205.984 229.273 206.495 229.443 207.103 229.443ZM224.285 226.426V218.909H227.916V232H224.43V229.622H224.294C223.998 230.389 223.507 231.006 222.819 231.472C222.137 231.937 221.305 232.17 220.322 232.17C219.447 232.17 218.677 231.972 218.012 231.574C217.348 231.176 216.828 230.611 216.453 229.878C216.083 229.145 215.896 228.267 215.89 227.244V218.909H219.521V226.597C219.527 227.369 219.734 227.98 220.143 228.429C220.552 228.878 221.1 229.102 221.788 229.102C222.225 229.102 222.635 229.003 223.015 228.804C223.396 228.599 223.703 228.298 223.936 227.901C224.174 227.503 224.291 227.011 224.285 226.426ZM234.451 214.545V232H230.82V214.545H234.451ZM242.183 232.213C241.189 232.213 240.288 231.957 239.481 231.446C238.68 230.929 238.044 230.17 237.572 229.17C237.106 228.165 236.873 226.932 236.873 225.472C236.873 223.972 237.115 222.724 237.598 221.73C238.081 220.73 238.723 219.983 239.524 219.489C240.331 218.989 241.214 218.739 242.174 218.739C242.907 218.739 243.518 218.864 244.007 219.114C244.501 219.358 244.899 219.665 245.2 220.034C245.507 220.398 245.74 220.756 245.899 221.108H246.01V214.545H249.632V232H246.052V229.903H245.899C245.728 230.267 245.487 230.628 245.174 230.986C244.868 231.338 244.467 231.631 243.973 231.864C243.484 232.097 242.887 232.213 242.183 232.213ZM243.333 229.324C243.919 229.324 244.413 229.165 244.816 228.847C245.225 228.523 245.538 228.071 245.754 227.491C245.975 226.912 246.086 226.233 246.086 225.455C246.086 224.676 245.978 224 245.762 223.426C245.547 222.852 245.234 222.409 244.825 222.097C244.416 221.784 243.919 221.628 243.333 221.628C242.737 221.628 242.234 221.79 241.825 222.114C241.416 222.437 241.106 222.886 240.896 223.46C240.686 224.034 240.581 224.699 240.581 225.455C240.581 226.216 240.686 226.889 240.896 227.474C241.112 228.054 241.422 228.509 241.825 228.838C242.234 229.162 242.737 229.324 243.333 229.324ZM265.135 218.909V221.636H257.251V218.909H265.135ZM259.041 215.773H262.672V227.977C262.672 228.312 262.723 228.574 262.825 228.761C262.927 228.943 263.069 229.071 263.251 229.145C263.439 229.219 263.654 229.256 263.899 229.256C264.069 229.256 264.24 229.241 264.41 229.213C264.581 229.179 264.711 229.153 264.802 229.136L265.373 231.838C265.191 231.895 264.936 231.96 264.606 232.034C264.277 232.114 263.876 232.162 263.404 232.179C262.529 232.213 261.762 232.097 261.103 231.83C260.45 231.562 259.941 231.148 259.578 230.585C259.214 230.023 259.035 229.312 259.041 228.455V215.773ZM273.325 232.256C271.978 232.256 270.819 231.983 269.848 231.438C268.882 230.886 268.137 230.108 267.615 229.102C267.092 228.091 266.831 226.895 266.831 225.514C266.831 224.168 267.092 222.986 267.615 221.969C268.137 220.952 268.873 220.159 269.822 219.591C270.777 219.023 271.896 218.739 273.18 218.739C274.044 218.739 274.848 218.878 275.592 219.156C276.342 219.429 276.995 219.841 277.552 220.392C278.115 220.943 278.552 221.636 278.865 222.472C279.177 223.301 279.333 224.273 279.333 225.386V226.384H268.279V224.134H275.916C275.916 223.611 275.802 223.148 275.575 222.744C275.348 222.341 275.032 222.026 274.629 221.798C274.231 221.565 273.768 221.449 273.24 221.449C272.689 221.449 272.2 221.577 271.774 221.832C271.353 222.082 271.024 222.42 270.785 222.847C270.547 223.267 270.424 223.736 270.419 224.253V226.392C270.419 227.04 270.538 227.599 270.777 228.071C271.021 228.543 271.365 228.906 271.808 229.162C272.251 229.418 272.777 229.545 273.385 229.545C273.788 229.545 274.157 229.489 274.493 229.375C274.828 229.261 275.115 229.091 275.353 228.864C275.592 228.636 275.774 228.358 275.899 228.028L279.257 228.25C279.086 229.057 278.737 229.761 278.208 230.364C277.686 230.96 277.01 231.426 276.18 231.761C275.356 232.091 274.404 232.256 273.325 232.256ZM285.436 232.247C284.6 232.247 283.856 232.102 283.203 231.812C282.549 231.517 282.032 231.082 281.652 230.509C281.277 229.929 281.089 229.207 281.089 228.344C281.089 227.616 281.223 227.006 281.49 226.511C281.757 226.017 282.12 225.619 282.581 225.318C283.041 225.017 283.564 224.79 284.149 224.636C284.74 224.483 285.359 224.375 286.007 224.312C286.768 224.233 287.382 224.159 287.848 224.091C288.314 224.017 288.652 223.909 288.862 223.767C289.072 223.625 289.177 223.415 289.177 223.136V223.085C289.177 222.545 289.007 222.128 288.666 221.832C288.331 221.537 287.853 221.389 287.234 221.389C286.581 221.389 286.061 221.534 285.674 221.824C285.288 222.108 285.032 222.466 284.907 222.898L281.549 222.625C281.72 221.83 282.055 221.142 282.555 220.562C283.055 219.977 283.7 219.528 284.49 219.216C285.285 218.898 286.206 218.739 287.251 218.739C287.978 218.739 288.674 218.824 289.339 218.994C290.01 219.165 290.603 219.429 291.12 219.787C291.643 220.145 292.055 220.605 292.356 221.168C292.657 221.724 292.808 222.392 292.808 223.17V232H289.365V230.185H289.262C289.052 230.594 288.771 230.955 288.419 231.267C288.066 231.574 287.643 231.815 287.149 231.991C286.654 232.162 286.083 232.247 285.436 232.247ZM286.475 229.741C287.01 229.741 287.481 229.636 287.89 229.426C288.299 229.21 288.62 228.92 288.853 228.557C289.086 228.193 289.203 227.781 289.203 227.321V225.932C289.089 226.006 288.933 226.074 288.734 226.136C288.541 226.193 288.322 226.247 288.078 226.298C287.833 226.344 287.589 226.386 287.345 226.426C287.1 226.46 286.879 226.491 286.68 226.52C286.254 226.582 285.882 226.682 285.564 226.818C285.245 226.955 284.998 227.139 284.822 227.372C284.646 227.599 284.558 227.884 284.558 228.224C284.558 228.719 284.737 229.097 285.095 229.358C285.458 229.614 285.919 229.741 286.475 229.741ZM301.539 232.256C300.199 232.256 299.045 231.972 298.079 231.403C297.119 230.83 296.38 230.034 295.863 229.017C295.352 228 295.096 226.83 295.096 225.506C295.096 224.165 295.355 222.989 295.872 221.977C296.395 220.96 297.136 220.168 298.096 219.599C299.056 219.026 300.199 218.739 301.522 218.739C302.664 218.739 303.664 218.946 304.522 219.361C305.38 219.776 306.059 220.358 306.559 221.108C307.059 221.858 307.335 222.739 307.386 223.75H303.96C303.863 223.097 303.608 222.571 303.193 222.173C302.784 221.77 302.247 221.568 301.582 221.568C301.02 221.568 300.528 221.722 300.108 222.028C299.693 222.33 299.369 222.77 299.136 223.349C298.903 223.929 298.787 224.631 298.787 225.455C298.787 226.29 298.9 227 299.127 227.585C299.36 228.17 299.687 228.616 300.108 228.923C300.528 229.23 301.02 229.384 301.582 229.384C301.997 229.384 302.369 229.298 302.699 229.128C303.034 228.957 303.309 228.71 303.525 228.386C303.747 228.057 303.892 227.662 303.96 227.202H307.386C307.329 228.202 307.056 229.082 306.568 229.844C306.085 230.599 305.417 231.19 304.565 231.616C303.713 232.043 302.704 232.256 301.539 232.256ZM313.341 224.432V232H309.711V214.545H313.239V221.219H313.392C313.688 220.446 314.165 219.841 314.824 219.403C315.483 218.96 316.31 218.739 317.304 218.739C318.213 218.739 319.006 218.938 319.682 219.335C320.364 219.727 320.892 220.293 321.267 221.031C321.648 221.764 321.836 222.642 321.83 223.665V232H318.199V224.312C318.205 223.506 318 222.878 317.586 222.429C317.176 221.98 316.603 221.756 315.864 221.756C315.37 221.756 314.932 221.861 314.551 222.071C314.176 222.281 313.881 222.588 313.665 222.991C313.455 223.389 313.347 223.869 313.341 224.432ZM337.205 218.909V221.636H329.321V218.909H337.205ZM331.111 215.773H334.742V227.977C334.742 228.312 334.793 228.574 334.895 228.761C334.998 228.943 335.14 229.071 335.321 229.145C335.509 229.219 335.725 229.256 335.969 229.256C336.14 229.256 336.31 229.241 336.48 229.213C336.651 229.179 336.782 229.153 336.873 229.136L337.444 231.838C337.262 231.895 337.006 231.96 336.676 232.034C336.347 232.114 335.946 232.162 335.475 232.179C334.6 232.213 333.833 232.097 333.174 231.83C332.52 231.562 332.012 231.148 331.648 230.585C331.284 230.023 331.105 229.312 331.111 228.455V215.773ZM343.482 224.432V232H339.851V214.545H343.38V221.219H343.533C343.828 220.446 344.306 219.841 344.965 219.403C345.624 218.96 346.451 218.739 347.445 218.739C348.354 218.739 349.147 218.938 349.823 219.335C350.505 219.727 351.033 220.293 351.408 221.031C351.789 221.764 351.976 222.642 351.971 223.665V232H348.34V224.312C348.346 223.506 348.141 222.878 347.726 222.429C347.317 221.98 346.743 221.756 346.005 221.756C345.51 221.756 345.073 221.861 344.692 222.071C344.317 222.281 344.022 222.588 343.806 222.991C343.596 223.389 343.488 223.869 343.482 224.432ZM360.794 232.256C359.447 232.256 358.288 231.983 357.316 231.438C356.35 230.886 355.606 230.108 355.083 229.102C354.561 228.091 354.299 226.895 354.299 225.514C354.299 224.168 354.561 222.986 355.083 221.969C355.606 220.952 356.342 220.159 357.291 219.591C358.245 219.023 359.365 218.739 360.649 218.739C361.512 218.739 362.316 218.878 363.061 219.156C363.811 219.429 364.464 219.841 365.021 220.392C365.583 220.943 366.021 221.636 366.333 222.472C366.646 223.301 366.802 224.273 366.802 225.386V226.384H355.748V224.134H363.385C363.385 223.611 363.271 223.148 363.044 222.744C362.816 222.341 362.501 222.026 362.098 221.798C361.7 221.565 361.237 221.449 360.708 221.449C360.157 221.449 359.669 221.577 359.243 221.832C358.822 222.082 358.493 222.42 358.254 222.847C358.015 223.267 357.893 223.736 357.887 224.253V226.392C357.887 227.04 358.007 227.599 358.245 228.071C358.49 228.543 358.833 228.906 359.277 229.162C359.72 229.418 360.245 229.545 360.853 229.545C361.257 229.545 361.626 229.489 361.961 229.375C362.297 229.261 362.583 229.091 362.822 228.864C363.061 228.636 363.243 228.358 363.368 228.028L366.725 228.25C366.555 229.057 366.206 229.761 365.677 230.364C365.154 230.96 364.478 231.426 363.649 231.761C362.825 232.091 361.873 232.256 360.794 232.256ZM123.363 261L119.801 247.909H123.474L125.502 256.705H125.622L127.735 247.909H131.341L133.488 256.653H133.599L135.593 247.909H139.258L135.704 261H131.86L129.61 252.767H129.449L127.199 261H123.363ZM144.928 261.247C144.093 261.247 143.348 261.102 142.695 260.812C142.042 260.517 141.525 260.082 141.144 259.509C140.769 258.929 140.581 258.207 140.581 257.344C140.581 256.616 140.715 256.006 140.982 255.511C141.249 255.017 141.613 254.619 142.073 254.318C142.533 254.017 143.056 253.79 143.641 253.636C144.232 253.483 144.851 253.375 145.499 253.312C146.26 253.233 146.874 253.159 147.34 253.091C147.806 253.017 148.144 252.909 148.354 252.767C148.564 252.625 148.669 252.415 148.669 252.136V252.085C148.669 251.545 148.499 251.128 148.158 250.832C147.823 250.537 147.346 250.389 146.726 250.389C146.073 250.389 145.553 250.534 145.167 250.824C144.78 251.108 144.525 251.466 144.4 251.898L141.042 251.625C141.212 250.83 141.547 250.142 142.047 249.562C142.547 248.977 143.192 248.528 143.982 248.216C144.777 247.898 145.698 247.739 146.743 247.739C147.471 247.739 148.167 247.824 148.831 247.994C149.502 248.165 150.096 248.429 150.613 248.787C151.135 249.145 151.547 249.605 151.848 250.168C152.15 250.724 152.3 251.392 152.3 252.17V261H148.857V259.185H148.755C148.544 259.594 148.263 259.955 147.911 260.267C147.559 260.574 147.135 260.815 146.641 260.991C146.147 261.162 145.576 261.247 144.928 261.247ZM145.968 258.741C146.502 258.741 146.973 258.636 147.382 258.426C147.792 258.21 148.113 257.92 148.346 257.557C148.578 257.193 148.695 256.781 148.695 256.321V254.932C148.581 255.006 148.425 255.074 148.226 255.136C148.033 255.193 147.814 255.247 147.57 255.298C147.326 255.344 147.081 255.386 146.837 255.426C146.593 255.46 146.371 255.491 146.172 255.52C145.746 255.582 145.374 255.682 145.056 255.818C144.738 255.955 144.49 256.139 144.314 256.372C144.138 256.599 144.05 256.884 144.05 257.224C144.05 257.719 144.229 258.097 144.587 258.358C144.951 258.614 145.411 258.741 145.968 258.741ZM156.89 265.909C156.429 265.909 155.998 265.872 155.594 265.798C155.196 265.73 154.867 265.642 154.605 265.534L155.424 262.824C155.85 262.955 156.233 263.026 156.574 263.037C156.921 263.048 157.219 262.969 157.469 262.798C157.725 262.628 157.932 262.338 158.091 261.929L158.304 261.375L153.608 247.909H157.426L160.137 257.523H160.273L163.009 247.909H166.853L161.765 262.415C161.52 263.119 161.188 263.733 160.767 264.256C160.353 264.784 159.827 265.19 159.191 265.474C158.554 265.764 157.787 265.909 156.89 265.909ZM181.228 247.909V250.636H173.345V247.909H181.228ZM175.135 244.773H178.765V256.977C178.765 257.312 178.816 257.574 178.919 257.761C179.021 257.943 179.163 258.071 179.345 258.145C179.532 258.219 179.748 258.256 179.993 258.256C180.163 258.256 180.333 258.241 180.504 258.213C180.674 258.179 180.805 258.153 180.896 258.136L181.467 260.838C181.285 260.895 181.029 260.96 180.7 261.034C180.37 261.114 179.97 261.162 179.498 261.179C178.623 261.213 177.856 261.097 177.197 260.83C176.544 260.562 176.035 260.148 175.672 259.585C175.308 259.023 175.129 258.312 175.135 257.455V244.773ZM187.505 253.432V261H183.875V243.545H187.403V250.219H187.556C187.852 249.446 188.329 248.841 188.988 248.403C189.647 247.96 190.474 247.739 191.468 247.739C192.377 247.739 193.17 247.938 193.846 248.335C194.528 248.727 195.056 249.293 195.431 250.031C195.812 250.764 196 251.642 195.994 252.665V261H192.363V253.312C192.369 252.506 192.164 251.878 191.75 251.429C191.341 250.98 190.767 250.756 190.028 250.756C189.534 250.756 189.096 250.861 188.716 251.071C188.341 251.281 188.045 251.588 187.829 251.991C187.619 252.389 187.511 252.869 187.505 253.432ZM204.817 261.256C203.471 261.256 202.311 260.983 201.34 260.438C200.374 259.886 199.63 259.108 199.107 258.102C198.584 257.091 198.323 255.895 198.323 254.514C198.323 253.168 198.584 251.986 199.107 250.969C199.63 249.952 200.365 249.159 201.314 248.591C202.269 248.023 203.388 247.739 204.672 247.739C205.536 247.739 206.34 247.878 207.084 248.156C207.834 248.429 208.488 248.841 209.044 249.392C209.607 249.943 210.044 250.636 210.357 251.472C210.669 252.301 210.826 253.273 210.826 254.386V255.384H199.772V253.134H207.408C207.408 252.611 207.294 252.148 207.067 251.744C206.84 251.341 206.525 251.026 206.121 250.798C205.723 250.565 205.26 250.449 204.732 250.449C204.181 250.449 203.692 250.577 203.266 250.832C202.846 251.082 202.516 251.42 202.277 251.847C202.039 252.267 201.917 252.736 201.911 253.253V255.392C201.911 256.04 202.03 256.599 202.269 257.071C202.513 257.543 202.857 257.906 203.3 258.162C203.743 258.418 204.269 258.545 204.877 258.545C205.28 258.545 205.65 258.489 205.985 258.375C206.32 258.261 206.607 258.091 206.846 257.864C207.084 257.636 207.266 257.358 207.391 257.028L210.749 257.25C210.578 258.057 210.229 258.761 209.701 259.364C209.178 259.96 208.502 260.426 207.672 260.761C206.848 261.091 205.897 261.256 204.817 261.256ZM215.085 265.909C214.625 265.909 214.193 265.872 213.789 265.798C213.392 265.73 213.062 265.642 212.801 265.534L213.619 262.824C214.045 262.955 214.429 263.026 214.77 263.037C215.116 263.048 215.414 262.969 215.664 262.798C215.92 262.628 216.127 262.338 216.287 261.929L216.5 261.375L211.804 247.909H215.622L218.332 257.523H218.468L221.204 247.909H225.048L219.96 262.415C219.716 263.119 219.383 263.733 218.963 264.256C218.548 264.784 218.022 265.19 217.386 265.474C216.75 265.764 215.983 265.909 215.085 265.909ZM236.091 243.545V261H232.461V243.545H236.091ZM244.966 261.256C243.619 261.256 242.46 260.983 241.488 260.438C240.522 259.886 239.778 259.108 239.255 258.102C238.733 257.091 238.471 255.895 238.471 254.514C238.471 253.168 238.733 251.986 239.255 250.969C239.778 249.952 240.514 249.159 241.463 248.591C242.417 248.023 243.537 247.739 244.821 247.739C245.684 247.739 246.488 247.878 247.233 248.156C247.983 248.429 248.636 248.841 249.193 249.392C249.755 249.943 250.193 250.636 250.505 251.472C250.818 252.301 250.974 253.273 250.974 254.386V255.384H239.92V253.134H247.556C247.556 252.611 247.443 252.148 247.216 251.744C246.988 251.341 246.673 251.026 246.27 250.798C245.872 250.565 245.409 250.449 244.88 250.449C244.329 250.449 243.841 250.577 243.414 250.832C242.994 251.082 242.664 251.42 242.426 251.847C242.187 252.267 242.065 252.736 242.059 253.253V255.392C242.059 256.04 242.179 256.599 242.417 257.071C242.662 257.543 243.005 257.906 243.449 258.162C243.892 258.418 244.417 258.545 245.025 258.545C245.429 258.545 245.798 258.489 246.133 258.375C246.468 258.261 246.755 258.091 246.994 257.864C247.233 257.636 247.414 257.358 247.539 257.028L250.897 257.25C250.727 258.057 250.377 258.761 249.849 259.364C249.326 259.96 248.65 260.426 247.821 260.761C246.997 261.091 246.045 261.256 244.966 261.256ZM257.076 261.247C256.241 261.247 255.497 261.102 254.843 260.812C254.19 260.517 253.673 260.082 253.292 259.509C252.917 258.929 252.73 258.207 252.73 257.344C252.73 256.616 252.863 256.006 253.13 255.511C253.397 255.017 253.761 254.619 254.221 254.318C254.681 254.017 255.204 253.79 255.789 253.636C256.38 253.483 257 253.375 257.647 253.312C258.409 253.233 259.022 253.159 259.488 253.091C259.954 253.017 260.292 252.909 260.502 252.767C260.713 252.625 260.818 252.415 260.818 252.136V252.085C260.818 251.545 260.647 251.128 260.306 250.832C259.971 250.537 259.494 250.389 258.875 250.389C258.221 250.389 257.701 250.534 257.315 250.824C256.929 251.108 256.673 251.466 256.548 251.898L253.19 251.625C253.36 250.83 253.696 250.142 254.196 249.562C254.696 248.977 255.341 248.528 256.13 248.216C256.926 247.898 257.846 247.739 258.892 247.739C259.619 247.739 260.315 247.824 260.98 247.994C261.65 248.165 262.244 248.429 262.761 248.787C263.284 249.145 263.696 249.605 263.997 250.168C264.298 250.724 264.449 251.392 264.449 252.17V261H261.005V259.185H260.903C260.693 259.594 260.412 259.955 260.059 260.267C259.707 260.574 259.284 260.815 258.789 260.991C258.295 261.162 257.724 261.247 257.076 261.247ZM258.116 258.741C258.65 258.741 259.122 258.636 259.531 258.426C259.94 258.21 260.261 257.92 260.494 257.557C260.727 257.193 260.843 256.781 260.843 256.321V254.932C260.73 255.006 260.574 255.074 260.375 255.136C260.181 255.193 259.963 255.247 259.718 255.298C259.474 255.344 259.23 255.386 258.985 255.426C258.741 255.46 258.52 255.491 258.321 255.52C257.895 255.582 257.522 255.682 257.204 255.818C256.886 255.955 256.639 256.139 256.463 256.372C256.287 256.599 256.199 256.884 256.199 257.224C256.199 257.719 256.377 258.097 256.735 258.358C257.099 258.614 257.559 258.741 258.116 258.741ZM267.265 261V247.909H270.785V250.193H270.922C271.16 249.381 271.561 248.767 272.123 248.352C272.686 247.932 273.333 247.722 274.066 247.722C274.248 247.722 274.444 247.733 274.654 247.756C274.865 247.778 275.049 247.81 275.208 247.849V251.071C275.038 251.02 274.802 250.974 274.501 250.935C274.2 250.895 273.924 250.875 273.674 250.875C273.14 250.875 272.663 250.991 272.243 251.224C271.828 251.452 271.498 251.77 271.254 252.179C271.015 252.588 270.896 253.06 270.896 253.594V261H267.265ZM280.716 253.432V261H277.086V247.909H280.546V250.219H280.699C280.989 249.457 281.475 248.855 282.157 248.412C282.838 247.963 283.665 247.739 284.637 247.739C285.546 247.739 286.338 247.938 287.015 248.335C287.691 248.733 288.216 249.301 288.591 250.04C288.966 250.773 289.154 251.648 289.154 252.665V261H285.523V253.312C285.529 252.511 285.324 251.886 284.909 251.438C284.495 250.983 283.924 250.756 283.196 250.756C282.708 250.756 282.276 250.861 281.901 251.071C281.532 251.281 281.242 251.588 281.032 251.991C280.827 252.389 280.722 252.869 280.716 253.432ZM295.058 243.545V245.386C295.058 245.909 294.956 246.443 294.751 246.989C294.552 247.528 294.285 248.04 293.95 248.523C293.615 249 293.248 249.406 292.85 249.741L291.248 248.795C291.532 248.347 291.782 247.849 291.998 247.304C292.22 246.759 292.331 246.125 292.331 245.403V243.545H295.058ZM299.345 243.545V245.386C299.345 245.909 299.243 246.443 299.038 246.989C298.839 247.528 298.572 248.04 298.237 248.523C297.902 249 297.532 249.406 297.129 249.741L295.527 248.795C295.816 248.347 296.069 247.849 296.285 247.304C296.507 246.759 296.618 246.125 296.618 245.403V243.545H299.345ZM126.63 272.545V290H124.516V272.545H126.63ZM135.879 295.182C134.907 295.182 134.072 295.057 133.373 294.807C132.674 294.562 132.092 294.239 131.626 293.835C131.166 293.438 130.799 293.011 130.527 292.557L132.129 291.432C132.311 291.67 132.541 291.943 132.819 292.25C133.098 292.562 133.478 292.832 133.961 293.06C134.45 293.293 135.089 293.409 135.879 293.409C136.936 293.409 137.808 293.153 138.495 292.642C139.183 292.131 139.527 291.33 139.527 290.239V287.58H139.356C139.208 287.818 138.998 288.114 138.725 288.466C138.458 288.812 138.072 289.122 137.566 289.395C137.066 289.662 136.39 289.795 135.538 289.795C134.481 289.795 133.532 289.545 132.691 289.045C131.856 288.545 131.194 287.818 130.706 286.864C130.223 285.909 129.981 284.75 129.981 283.386C129.981 282.045 130.217 280.878 130.689 279.884C131.16 278.884 131.816 278.111 132.657 277.565C133.498 277.014 134.47 276.739 135.572 276.739C136.424 276.739 137.1 276.881 137.6 277.165C138.106 277.443 138.493 277.761 138.76 278.119C139.032 278.472 139.243 278.761 139.39 278.989H139.595V276.909H141.538V290.375C141.538 291.5 141.282 292.415 140.771 293.119C140.265 293.83 139.583 294.349 138.725 294.679C137.873 295.014 136.924 295.182 135.879 295.182ZM135.811 287.989C136.618 287.989 137.299 287.804 137.856 287.435C138.413 287.065 138.836 286.534 139.126 285.841C139.416 285.148 139.561 284.318 139.561 283.352C139.561 282.409 139.419 281.577 139.135 280.855C138.85 280.134 138.43 279.568 137.873 279.159C137.316 278.75 136.629 278.545 135.811 278.545C134.958 278.545 134.248 278.761 133.68 279.193C133.118 279.625 132.694 280.205 132.41 280.932C132.132 281.659 131.993 282.466 131.993 283.352C131.993 284.261 132.135 285.065 132.419 285.764C132.708 286.457 133.135 287.003 133.697 287.401C134.265 287.793 134.97 287.989 135.811 287.989ZM147.231 282.125V290H145.22V276.909H147.163V278.955H147.333C147.64 278.29 148.106 277.756 148.731 277.352C149.356 276.943 150.163 276.739 151.152 276.739C152.038 276.739 152.814 276.92 153.478 277.284C154.143 277.642 154.66 278.188 155.029 278.92C155.399 279.648 155.583 280.568 155.583 281.682V290H153.572V281.818C153.572 280.79 153.305 279.989 152.771 279.415C152.237 278.835 151.504 278.545 150.572 278.545C149.93 278.545 149.356 278.685 148.85 278.963C148.35 279.241 147.956 279.648 147.666 280.182C147.376 280.716 147.231 281.364 147.231 282.125ZM163.111 290.307C162.282 290.307 161.529 290.151 160.853 289.838C160.176 289.52 159.64 289.062 159.242 288.466C158.844 287.864 158.645 287.136 158.645 286.284C158.645 285.534 158.793 284.926 159.088 284.46C159.384 283.989 159.779 283.619 160.273 283.352C160.767 283.085 161.313 282.886 161.909 282.756C162.512 282.619 163.117 282.511 163.725 282.432C164.52 282.33 165.165 282.253 165.659 282.202C166.159 282.145 166.523 282.051 166.75 281.92C166.983 281.79 167.1 281.562 167.1 281.239V281.17C167.1 280.33 166.87 279.676 166.409 279.21C165.955 278.744 165.265 278.511 164.338 278.511C163.378 278.511 162.625 278.722 162.08 279.142C161.534 279.562 161.151 280.011 160.929 280.489L159.02 279.807C159.361 279.011 159.816 278.392 160.384 277.949C160.958 277.5 161.583 277.187 162.259 277.011C162.941 276.83 163.611 276.739 164.27 276.739C164.691 276.739 165.174 276.79 165.719 276.892C166.27 276.989 166.801 277.19 167.313 277.497C167.83 277.804 168.259 278.267 168.6 278.886C168.941 279.506 169.111 280.335 169.111 281.375V290H167.1V288.227H166.998C166.861 288.511 166.634 288.815 166.316 289.139C165.998 289.463 165.574 289.739 165.046 289.966C164.517 290.193 163.873 290.307 163.111 290.307ZM163.418 288.5C164.213 288.5 164.884 288.344 165.429 288.031C165.98 287.719 166.395 287.315 166.674 286.821C166.958 286.327 167.1 285.807 167.1 285.261V283.42C167.015 283.523 166.827 283.616 166.537 283.702C166.253 283.781 165.924 283.852 165.549 283.915C165.179 283.972 164.819 284.023 164.466 284.068C164.12 284.108 163.838 284.142 163.623 284.17C163.1 284.239 162.611 284.349 162.157 284.503C161.708 284.651 161.344 284.875 161.066 285.176C160.793 285.472 160.657 285.875 160.657 286.386C160.657 287.085 160.915 287.614 161.432 287.972C161.955 288.324 162.617 288.5 163.418 288.5ZM178.1 290.273C176.873 290.273 175.816 289.983 174.93 289.403C174.044 288.824 173.362 288.026 172.885 287.009C172.407 285.991 172.169 284.83 172.169 283.523C172.169 282.193 172.413 281.02 172.902 280.003C173.396 278.98 174.083 278.182 174.964 277.608C175.85 277.028 176.885 276.739 178.066 276.739C178.987 276.739 179.816 276.909 180.555 277.25C181.294 277.591 181.899 278.068 182.37 278.682C182.842 279.295 183.135 280.011 183.248 280.83H181.237C181.083 280.233 180.743 279.705 180.214 279.244C179.691 278.778 178.987 278.545 178.1 278.545C177.316 278.545 176.629 278.75 176.038 279.159C175.453 279.562 174.995 280.134 174.666 280.872C174.342 281.605 174.18 282.466 174.18 283.455C174.18 284.466 174.339 285.347 174.657 286.097C174.981 286.847 175.436 287.429 176.021 287.844C176.612 288.259 177.305 288.466 178.1 288.466C178.623 288.466 179.098 288.375 179.524 288.193C179.95 288.011 180.311 287.75 180.606 287.409C180.902 287.068 181.112 286.659 181.237 286.182H183.248C183.135 286.955 182.853 287.651 182.404 288.27C181.961 288.884 181.373 289.372 180.64 289.736C179.913 290.094 179.066 290.273 178.1 290.273ZM186.189 290V276.909H188.2V290H186.189ZM187.211 274.727C186.819 274.727 186.481 274.594 186.197 274.327C185.919 274.06 185.779 273.739 185.779 273.364C185.779 272.989 185.919 272.668 186.197 272.401C186.481 272.134 186.819 272 187.211 272C187.603 272 187.939 272.134 188.217 272.401C188.501 272.668 188.643 272.989 188.643 273.364C188.643 273.739 188.501 274.06 188.217 274.327C187.939 274.594 187.603 274.727 187.211 274.727ZM197.202 290.273C196.02 290.273 194.983 289.991 194.091 289.429C193.205 288.866 192.512 288.08 192.012 287.068C191.517 286.057 191.27 284.875 191.27 283.523C191.27 282.159 191.517 280.969 192.012 279.952C192.512 278.935 193.205 278.145 194.091 277.582C194.983 277.02 196.02 276.739 197.202 276.739C198.384 276.739 199.418 277.02 200.304 277.582C201.196 278.145 201.89 278.935 202.384 279.952C202.884 280.969 203.134 282.159 203.134 283.523C203.134 284.875 202.884 286.057 202.384 287.068C201.89 288.08 201.196 288.866 200.304 289.429C199.418 289.991 198.384 290.273 197.202 290.273ZM197.202 288.466C198.1 288.466 198.838 288.236 199.418 287.776C199.998 287.315 200.426 286.71 200.705 285.96C200.983 285.21 201.123 284.398 201.123 283.523C201.123 282.648 200.983 281.832 200.705 281.077C200.426 280.321 199.998 279.71 199.418 279.244C198.838 278.778 198.1 278.545 197.202 278.545C196.304 278.545 195.566 278.778 194.986 279.244C194.407 279.71 193.978 280.321 193.699 281.077C193.421 281.832 193.282 282.648 193.282 283.523C193.282 284.398 193.421 285.21 193.699 285.96C193.978 286.71 194.407 287.315 194.986 287.776C195.566 288.236 196.304 288.466 197.202 288.466ZM213.227 290V272.545H223.761V274.42H215.341V280.318H223.216V282.193H215.341V288.125H223.897V290H213.227ZM236.571 279.841L234.764 280.352C234.65 280.051 234.483 279.759 234.261 279.474C234.045 279.185 233.75 278.946 233.375 278.759C233 278.571 232.52 278.477 231.934 278.477C231.133 278.477 230.466 278.662 229.931 279.031C229.403 279.395 229.139 279.858 229.139 280.42C229.139 280.92 229.321 281.315 229.684 281.605C230.048 281.895 230.616 282.136 231.389 282.33L233.332 282.807C234.502 283.091 235.375 283.526 235.949 284.111C236.522 284.69 236.809 285.437 236.809 286.352C236.809 287.102 236.593 287.773 236.162 288.364C235.735 288.955 235.139 289.42 234.372 289.761C233.605 290.102 232.713 290.273 231.696 290.273C230.36 290.273 229.255 289.983 228.38 289.403C227.505 288.824 226.951 287.977 226.718 286.864L228.627 286.386C228.809 287.091 229.153 287.619 229.659 287.972C230.17 288.324 230.838 288.5 231.662 288.5C232.599 288.5 233.343 288.301 233.895 287.903C234.451 287.5 234.73 287.017 234.73 286.455C234.73 286 234.571 285.619 234.252 285.312C233.934 285 233.446 284.767 232.787 284.614L230.605 284.102C229.406 283.818 228.525 283.378 227.963 282.781C227.406 282.179 227.127 281.426 227.127 280.523C227.127 279.784 227.335 279.131 227.75 278.562C228.17 277.994 228.741 277.548 229.463 277.224C230.19 276.901 231.014 276.739 231.934 276.739C233.23 276.739 234.247 277.023 234.985 277.591C235.73 278.159 236.258 278.909 236.571 279.841ZM245.53 276.909V278.614H238.746V276.909H245.53ZM240.723 273.773H242.735V286.25C242.735 286.818 242.817 287.244 242.982 287.528C243.152 287.807 243.368 287.994 243.63 288.091C243.897 288.182 244.178 288.227 244.473 288.227C244.695 288.227 244.877 288.216 245.019 288.193C245.161 288.165 245.275 288.142 245.36 288.125L245.769 289.932C245.632 289.983 245.442 290.034 245.198 290.085C244.953 290.142 244.644 290.17 244.269 290.17C243.701 290.17 243.144 290.048 242.598 289.804C242.059 289.56 241.61 289.188 241.252 288.688C240.9 288.188 240.723 287.557 240.723 286.795V273.773ZM248.556 290V276.909H250.499V278.886H250.635C250.874 278.239 251.306 277.713 251.931 277.31C252.556 276.906 253.26 276.705 254.044 276.705C254.192 276.705 254.377 276.707 254.598 276.713C254.82 276.719 254.988 276.727 255.101 276.739V278.784C255.033 278.767 254.877 278.741 254.632 278.707C254.394 278.668 254.141 278.648 253.874 278.648C253.238 278.648 252.669 278.781 252.169 279.048C251.675 279.31 251.283 279.673 250.993 280.139C250.709 280.599 250.567 281.125 250.567 281.716V290H248.556ZM261.338 290.307C260.508 290.307 259.755 290.151 259.079 289.838C258.403 289.52 257.866 289.062 257.468 288.466C257.071 287.864 256.872 287.136 256.872 286.284C256.872 285.534 257.02 284.926 257.315 284.46C257.61 283.989 258.005 283.619 258.5 283.352C258.994 283.085 259.539 282.886 260.136 282.756C260.738 282.619 261.343 282.511 261.951 282.432C262.747 282.33 263.392 282.253 263.886 282.202C264.386 282.145 264.75 282.051 264.977 281.92C265.21 281.79 265.326 281.562 265.326 281.239V281.17C265.326 280.33 265.096 279.676 264.636 279.21C264.181 278.744 263.491 278.511 262.565 278.511C261.605 278.511 260.852 278.722 260.306 279.142C259.761 279.562 259.377 280.011 259.156 280.489L257.247 279.807C257.588 279.011 258.042 278.392 258.61 277.949C259.184 277.5 259.809 277.187 260.485 277.011C261.167 276.83 261.838 276.739 262.497 276.739C262.917 276.739 263.4 276.79 263.946 276.892C264.497 276.989 265.028 277.19 265.539 277.497C266.056 277.804 266.485 278.267 266.826 278.886C267.167 279.506 267.338 280.335 267.338 281.375V290H265.326V288.227H265.224C265.088 288.511 264.86 288.815 264.542 289.139C264.224 289.463 263.801 289.739 263.272 289.966C262.744 290.193 262.099 290.307 261.338 290.307ZM261.645 288.5C262.44 288.5 263.11 288.344 263.656 288.031C264.207 287.719 264.622 287.315 264.9 286.821C265.184 286.327 265.326 285.807 265.326 285.261V283.42C265.241 283.523 265.054 283.616 264.764 283.702C264.48 283.781 264.15 283.852 263.775 283.915C263.406 283.972 263.045 284.023 262.693 284.068C262.346 284.108 262.065 284.142 261.849 284.17C261.326 284.239 260.838 284.349 260.383 284.503C259.934 284.651 259.571 284.875 259.292 285.176C259.02 285.472 258.883 285.875 258.883 286.386C258.883 287.085 259.142 287.614 259.659 287.972C260.181 288.324 260.843 288.5 261.645 288.5ZM275.952 290.273C274.861 290.273 273.898 289.997 273.063 289.446C272.228 288.889 271.574 288.105 271.103 287.094C270.631 286.077 270.395 284.875 270.395 283.489C270.395 282.114 270.631 280.92 271.103 279.909C271.574 278.898 272.23 278.116 273.071 277.565C273.912 277.014 274.884 276.739 275.986 276.739C276.838 276.739 277.512 276.881 278.006 277.165C278.506 277.443 278.887 277.761 279.148 278.119C279.415 278.472 279.623 278.761 279.77 278.989H279.941V272.545H281.952V290H280.009V287.989H279.77C279.623 288.227 279.412 288.528 279.14 288.892C278.867 289.25 278.478 289.571 277.972 289.855C277.466 290.134 276.793 290.273 275.952 290.273ZM276.225 288.466C277.032 288.466 277.713 288.256 278.27 287.835C278.827 287.409 279.25 286.821 279.54 286.071C279.83 285.315 279.975 284.443 279.975 283.455C279.975 282.477 279.833 281.622 279.549 280.889C279.265 280.151 278.844 279.577 278.287 279.168C277.73 278.753 277.043 278.545 276.225 278.545C275.373 278.545 274.662 278.764 274.094 279.202C273.532 279.634 273.108 280.222 272.824 280.966C272.546 281.705 272.407 282.534 272.407 283.455C272.407 284.386 272.549 285.233 272.833 285.994C273.123 286.75 273.549 287.352 274.111 287.801C274.679 288.244 275.384 288.466 276.225 288.466ZM289.767 290.307C288.938 290.307 288.185 290.151 287.509 289.838C286.833 289.52 286.296 289.062 285.898 288.466C285.5 287.864 285.301 287.136 285.301 286.284C285.301 285.534 285.449 284.926 285.745 284.46C286.04 283.989 286.435 283.619 286.929 283.352C287.424 283.085 287.969 282.886 288.566 282.756C289.168 282.619 289.773 282.511 290.381 282.432C291.176 282.33 291.821 282.253 292.316 282.202C292.816 282.145 293.179 282.051 293.407 281.92C293.64 281.79 293.756 281.562 293.756 281.239V281.17C293.756 280.33 293.526 279.676 293.066 279.21C292.611 278.744 291.921 278.511 290.995 278.511C290.034 278.511 289.282 278.722 288.736 279.142C288.191 279.562 287.807 280.011 287.586 280.489L285.676 279.807C286.017 279.011 286.472 278.392 287.04 277.949C287.614 277.5 288.239 277.187 288.915 277.011C289.597 276.83 290.267 276.739 290.926 276.739C291.347 276.739 291.83 276.79 292.375 276.892C292.926 276.989 293.458 277.19 293.969 277.497C294.486 277.804 294.915 278.267 295.256 278.886C295.597 279.506 295.767 280.335 295.767 281.375V290H293.756V288.227H293.654C293.517 288.511 293.29 288.815 292.972 289.139C292.654 289.463 292.23 289.739 291.702 289.966C291.174 290.193 290.529 290.307 289.767 290.307ZM290.074 288.5C290.87 288.5 291.54 288.344 292.086 288.031C292.637 287.719 293.051 287.315 293.33 286.821C293.614 286.327 293.756 285.807 293.756 285.261V283.42C293.671 283.523 293.483 283.616 293.194 283.702C292.909 283.781 292.58 283.852 292.205 283.915C291.836 283.972 291.475 284.023 291.123 284.068C290.776 284.108 290.495 284.142 290.279 284.17C289.756 284.239 289.267 284.349 288.813 284.503C288.364 284.651 288 284.875 287.722 285.176C287.449 285.472 287.313 285.875 287.313 286.386C287.313 287.085 287.571 287.614 288.088 287.972C288.611 288.324 289.273 288.5 290.074 288.5Z" fill="#554D3F"/>
</svg>
