<svg width="307" height="303" viewBox="0 0 307 303" fill="none" xmlns="http://www.w3.org/2000/svg">
<g opacity="0.5">
<rect width="307" height="303" rx="151.5" fill="#B6C7AA"/>
</g>
<path d="M71.8938 113.545V115.386C71.8938 115.909 71.7915 116.443 71.587 116.989C71.3881 117.528 71.1211 118.04 70.7859 118.523C70.4506 119 70.0842 119.406 69.6864 119.741L68.0842 118.795C68.3683 118.347 68.6183 117.849 68.8342 117.304C69.0558 116.759 69.1665 116.125 69.1665 115.403V113.545H71.8938ZM76.1808 113.545V115.386C76.1808 115.909 76.0785 116.443 75.8739 116.989C75.6751 117.528 75.408 118.04 75.0728 118.523C74.7376 119 74.3683 119.406 73.9648 119.741L72.3626 118.795C72.6523 118.347 72.9052 117.849 73.1211 117.304C73.3427 116.759 73.4535 116.125 73.4535 115.403V113.545H76.1808ZM82.7113 113.545V131H79.021V113.545H82.7113ZM94.967 131.247C94.1317 131.247 93.3874 131.102 92.734 130.812C92.0806 130.517 91.5636 130.082 91.1829 129.509C90.8079 128.929 90.6204 128.207 90.6204 127.344C90.6204 126.616 90.7539 126.006 91.021 125.511C91.288 125.017 91.6516 124.619 92.1119 124.318C92.5721 124.017 93.0948 123.79 93.68 123.636C94.271 123.483 94.8903 123.375 95.538 123.312C96.2994 123.233 96.913 123.159 97.3789 123.091C97.8448 123.017 98.1829 122.909 98.3931 122.767C98.6033 122.625 98.7085 122.415 98.7085 122.136V122.085C98.7085 121.545 98.538 121.128 98.1971 120.832C97.8619 120.537 97.3846 120.389 96.7653 120.389C96.1119 120.389 95.592 120.534 95.2056 120.824C94.8192 121.108 94.5636 121.466 94.4386 121.898L91.0806 121.625C91.2511 120.83 91.5863 120.142 92.0863 119.562C92.5863 118.977 93.2312 118.528 94.021 118.216C94.8164 117.898 95.7369 117.739 96.7823 117.739C97.5096 117.739 98.2056 117.824 98.8704 117.994C99.5408 118.165 100.135 118.429 100.652 118.787C101.174 119.145 101.586 119.605 101.887 120.168C102.189 120.724 102.339 121.392 102.339 122.17V131H98.896V129.185H98.7937C98.5835 129.594 98.3022 129.955 97.9499 130.267C97.5977 130.574 97.1744 130.815 96.68 130.991C96.1857 131.162 95.6147 131.247 94.967 131.247ZM96.0067 128.741C96.5408 128.741 97.0124 128.636 97.4215 128.426C97.8306 128.21 98.1516 127.92 98.3846 127.557C98.6175 127.193 98.734 126.781 98.734 126.321V124.932C98.6204 125.006 98.4641 125.074 98.2653 125.136C98.0721 125.193 97.8533 125.247 97.609 125.298C97.3647 125.344 97.1204 125.386 96.8761 125.426C96.6317 125.46 96.4102 125.491 96.2113 125.52C95.7852 125.582 95.413 125.682 95.0948 125.818C94.7766 125.955 94.5295 126.139 94.3533 126.372C94.1772 126.599 94.0891 126.884 94.0891 127.224C94.0891 127.719 94.2681 128.097 94.6261 128.358C94.9897 128.614 95.4499 128.741 96.0067 128.741ZM105.156 131V117.909H108.616V120.219H108.77C109.042 119.452 109.497 118.847 110.133 118.403C110.77 117.96 111.531 117.739 112.417 117.739C113.315 117.739 114.079 117.963 114.71 118.412C115.341 118.855 115.761 119.457 115.971 120.219H116.108C116.375 119.469 116.858 118.869 117.556 118.42C118.261 117.966 119.093 117.739 120.054 117.739C121.275 117.739 122.267 118.128 123.028 118.906C123.795 119.679 124.179 120.776 124.179 122.196V131H120.556V122.912C120.556 122.185 120.363 121.639 119.977 121.276C119.591 120.912 119.108 120.73 118.528 120.73C117.869 120.73 117.355 120.94 116.985 121.361C116.616 121.776 116.431 122.324 116.431 123.006V131H112.912V122.835C112.912 122.193 112.727 121.682 112.358 121.301C111.994 120.92 111.514 120.73 110.917 120.73C110.514 120.73 110.15 120.832 109.826 121.037C109.508 121.236 109.255 121.517 109.068 121.881C108.88 122.239 108.787 122.659 108.787 123.142V131H105.156ZM137.425 131.213C136.431 131.213 135.53 130.957 134.723 130.446C133.922 129.929 133.286 129.17 132.814 128.17C132.348 127.165 132.115 125.932 132.115 124.472C132.115 122.972 132.357 121.724 132.84 120.73C133.323 119.73 133.965 118.983 134.766 118.489C135.573 117.989 136.456 117.739 137.417 117.739C138.15 117.739 138.76 117.864 139.249 118.114C139.743 118.358 140.141 118.665 140.442 119.034C140.749 119.398 140.982 119.756 141.141 120.108H141.252V113.545H144.874V131H141.294V128.903H141.141C140.971 129.267 140.729 129.628 140.417 129.986C140.11 130.338 139.709 130.631 139.215 130.864C138.726 131.097 138.13 131.213 137.425 131.213ZM138.576 128.324C139.161 128.324 139.655 128.165 140.059 127.847C140.468 127.523 140.78 127.071 140.996 126.491C141.218 125.912 141.328 125.233 141.328 124.455C141.328 123.676 141.221 123 141.005 122.426C140.789 121.852 140.476 121.409 140.067 121.097C139.658 120.784 139.161 120.628 138.576 120.628C137.979 120.628 137.476 120.79 137.067 121.114C136.658 121.437 136.348 121.886 136.138 122.46C135.928 123.034 135.823 123.699 135.823 124.455C135.823 125.216 135.928 125.889 136.138 126.474C136.354 127.054 136.664 127.509 137.067 127.838C137.476 128.162 137.979 128.324 138.576 128.324ZM147.859 131V117.909H151.49V131H147.859ZM149.683 116.222C149.143 116.222 148.68 116.043 148.294 115.685C147.913 115.321 147.723 114.886 147.723 114.381C147.723 113.881 147.913 113.452 148.294 113.094C148.68 112.73 149.143 112.548 149.683 112.548C150.223 112.548 150.683 112.73 151.064 113.094C151.45 113.452 151.643 113.881 151.643 114.381C151.643 114.886 151.45 115.321 151.064 115.685C150.683 116.043 150.223 116.222 149.683 116.222ZM161.438 117.909V120.636H153.358V117.909H161.438ZM155.208 131V116.963C155.208 116.014 155.392 115.227 155.762 114.602C156.137 113.977 156.648 113.509 157.296 113.196C157.944 112.884 158.679 112.727 159.503 112.727C160.06 112.727 160.569 112.77 161.029 112.855C161.495 112.94 161.841 113.017 162.069 113.085L161.421 115.812C161.279 115.767 161.103 115.724 160.892 115.685C160.688 115.645 160.478 115.625 160.262 115.625C159.728 115.625 159.355 115.75 159.145 116C158.935 116.244 158.83 116.588 158.83 117.031V131H155.208ZM170.696 117.909V120.636H162.616V117.909H170.696ZM164.466 131V116.963C164.466 116.014 164.65 115.227 165.02 114.602C165.395 113.977 165.906 113.509 166.554 113.196C167.201 112.884 167.937 112.727 168.761 112.727C169.318 112.727 169.826 112.77 170.287 112.855C170.752 112.94 171.099 113.017 171.326 113.085L170.679 115.812C170.537 115.767 170.36 115.724 170.15 115.685C169.946 115.645 169.735 115.625 169.52 115.625C168.985 115.625 168.613 115.75 168.403 116C168.193 116.244 168.088 116.588 168.088 117.031V131H164.466ZM178.411 131.256C177.064 131.256 175.905 130.983 174.934 130.438C173.968 129.886 173.223 129.108 172.701 128.102C172.178 127.091 171.917 125.895 171.917 124.514C171.917 123.168 172.178 121.986 172.701 120.969C173.223 119.952 173.959 119.159 174.908 118.591C175.863 118.023 176.982 117.739 178.266 117.739C179.13 117.739 179.934 117.878 180.678 118.156C181.428 118.429 182.081 118.841 182.638 119.392C183.201 119.943 183.638 120.636 183.951 121.472C184.263 122.301 184.419 123.273 184.419 124.386V125.384H173.365V123.134H181.002C181.002 122.611 180.888 122.148 180.661 121.744C180.434 121.341 180.118 121.026 179.715 120.798C179.317 120.565 178.854 120.449 178.326 120.449C177.775 120.449 177.286 120.577 176.86 120.832C176.439 121.082 176.11 121.42 175.871 121.847C175.632 122.267 175.51 122.736 175.505 123.253V125.392C175.505 126.04 175.624 126.599 175.863 127.071C176.107 127.543 176.451 127.906 176.894 128.162C177.337 128.418 177.863 128.545 178.471 128.545C178.874 128.545 179.243 128.489 179.578 128.375C179.914 128.261 180.201 128.091 180.439 127.864C180.678 127.636 180.86 127.358 180.985 127.028L184.343 127.25C184.172 128.057 183.823 128.761 183.294 129.364C182.772 129.96 182.096 130.426 181.266 130.761C180.442 131.091 179.49 131.256 178.411 131.256ZM186.789 131V117.909H190.309V120.193H190.445C190.684 119.381 191.084 118.767 191.647 118.352C192.209 117.932 192.857 117.722 193.59 117.722C193.772 117.722 193.968 117.733 194.178 117.756C194.388 117.778 194.573 117.81 194.732 117.849V121.071C194.561 121.02 194.326 120.974 194.025 120.935C193.723 120.895 193.448 120.875 193.198 120.875C192.664 120.875 192.186 120.991 191.766 121.224C191.351 121.452 191.022 121.77 190.777 122.179C190.539 122.588 190.419 123.06 190.419 123.594V131H186.789ZM201.966 131.256C200.619 131.256 199.46 130.983 198.488 130.438C197.522 129.886 196.778 129.108 196.255 128.102C195.733 127.091 195.471 125.895 195.471 124.514C195.471 123.168 195.733 121.986 196.255 120.969C196.778 119.952 197.514 119.159 198.463 118.591C199.417 118.023 200.537 117.739 201.821 117.739C202.684 117.739 203.488 117.878 204.233 118.156C204.983 118.429 205.636 118.841 206.193 119.392C206.755 119.943 207.193 120.636 207.505 121.472C207.818 122.301 207.974 123.273 207.974 124.386V125.384H196.92V123.134H204.556C204.556 122.611 204.443 122.148 204.216 121.744C203.988 121.341 203.673 121.026 203.27 120.798C202.872 120.565 202.409 120.449 201.88 120.449C201.329 120.449 200.841 120.577 200.414 120.832C199.994 121.082 199.664 121.42 199.426 121.847C199.187 122.267 199.065 122.736 199.059 123.253V125.392C199.059 126.04 199.179 126.599 199.417 127.071C199.662 127.543 200.005 127.906 200.449 128.162C200.892 128.418 201.417 128.545 202.025 128.545C202.429 128.545 202.798 128.489 203.133 128.375C203.468 128.261 203.755 128.091 203.994 127.864C204.233 127.636 204.414 127.358 204.539 127.028L207.897 127.25C207.727 128.057 207.377 128.761 206.849 129.364C206.326 129.96 205.65 130.426 204.821 130.761C203.997 131.091 203.045 131.256 201.966 131.256ZM213.974 123.432V131H210.343V117.909H213.804V120.219H213.957C214.247 119.457 214.733 118.855 215.414 118.412C216.096 117.963 216.923 117.739 217.895 117.739C218.804 117.739 219.596 117.938 220.272 118.335C220.949 118.733 221.474 119.301 221.849 120.04C222.224 120.773 222.412 121.648 222.412 122.665V131H218.781V123.312C218.787 122.511 218.582 121.886 218.167 121.438C217.752 120.983 217.181 120.756 216.454 120.756C215.966 120.756 215.534 120.861 215.159 121.071C214.789 121.281 214.5 121.588 214.289 121.991C214.085 122.389 213.98 122.869 213.974 123.432ZM232.236 117.909V120.636H224.353V117.909H232.236ZM226.142 114.773H229.773V126.977C229.773 127.312 229.824 127.574 229.926 127.761C230.029 127.943 230.171 128.071 230.353 128.145C230.54 128.219 230.756 128.256 231 128.256C231.171 128.256 231.341 128.241 231.512 128.213C231.682 128.179 231.813 128.153 231.904 128.136L232.475 130.838C232.293 130.895 232.037 130.96 231.708 131.034C231.378 131.114 230.978 131.162 230.506 131.179C229.631 131.213 228.864 131.097 228.205 130.83C227.551 130.562 227.043 130.148 226.679 129.585C226.316 129.023 226.137 128.312 226.142 127.455V114.773ZM238.547 128.614L238.453 129.551C238.38 130.301 238.238 131.048 238.027 131.793C237.823 132.543 237.607 133.222 237.38 133.83C237.158 134.438 236.979 134.915 236.843 135.261H234.49C234.576 134.926 234.692 134.457 234.84 133.855C234.988 133.259 235.127 132.588 235.257 131.844C235.388 131.099 235.471 130.341 235.505 129.568L235.547 128.614H238.547ZM107.345 152.432V160H103.714V146.909H107.175V149.219H107.328C107.618 148.457 108.104 147.855 108.786 147.412C109.467 146.963 110.294 146.739 111.266 146.739C112.175 146.739 112.967 146.938 113.643 147.335C114.32 147.733 114.845 148.301 115.22 149.04C115.595 149.773 115.783 150.648 115.783 151.665V160H112.152V152.312C112.158 151.511 111.953 150.886 111.538 150.438C111.124 149.983 110.553 149.756 109.825 149.756C109.337 149.756 108.905 149.861 108.53 150.071C108.161 150.281 107.871 150.588 107.661 150.991C107.456 151.389 107.351 151.869 107.345 152.432ZM124.559 160.256C123.235 160.256 122.09 159.974 121.124 159.412C120.164 158.844 119.423 158.054 118.9 157.043C118.377 156.026 118.116 154.847 118.116 153.506C118.116 152.153 118.377 150.972 118.9 149.96C119.423 148.943 120.164 148.153 121.124 147.591C122.09 147.023 123.235 146.739 124.559 146.739C125.883 146.739 127.025 147.023 127.985 147.591C128.951 148.153 129.695 148.943 130.218 149.96C130.741 150.972 131.002 152.153 131.002 153.506C131.002 154.847 130.741 156.026 130.218 157.043C129.695 158.054 128.951 158.844 127.985 159.412C127.025 159.974 125.883 160.256 124.559 160.256ZM124.576 157.443C125.178 157.443 125.681 157.273 126.085 156.932C126.488 156.585 126.792 156.114 126.996 155.517C127.207 154.92 127.312 154.241 127.312 153.48C127.312 152.719 127.207 152.04 126.996 151.443C126.792 150.847 126.488 150.375 126.085 150.028C125.681 149.682 125.178 149.509 124.576 149.509C123.968 149.509 123.457 149.682 123.042 150.028C122.633 150.375 122.323 150.847 122.113 151.443C121.908 152.04 121.806 152.719 121.806 153.48C121.806 154.241 121.908 154.92 122.113 155.517C122.323 156.114 122.633 156.585 123.042 156.932C123.457 157.273 123.968 157.443 124.576 157.443ZM140.326 146.909V149.636H132.442V146.909H140.326ZM134.232 143.773H137.863V155.977C137.863 156.312 137.914 156.574 138.016 156.761C138.119 156.943 138.261 157.071 138.442 157.145C138.63 157.219 138.846 157.256 139.09 157.256C139.261 157.256 139.431 157.241 139.602 157.213C139.772 157.179 139.903 157.153 139.994 157.136L140.565 159.838C140.383 159.895 140.127 159.96 139.798 160.034C139.468 160.114 139.067 160.162 138.596 160.179C137.721 160.213 136.954 160.097 136.295 159.83C135.641 159.562 135.133 159.148 134.769 158.585C134.406 158.023 134.227 157.312 134.232 156.455V143.773ZM151.876 142.545V160H148.246V142.545H151.876ZM160.751 160.256C159.404 160.256 158.245 159.983 157.273 159.438C156.308 158.886 155.563 158.108 155.04 157.102C154.518 156.091 154.256 154.895 154.256 153.514C154.256 152.168 154.518 150.986 155.04 149.969C155.563 148.952 156.299 148.159 157.248 147.591C158.202 147.023 159.322 146.739 160.606 146.739C161.469 146.739 162.273 146.878 163.018 147.156C163.768 147.429 164.421 147.841 164.978 148.392C165.54 148.943 165.978 149.636 166.29 150.472C166.603 151.301 166.759 152.273 166.759 153.386V154.384H155.705V152.134H163.342C163.342 151.611 163.228 151.148 163.001 150.744C162.773 150.341 162.458 150.026 162.055 149.798C161.657 149.565 161.194 149.449 160.665 149.449C160.114 149.449 159.626 149.577 159.2 149.832C158.779 150.082 158.45 150.42 158.211 150.847C157.972 151.267 157.85 151.736 157.844 152.253V154.392C157.844 155.04 157.964 155.599 158.202 156.071C158.447 156.543 158.79 156.906 159.234 157.162C159.677 157.418 160.202 157.545 160.81 157.545C161.214 157.545 161.583 157.489 161.918 157.375C162.254 157.261 162.54 157.091 162.779 156.864C163.018 156.636 163.2 156.358 163.325 156.028L166.683 156.25C166.512 157.057 166.163 157.761 165.634 158.364C165.112 158.96 164.435 159.426 163.606 159.761C162.782 160.091 161.83 160.256 160.751 160.256ZM180.021 150.642L176.697 150.847C176.64 150.562 176.518 150.307 176.33 150.08C176.143 149.847 175.896 149.662 175.589 149.526C175.288 149.384 174.927 149.312 174.506 149.312C173.944 149.312 173.469 149.432 173.083 149.67C172.697 149.903 172.504 150.216 172.504 150.608C172.504 150.92 172.629 151.185 172.879 151.401C173.129 151.616 173.558 151.79 174.165 151.92L176.535 152.398C177.808 152.659 178.756 153.08 179.381 153.659C180.006 154.239 180.319 155 180.319 155.943C180.319 156.801 180.066 157.554 179.56 158.202C179.06 158.849 178.373 159.355 177.498 159.719C176.629 160.077 175.626 160.256 174.489 160.256C172.756 160.256 171.376 159.895 170.347 159.173C169.325 158.446 168.725 157.457 168.549 156.207L172.12 156.02C172.228 156.548 172.489 156.952 172.904 157.23C173.319 157.503 173.85 157.639 174.498 157.639C175.134 157.639 175.646 157.517 176.032 157.273C176.424 157.023 176.623 156.702 176.629 156.31C176.623 155.98 176.484 155.71 176.211 155.5C175.938 155.284 175.518 155.119 174.95 155.006L172.683 154.554C171.404 154.298 170.452 153.855 169.827 153.224C169.208 152.594 168.898 151.79 168.898 150.812C168.898 149.972 169.126 149.247 169.58 148.639C170.04 148.031 170.685 147.562 171.515 147.233C172.35 146.903 173.327 146.739 174.447 146.739C176.1 146.739 177.401 147.088 178.35 147.787C179.305 148.486 179.862 149.437 180.021 150.642ZM193.497 150.642L190.173 150.847C190.116 150.562 189.994 150.307 189.807 150.08C189.619 149.847 189.372 149.662 189.065 149.526C188.764 149.384 188.403 149.312 187.983 149.312C187.42 149.312 186.946 149.432 186.56 149.67C186.173 149.903 185.98 150.216 185.98 150.608C185.98 150.92 186.105 151.185 186.355 151.401C186.605 151.616 187.034 151.79 187.642 151.92L190.011 152.398C191.284 152.659 192.233 153.08 192.858 153.659C193.483 154.239 193.795 155 193.795 155.943C193.795 156.801 193.543 157.554 193.037 158.202C192.537 158.849 191.849 159.355 190.974 159.719C190.105 160.077 189.102 160.256 187.966 160.256C186.233 160.256 184.852 159.895 183.824 159.173C182.801 158.446 182.202 157.457 182.026 156.207L185.597 156.02C185.705 156.548 185.966 156.952 186.381 157.23C186.795 157.503 187.327 157.639 187.974 157.639C188.611 157.639 189.122 157.517 189.509 157.273C189.901 157.023 190.099 156.702 190.105 156.31C190.099 155.98 189.96 155.71 189.688 155.5C189.415 155.284 188.994 155.119 188.426 155.006L186.159 154.554C184.881 154.298 183.929 153.855 183.304 153.224C182.685 152.594 182.375 151.79 182.375 150.812C182.375 149.972 182.602 149.247 183.057 148.639C183.517 148.031 184.162 147.562 184.991 147.233C185.827 146.903 186.804 146.739 187.923 146.739C189.577 146.739 190.878 147.088 191.827 147.787C192.781 148.486 193.338 149.437 193.497 150.642ZM199.124 142.545V144.386C199.124 144.909 199.022 145.443 198.817 145.989C198.619 146.528 198.352 147.04 198.016 147.523C197.681 148 197.315 148.406 196.917 148.741L195.315 147.795C195.599 147.347 195.849 146.849 196.065 146.304C196.286 145.759 196.397 145.125 196.397 144.403V142.545H199.124ZM203.411 142.545V144.386C203.411 144.909 203.309 145.443 203.104 145.989C202.906 146.528 202.638 147.04 202.303 147.523C201.968 148 201.599 148.406 201.195 148.741L199.593 147.795C199.883 147.347 200.136 146.849 200.352 146.304C200.573 145.759 200.684 145.125 200.684 144.403V142.545H203.411ZM72.2411 173.42V171.545H85.332V173.42H79.8434V189H77.7298V173.42H72.2411ZM91.9116 189.273C90.6502 189.273 89.5621 188.994 88.6474 188.438C87.7383 187.875 87.0366 187.091 86.5423 186.085C86.0536 185.074 85.8093 183.898 85.8093 182.557C85.8093 181.216 86.0536 180.034 86.5423 179.011C87.0366 177.983 87.7241 177.182 88.6048 176.608C89.4911 176.028 90.5252 175.739 91.707 175.739C92.3888 175.739 93.0621 175.852 93.7269 176.08C94.3917 176.307 94.9968 176.676 95.5423 177.188C96.0877 177.693 96.5224 178.364 96.8462 179.199C97.1701 180.034 97.332 181.062 97.332 182.284V183.136H87.2411V181.398H95.2866C95.2866 180.659 95.1388 180 94.8434 179.42C94.5536 178.841 94.1388 178.384 93.5991 178.048C93.065 177.713 92.4343 177.545 91.707 177.545C90.9059 177.545 90.2127 177.744 89.6275 178.142C89.0479 178.534 88.6019 179.045 88.2894 179.676C87.9769 180.307 87.8207 180.983 87.8207 181.705V182.864C87.8207 183.852 87.9911 184.69 88.332 185.378C88.6786 186.06 89.1587 186.58 89.7724 186.938C90.386 187.29 91.0991 187.466 91.9116 187.466C92.44 187.466 92.9173 187.392 93.3434 187.244C93.7752 187.091 94.1474 186.864 94.4599 186.562C94.7724 186.256 95.0138 185.875 95.1843 185.42L97.1275 185.966C96.9229 186.625 96.5792 187.205 96.0962 187.705C95.6133 188.199 95.0167 188.585 94.3065 188.864C93.5962 189.136 92.7979 189.273 91.9116 189.273ZM100.392 189V175.909H102.335V177.955H102.505C102.778 177.256 103.218 176.713 103.826 176.327C104.434 175.935 105.164 175.739 106.017 175.739C106.88 175.739 107.599 175.935 108.173 176.327C108.752 176.713 109.204 177.256 109.528 177.955H109.664C110 177.278 110.502 176.741 111.173 176.344C111.843 175.94 112.647 175.739 113.585 175.739C114.755 175.739 115.713 176.105 116.457 176.838C117.201 177.565 117.574 178.699 117.574 180.239V189H115.562V180.239C115.562 179.273 115.298 178.582 114.77 178.168C114.241 177.753 113.619 177.545 112.903 177.545C111.983 177.545 111.27 177.824 110.764 178.381C110.258 178.932 110.005 179.631 110.005 180.477V189H107.96V180.034C107.96 179.29 107.718 178.69 107.235 178.236C106.752 177.776 106.13 177.545 105.369 177.545C104.846 177.545 104.358 177.685 103.903 177.963C103.454 178.241 103.091 178.628 102.812 179.122C102.539 179.611 102.403 180.176 102.403 180.818V189H100.392ZM121.251 193.909V175.909H123.194V177.989H123.433C123.581 177.761 123.785 177.472 124.047 177.119C124.314 176.761 124.694 176.443 125.189 176.165C125.689 175.881 126.365 175.739 127.217 175.739C128.319 175.739 129.291 176.014 130.132 176.565C130.973 177.116 131.629 177.898 132.1 178.909C132.572 179.92 132.808 181.114 132.808 182.489C132.808 183.875 132.572 185.077 132.1 186.094C131.629 187.105 130.975 187.889 130.14 188.446C129.305 188.997 128.342 189.273 127.251 189.273C126.41 189.273 125.737 189.134 125.231 188.855C124.725 188.571 124.336 188.25 124.064 187.892C123.791 187.528 123.581 187.227 123.433 186.989H123.262V193.909H121.251ZM123.228 182.455C123.228 183.443 123.373 184.315 123.663 185.071C123.953 185.821 124.376 186.409 124.933 186.835C125.49 187.256 126.172 187.466 126.978 187.466C127.819 187.466 128.521 187.244 129.083 186.801C129.652 186.352 130.078 185.75 130.362 184.994C130.652 184.233 130.797 183.386 130.797 182.455C130.797 181.534 130.654 180.705 130.37 179.966C130.092 179.222 129.669 178.634 129.1 178.202C128.538 177.764 127.831 177.545 126.978 177.545C126.16 177.545 125.473 177.753 124.916 178.168C124.359 178.577 123.939 179.151 123.654 179.889C123.37 180.622 123.228 181.477 123.228 182.455ZM137.887 171.545V189H135.876V171.545H137.887ZM147.06 189.273C145.799 189.273 144.711 188.994 143.796 188.438C142.887 187.875 142.185 187.091 141.691 186.085C141.202 185.074 140.958 183.898 140.958 182.557C140.958 181.216 141.202 180.034 141.691 179.011C142.185 177.983 142.873 177.182 143.753 176.608C144.64 176.028 145.674 175.739 146.855 175.739C147.537 175.739 148.211 175.852 148.875 176.08C149.54 176.307 150.145 176.676 150.691 177.188C151.236 177.693 151.671 178.364 151.995 179.199C152.319 180.034 152.48 181.062 152.48 182.284V183.136H142.39V181.398H150.435C150.435 180.659 150.287 180 149.992 179.42C149.702 178.841 149.287 178.384 148.748 178.048C148.213 177.713 147.583 177.545 146.855 177.545C146.054 177.545 145.361 177.744 144.776 178.142C144.196 178.534 143.75 179.045 143.438 179.676C143.125 180.307 142.969 180.983 142.969 181.705V182.864C142.969 183.852 143.14 184.69 143.48 185.378C143.827 186.06 144.307 186.58 144.921 186.938C145.534 187.29 146.248 187.466 147.06 187.466C147.588 187.466 148.066 187.392 148.492 187.244C148.924 187.091 149.296 186.864 149.608 186.562C149.921 186.256 150.162 185.875 150.333 185.42L152.276 185.966C152.071 186.625 151.728 187.205 151.245 187.705C150.762 188.199 150.165 188.585 149.455 188.864C148.745 189.136 147.946 189.273 147.06 189.273ZM174.495 177C174.307 176.426 174.06 175.912 173.753 175.457C173.452 174.997 173.091 174.605 172.671 174.281C172.256 173.957 171.784 173.71 171.256 173.54C170.728 173.369 170.148 173.284 169.517 173.284C168.483 173.284 167.543 173.551 166.696 174.085C165.85 174.619 165.176 175.406 164.676 176.446C164.176 177.486 163.926 178.761 163.926 180.273C163.926 181.784 164.179 183.06 164.685 184.099C165.191 185.139 165.875 185.926 166.739 186.46C167.603 186.994 168.574 187.261 169.654 187.261C170.654 187.261 171.534 187.048 172.296 186.622C173.063 186.19 173.659 185.582 174.086 184.798C174.517 184.009 174.733 183.08 174.733 182.011L175.381 182.148H170.131V180.273H176.779V182.148C176.779 183.585 176.472 184.835 175.858 185.898C175.25 186.96 174.409 187.784 173.336 188.369C172.267 188.949 171.04 189.239 169.654 189.239C168.108 189.239 166.75 188.875 165.58 188.148C164.415 187.42 163.506 186.386 162.853 185.045C162.205 183.705 161.881 182.114 161.881 180.273C161.881 178.892 162.066 177.651 162.435 176.548C162.81 175.44 163.338 174.497 164.02 173.719C164.702 172.94 165.509 172.344 166.441 171.929C167.373 171.514 168.398 171.307 169.517 171.307C170.438 171.307 171.296 171.446 172.091 171.724C172.892 171.997 173.605 172.386 174.23 172.892C174.861 173.392 175.387 173.991 175.807 174.69C176.228 175.384 176.517 176.153 176.676 177H174.495ZM180.126 189V175.909H182.069V177.886H182.206C182.444 177.239 182.876 176.713 183.501 176.31C184.126 175.906 184.831 175.705 185.615 175.705C185.762 175.705 185.947 175.707 186.169 175.713C186.39 175.719 186.558 175.727 186.672 175.739V177.784C186.603 177.767 186.447 177.741 186.203 177.707C185.964 177.668 185.711 177.648 185.444 177.648C184.808 177.648 184.24 177.781 183.74 178.048C183.245 178.31 182.853 178.673 182.564 179.139C182.279 179.599 182.137 180.125 182.137 180.716V189H180.126ZM192.908 189.307C192.078 189.307 191.326 189.151 190.65 188.838C189.973 188.52 189.436 188.062 189.039 187.466C188.641 186.864 188.442 186.136 188.442 185.284C188.442 184.534 188.59 183.926 188.885 183.46C189.181 182.989 189.576 182.619 190.07 182.352C190.564 182.085 191.11 181.886 191.706 181.756C192.309 181.619 192.914 181.511 193.522 181.432C194.317 181.33 194.962 181.253 195.456 181.202C195.956 181.145 196.32 181.051 196.547 180.92C196.78 180.79 196.897 180.562 196.897 180.239V180.17C196.897 179.33 196.667 178.676 196.206 178.21C195.752 177.744 195.061 177.511 194.135 177.511C193.175 177.511 192.422 177.722 191.877 178.142C191.331 178.562 190.948 179.011 190.726 179.489L188.817 178.807C189.158 178.011 189.613 177.392 190.181 176.949C190.755 176.5 191.38 176.187 192.056 176.011C192.738 175.83 193.408 175.739 194.067 175.739C194.488 175.739 194.971 175.79 195.516 175.892C196.067 175.989 196.598 176.19 197.11 176.497C197.627 176.804 198.056 177.267 198.397 177.886C198.738 178.506 198.908 179.335 198.908 180.375V189H196.897V187.227H196.794C196.658 187.511 196.431 187.815 196.113 188.139C195.794 188.463 195.371 188.739 194.843 188.966C194.314 189.193 193.669 189.307 192.908 189.307ZM193.215 187.5C194.01 187.5 194.681 187.344 195.226 187.031C195.777 186.719 196.192 186.315 196.471 185.821C196.755 185.327 196.897 184.807 196.897 184.261V182.42C196.811 182.523 196.624 182.616 196.334 182.702C196.05 182.781 195.721 182.852 195.346 182.915C194.976 182.972 194.615 183.023 194.263 183.068C193.917 183.108 193.635 183.142 193.419 183.17C192.897 183.239 192.408 183.349 191.953 183.503C191.505 183.651 191.141 183.875 190.863 184.176C190.59 184.472 190.453 184.875 190.453 185.386C190.453 186.085 190.712 186.614 191.229 186.972C191.752 187.324 192.414 187.5 193.215 187.5ZM204.591 181.125V189H202.579V175.909H204.522V177.955H204.693C205 177.29 205.466 176.756 206.091 176.352C206.716 175.943 207.522 175.739 208.511 175.739C209.397 175.739 210.173 175.92 210.838 176.284C211.502 176.642 212.02 177.188 212.389 177.92C212.758 178.648 212.943 179.568 212.943 180.682V189H210.931V180.818C210.931 179.79 210.664 178.989 210.13 178.415C209.596 177.835 208.863 177.545 207.931 177.545C207.289 177.545 206.716 177.685 206.21 177.963C205.71 178.241 205.315 178.648 205.025 179.182C204.735 179.716 204.591 180.364 204.591 181.125ZM221.561 189.273C220.471 189.273 219.507 188.997 218.672 188.446C217.837 187.889 217.184 187.105 216.712 186.094C216.24 185.077 216.005 183.875 216.005 182.489C216.005 181.114 216.24 179.92 216.712 178.909C217.184 177.898 217.84 177.116 218.681 176.565C219.522 176.014 220.493 175.739 221.596 175.739C222.448 175.739 223.121 175.881 223.615 176.165C224.115 176.443 224.496 176.761 224.757 177.119C225.025 177.472 225.232 177.761 225.38 177.989H225.55V171.545H227.561V189H225.618V186.989H225.38C225.232 187.227 225.022 187.528 224.749 187.892C224.476 188.25 224.087 188.571 223.581 188.855C223.076 189.134 222.402 189.273 221.561 189.273ZM221.834 187.466C222.641 187.466 223.323 187.256 223.88 186.835C224.436 186.409 224.86 185.821 225.15 185.071C225.439 184.315 225.584 183.443 225.584 182.455C225.584 181.477 225.442 180.622 225.158 179.889C224.874 179.151 224.453 178.577 223.897 178.168C223.34 177.753 222.652 177.545 221.834 177.545C220.982 177.545 220.272 177.764 219.703 178.202C219.141 178.634 218.718 179.222 218.434 179.966C218.155 180.705 218.016 181.534 218.016 182.455C218.016 183.386 218.158 184.233 218.442 184.994C218.732 185.75 219.158 186.352 219.721 186.801C220.289 187.244 220.993 187.466 221.834 187.466ZM231.525 189V175.909H233.536V189H231.525ZM232.547 173.727C232.155 173.727 231.817 173.594 231.533 173.327C231.255 173.06 231.115 172.739 231.115 172.364C231.115 171.989 231.255 171.668 231.533 171.401C231.817 171.134 232.155 171 232.547 171C232.939 171 233.275 171.134 233.553 171.401C233.837 171.668 233.979 171.989 233.979 172.364C233.979 172.739 233.837 173.06 233.553 173.327C233.275 173.594 232.939 173.727 232.547 173.727ZM239.231 181.125V189H237.22V175.909H239.163V177.955H239.333C239.64 177.29 240.106 176.756 240.731 176.352C241.356 175.943 242.163 175.739 243.152 175.739C244.038 175.739 244.814 175.92 245.478 176.284C246.143 176.642 246.66 177.188 247.029 177.92C247.399 178.648 247.583 179.568 247.583 180.682V189H245.572V180.818C245.572 179.79 245.305 178.989 244.771 178.415C244.237 177.835 243.504 177.545 242.572 177.545C241.93 177.545 241.356 177.685 240.85 177.963C240.35 178.241 239.956 178.648 239.666 179.182C239.376 179.716 239.231 180.364 239.231 181.125Z" fill="#554D3F"/>
</svg>
