<svg width="467" height="467" viewBox="0 0 467 467" fill="none" xmlns="http://www.w3.org/2000/svg">
<g opacity="0.5">
<rect width="467" height="467" rx="233.5" fill="#B6C7AA"/>
</g>
<path d="M64.0866 193V191.159C64.0866 190.636 64.1889 190.102 64.3935 189.557C64.598 189.011 64.8679 188.497 65.2031 188.014C65.5384 187.531 65.902 187.128 66.294 186.804L67.8963 187.75C67.5781 188.25 67.3168 188.773 67.1122 189.318C66.9134 189.864 66.8139 190.472 66.8139 191.142V193H64.0866ZM68.3906 193V191.159C68.3906 190.636 68.4929 190.102 68.6974 189.557C68.902 189.011 69.1719 188.497 69.5071 188.014C69.8423 187.531 70.206 187.128 70.598 186.804L72.2003 187.75C71.8821 188.25 71.6207 188.773 71.4162 189.318C71.2173 189.864 71.1179 190.472 71.1179 191.142V193H68.3906ZM74.4077 187.545H78.9588L83.7656 199.273H83.9702L88.777 187.545H93.3281V205H89.7486V193.639H89.6037L85.0866 204.915H82.6491L78.1321 193.597H77.9872V205H74.4077V187.545ZM98.5419 209.909C98.0817 209.909 97.6499 209.872 97.2464 209.798C96.8487 209.73 96.5192 209.642 96.2578 209.534L97.076 206.824C97.5021 206.955 97.8857 207.026 98.2266 207.037C98.5732 207.048 98.8714 206.969 99.1214 206.798C99.3771 206.628 99.5845 206.338 99.7436 205.929L99.9567 205.375L95.2607 191.909H99.0788L101.789 201.523H101.925L104.661 191.909H108.505L103.417 206.415C103.173 207.119 102.84 207.733 102.42 208.256C102.005 208.784 101.479 209.19 100.843 209.474C100.207 209.764 99.4396 209.909 98.5419 209.909ZM120.741 205.213C119.747 205.213 118.847 204.957 118.04 204.446C117.239 203.929 116.602 203.17 116.131 202.17C115.665 201.165 115.432 199.932 115.432 198.472C115.432 196.972 115.673 195.724 116.156 194.73C116.639 193.73 117.281 192.983 118.082 192.489C118.889 191.989 119.773 191.739 120.733 191.739C121.466 191.739 122.077 191.864 122.565 192.114C123.06 192.358 123.457 192.665 123.759 193.034C124.065 193.398 124.298 193.756 124.457 194.108H124.568V187.545H128.19V205H124.611V202.903H124.457C124.287 203.267 124.045 203.628 123.733 203.986C123.426 204.338 123.026 204.631 122.531 204.864C122.043 205.097 121.446 205.213 120.741 205.213ZM121.892 202.324C122.477 202.324 122.972 202.165 123.375 201.847C123.784 201.523 124.097 201.071 124.312 200.491C124.534 199.912 124.645 199.233 124.645 198.455C124.645 197.676 124.537 197 124.321 196.426C124.105 195.852 123.793 195.409 123.384 195.097C122.974 194.784 122.477 194.628 121.892 194.628C121.295 194.628 120.793 194.79 120.384 195.114C119.974 195.437 119.665 195.886 119.455 196.46C119.244 197.034 119.139 197.699 119.139 198.455C119.139 199.216 119.244 199.889 119.455 200.474C119.67 201.054 119.98 201.509 120.384 201.838C120.793 202.162 121.295 202.324 121.892 202.324ZM131.175 205V191.909H134.806V205H131.175ZM132.999 190.222C132.46 190.222 131.996 190.043 131.61 189.685C131.229 189.321 131.039 188.886 131.039 188.381C131.039 187.881 131.229 187.452 131.61 187.094C131.996 186.73 132.46 186.548 132.999 186.548C133.539 186.548 133.999 186.73 134.38 187.094C134.766 187.452 134.96 187.881 134.96 188.381C134.96 188.886 134.766 189.321 134.38 189.685C133.999 190.043 133.539 190.222 132.999 190.222ZM148.607 195.642L145.283 195.847C145.226 195.562 145.104 195.307 144.916 195.08C144.729 194.847 144.482 194.662 144.175 194.526C143.874 194.384 143.513 194.312 143.092 194.312C142.53 194.312 142.055 194.432 141.669 194.67C141.283 194.903 141.089 195.216 141.089 195.608C141.089 195.92 141.214 196.185 141.464 196.401C141.714 196.616 142.143 196.79 142.751 196.92L145.121 197.398C146.393 197.659 147.342 198.08 147.967 198.659C148.592 199.239 148.905 200 148.905 200.943C148.905 201.801 148.652 202.554 148.146 203.202C147.646 203.849 146.959 204.355 146.084 204.719C145.214 205.077 144.212 205.256 143.075 205.256C141.342 205.256 139.962 204.895 138.933 204.173C137.911 203.446 137.311 202.457 137.135 201.207L140.706 201.02C140.814 201.548 141.075 201.952 141.49 202.23C141.905 202.503 142.436 202.639 143.084 202.639C143.72 202.639 144.232 202.517 144.618 202.273C145.01 202.023 145.209 201.702 145.214 201.31C145.209 200.98 145.07 200.71 144.797 200.5C144.524 200.284 144.104 200.119 143.536 200.006L141.268 199.554C139.99 199.298 139.038 198.855 138.413 198.224C137.794 197.594 137.484 196.79 137.484 195.812C137.484 194.972 137.712 194.247 138.166 193.639C138.626 193.031 139.271 192.562 140.101 192.233C140.936 191.903 141.913 191.739 143.033 191.739C144.686 191.739 145.987 192.088 146.936 192.787C147.891 193.486 148.447 194.437 148.607 195.642ZM154.924 205.247C154.089 205.247 153.344 205.102 152.691 204.812C152.038 204.517 151.521 204.082 151.14 203.509C150.765 202.929 150.577 202.207 150.577 201.344C150.577 200.616 150.711 200.006 150.978 199.511C151.245 199.017 151.609 198.619 152.069 198.318C152.529 198.017 153.052 197.79 153.637 197.636C154.228 197.483 154.847 197.375 155.495 197.312C156.256 197.233 156.87 197.159 157.336 197.091C157.802 197.017 158.14 196.909 158.35 196.767C158.56 196.625 158.665 196.415 158.665 196.136V196.085C158.665 195.545 158.495 195.128 158.154 194.832C157.819 194.537 157.342 194.389 156.722 194.389C156.069 194.389 155.549 194.534 155.163 194.824C154.776 195.108 154.521 195.466 154.396 195.898L151.038 195.625C151.208 194.83 151.543 194.142 152.043 193.562C152.543 192.977 153.188 192.528 153.978 192.216C154.773 191.898 155.694 191.739 156.739 191.739C157.467 191.739 158.163 191.824 158.827 191.994C159.498 192.165 160.092 192.429 160.609 192.787C161.131 193.145 161.543 193.605 161.844 194.168C162.146 194.724 162.296 195.392 162.296 196.17V205H158.853V203.185H158.751C158.54 203.594 158.259 203.955 157.907 204.267C157.555 204.574 157.131 204.815 156.637 204.991C156.143 205.162 155.572 205.247 154.924 205.247ZM155.964 202.741C156.498 202.741 156.969 202.636 157.379 202.426C157.788 202.21 158.109 201.92 158.342 201.557C158.575 201.193 158.691 200.781 158.691 200.321V198.932C158.577 199.006 158.421 199.074 158.222 199.136C158.029 199.193 157.81 199.247 157.566 199.298C157.322 199.344 157.077 199.386 156.833 199.426C156.589 199.46 156.367 199.491 156.168 199.52C155.742 199.582 155.37 199.682 155.052 199.818C154.734 199.955 154.487 200.139 154.31 200.372C154.134 200.599 154.046 200.884 154.046 201.224C154.046 201.719 154.225 202.097 154.583 202.358C154.947 202.614 155.407 202.741 155.964 202.741ZM165.181 205V187.545H168.812V194.108H168.923C169.082 193.756 169.312 193.398 169.613 193.034C169.92 192.665 170.317 192.358 170.806 192.114C171.3 191.864 171.914 191.739 172.647 191.739C173.602 191.739 174.482 191.989 175.289 192.489C176.096 192.983 176.741 193.73 177.224 194.73C177.707 195.724 177.948 196.972 177.948 198.472C177.948 199.932 177.712 201.165 177.241 202.17C176.775 203.17 176.138 203.929 175.332 204.446C174.531 204.957 173.633 205.213 172.638 205.213C171.934 205.213 171.335 205.097 170.84 204.864C170.352 204.631 169.951 204.338 169.638 203.986C169.326 203.628 169.087 203.267 168.923 202.903H168.761V205H165.181ZM168.735 198.455C168.735 199.233 168.843 199.912 169.059 200.491C169.275 201.071 169.587 201.523 169.996 201.847C170.406 202.165 170.903 202.324 171.488 202.324C172.079 202.324 172.579 202.162 172.988 201.838C173.397 201.509 173.707 201.054 173.917 200.474C174.133 199.889 174.241 199.216 174.241 198.455C174.241 197.699 174.136 197.034 173.925 196.46C173.715 195.886 173.406 195.437 172.996 195.114C172.587 194.79 172.085 194.628 171.488 194.628C170.897 194.628 170.397 194.784 169.988 195.097C169.585 195.409 169.275 195.852 169.059 196.426C168.843 197 168.735 197.676 168.735 198.455ZM180.371 205V191.909H184.001V205H180.371ZM182.195 190.222C181.655 190.222 181.192 190.043 180.805 189.685C180.425 189.321 180.234 188.886 180.234 188.381C180.234 187.881 180.425 187.452 180.805 187.094C181.192 186.73 181.655 186.548 182.195 186.548C182.734 186.548 183.195 186.73 183.575 187.094C183.962 187.452 184.155 187.881 184.155 188.381C184.155 188.886 183.962 189.321 183.575 189.685C183.195 190.043 182.734 190.222 182.195 190.222ZM190.54 187.545V205H186.91V187.545H190.54ZM193.449 205V191.909H197.08V205H193.449ZM195.273 190.222C194.733 190.222 194.27 190.043 193.884 189.685C193.503 189.321 193.312 188.886 193.312 188.381C193.312 187.881 193.503 187.452 193.884 187.094C194.27 186.73 194.733 186.548 195.273 186.548C195.813 186.548 196.273 186.73 196.653 187.094C197.04 187.452 197.233 187.881 197.233 188.381C197.233 188.886 197.04 189.321 196.653 189.685C196.273 190.043 195.813 190.222 195.273 190.222ZM206.951 191.909V194.636H199.067V191.909H206.951ZM200.857 188.773H204.488V200.977C204.488 201.312 204.539 201.574 204.641 201.761C204.744 201.943 204.886 202.071 205.067 202.145C205.255 202.219 205.471 202.256 205.715 202.256C205.886 202.256 206.056 202.241 206.227 202.213C206.397 202.179 206.528 202.153 206.619 202.136L207.19 204.838C207.008 204.895 206.752 204.96 206.423 205.034C206.093 205.114 205.692 205.162 205.221 205.179C204.346 205.213 203.579 205.097 202.92 204.83C202.266 204.562 201.758 204.148 201.394 203.585C201.031 203.023 200.852 202.312 200.857 201.455V188.773ZM211.558 209.909C211.097 209.909 210.665 209.872 210.262 209.798C209.864 209.73 209.535 209.642 209.273 209.534L210.092 206.824C210.518 206.955 210.901 207.026 211.242 207.037C211.589 207.048 211.887 206.969 212.137 206.798C212.393 206.628 212.6 206.338 212.759 205.929L212.972 205.375L208.276 191.909H212.094L214.805 201.523H214.941L217.677 191.909H221.521L216.433 206.415C216.188 207.119 215.856 207.733 215.435 208.256C215.021 208.784 214.495 209.19 213.859 209.474C213.222 209.764 212.455 209.909 211.558 209.909ZM232.564 197.432V205H228.933V187.545H232.462V194.219H232.615C232.911 193.446 233.388 192.841 234.047 192.403C234.706 191.96 235.533 191.739 236.527 191.739C237.436 191.739 238.229 191.938 238.905 192.335C239.587 192.727 240.115 193.293 240.49 194.031C240.871 194.764 241.058 195.642 241.053 196.665V205H237.422V197.312C237.428 196.506 237.223 195.878 236.808 195.429C236.399 194.98 235.825 194.756 235.087 194.756C234.592 194.756 234.155 194.861 233.774 195.071C233.399 195.281 233.104 195.588 232.888 195.991C232.678 196.389 232.57 196.869 232.564 197.432ZM247.643 205.247C246.808 205.247 246.063 205.102 245.41 204.812C244.756 204.517 244.239 204.082 243.859 203.509C243.484 202.929 243.296 202.207 243.296 201.344C243.296 200.616 243.43 200.006 243.697 199.511C243.964 199.017 244.327 198.619 244.788 198.318C245.248 198.017 245.771 197.79 246.356 197.636C246.947 197.483 247.566 197.375 248.214 197.312C248.975 197.233 249.589 197.159 250.055 197.091C250.521 197.017 250.859 196.909 251.069 196.767C251.279 196.625 251.384 196.415 251.384 196.136V196.085C251.384 195.545 251.214 195.128 250.873 194.832C250.538 194.537 250.06 194.389 249.441 194.389C248.788 194.389 248.268 194.534 247.881 194.824C247.495 195.108 247.239 195.466 247.114 195.898L243.756 195.625C243.927 194.83 244.262 194.142 244.762 193.562C245.262 192.977 245.907 192.528 246.697 192.216C247.492 191.898 248.413 191.739 249.458 191.739C250.185 191.739 250.881 191.824 251.546 191.994C252.217 192.165 252.81 192.429 253.327 192.787C253.85 193.145 254.262 193.605 254.563 194.168C254.864 194.724 255.015 195.392 255.015 196.17V205H251.572V203.185H251.469C251.259 203.594 250.978 203.955 250.626 204.267C250.273 204.574 249.85 204.815 249.356 204.991C248.862 205.162 248.29 205.247 247.643 205.247ZM248.683 202.741C249.217 202.741 249.688 202.636 250.097 202.426C250.506 202.21 250.827 201.92 251.06 201.557C251.293 201.193 251.41 200.781 251.41 200.321V198.932C251.296 199.006 251.14 199.074 250.941 199.136C250.748 199.193 250.529 199.247 250.285 199.298C250.04 199.344 249.796 199.386 249.552 199.426C249.308 199.46 249.086 199.491 248.887 199.52C248.461 199.582 248.089 199.682 247.771 199.818C247.452 199.955 247.205 200.139 247.029 200.372C246.853 200.599 246.765 200.884 246.765 201.224C246.765 201.719 246.944 202.097 247.302 202.358C247.665 202.614 248.126 202.741 248.683 202.741ZM268.724 195.642L265.4 195.847C265.343 195.562 265.221 195.307 265.033 195.08C264.846 194.847 264.599 194.662 264.292 194.526C263.991 194.384 263.63 194.312 263.21 194.312C262.647 194.312 262.173 194.432 261.786 194.67C261.4 194.903 261.207 195.216 261.207 195.608C261.207 195.92 261.332 196.185 261.582 196.401C261.832 196.616 262.261 196.79 262.869 196.92L265.238 197.398C266.511 197.659 267.46 198.08 268.085 198.659C268.71 199.239 269.022 200 269.022 200.943C269.022 201.801 268.769 202.554 268.263 203.202C267.763 203.849 267.076 204.355 266.201 204.719C265.332 205.077 264.329 205.256 263.192 205.256C261.46 205.256 260.079 204.895 259.05 204.173C258.028 203.446 257.428 202.457 257.252 201.207L260.823 201.02C260.931 201.548 261.192 201.952 261.607 202.23C262.022 202.503 262.553 202.639 263.201 202.639C263.837 202.639 264.349 202.517 264.735 202.273C265.127 202.023 265.326 201.702 265.332 201.31C265.326 200.98 265.187 200.71 264.914 200.5C264.641 200.284 264.221 200.119 263.653 200.006L261.386 199.554C260.107 199.298 259.156 198.855 258.531 198.224C257.911 197.594 257.602 196.79 257.602 195.812C257.602 194.972 257.829 194.247 258.283 193.639C258.744 193.031 259.388 192.562 260.218 192.233C261.053 191.903 262.031 191.739 263.15 191.739C264.803 191.739 266.104 192.088 267.053 192.787C268.008 193.486 268.565 194.437 268.724 195.642ZM282.778 205.256C281.454 205.256 280.309 204.974 279.343 204.412C278.383 203.844 277.641 203.054 277.119 202.043C276.596 201.026 276.335 199.847 276.335 198.506C276.335 197.153 276.596 195.972 277.119 194.96C277.641 193.943 278.383 193.153 279.343 192.591C280.309 192.023 281.454 191.739 282.778 191.739C284.102 191.739 285.244 192.023 286.204 192.591C287.17 193.153 287.914 193.943 288.437 194.96C288.96 195.972 289.221 197.153 289.221 198.506C289.221 199.847 288.96 201.026 288.437 202.043C287.914 203.054 287.17 203.844 286.204 204.412C285.244 204.974 284.102 205.256 282.778 205.256ZM282.795 202.443C283.397 202.443 283.9 202.273 284.303 201.932C284.707 201.585 285.011 201.114 285.215 200.517C285.425 199.92 285.531 199.241 285.531 198.48C285.531 197.719 285.425 197.04 285.215 196.443C285.011 195.847 284.707 195.375 284.303 195.028C283.9 194.682 283.397 194.509 282.795 194.509C282.187 194.509 281.675 194.682 281.261 195.028C280.852 195.375 280.542 195.847 280.332 196.443C280.127 197.04 280.025 197.719 280.025 198.48C280.025 199.241 280.127 199.92 280.332 200.517C280.542 201.114 280.852 201.585 281.261 201.932C281.675 202.273 282.187 202.443 282.795 202.443ZM291.582 209.909V191.909H295.161V194.108H295.323C295.482 193.756 295.712 193.398 296.013 193.034C296.32 192.665 296.718 192.358 297.207 192.114C297.701 191.864 298.315 191.739 299.048 191.739C300.002 191.739 300.883 191.989 301.69 192.489C302.496 192.983 303.141 193.73 303.624 194.73C304.107 195.724 304.349 196.972 304.349 198.472C304.349 199.932 304.113 201.165 303.641 202.17C303.175 203.17 302.539 203.929 301.732 204.446C300.931 204.957 300.033 205.213 299.039 205.213C298.335 205.213 297.735 205.097 297.241 204.864C296.752 204.631 296.352 204.338 296.039 203.986C295.727 203.628 295.488 203.267 295.323 202.903H295.212V209.909H291.582ZM295.136 198.455C295.136 199.233 295.244 199.912 295.46 200.491C295.675 201.071 295.988 201.523 296.397 201.847C296.806 202.165 297.303 202.324 297.888 202.324C298.479 202.324 298.979 202.162 299.388 201.838C299.798 201.509 300.107 201.054 300.317 200.474C300.533 199.889 300.641 199.216 300.641 198.455C300.641 197.699 300.536 197.034 300.326 196.46C300.116 195.886 299.806 195.437 299.397 195.114C298.988 194.79 298.485 194.628 297.888 194.628C297.298 194.628 296.798 194.784 296.388 195.097C295.985 195.409 295.675 195.852 295.46 196.426C295.244 197 295.136 197.676 295.136 198.455ZM312.735 205.256C311.388 205.256 310.229 204.983 309.258 204.438C308.292 203.886 307.548 203.108 307.025 202.102C306.502 201.091 306.241 199.895 306.241 198.514C306.241 197.168 306.502 195.986 307.025 194.969C307.548 193.952 308.283 193.159 309.232 192.591C310.187 192.023 311.306 191.739 312.59 191.739C313.454 191.739 314.258 191.878 315.002 192.156C315.752 192.429 316.406 192.841 316.962 193.392C317.525 193.943 317.962 194.636 318.275 195.472C318.587 196.301 318.744 197.273 318.744 198.386V199.384H307.69V197.134H315.326C315.326 196.611 315.212 196.148 314.985 195.744C314.758 195.341 314.442 195.026 314.039 194.798C313.641 194.565 313.178 194.449 312.65 194.449C312.099 194.449 311.61 194.577 311.184 194.832C310.763 195.082 310.434 195.42 310.195 195.847C309.957 196.267 309.835 196.736 309.829 197.253V199.392C309.829 200.04 309.948 200.599 310.187 201.071C310.431 201.543 310.775 201.906 311.218 202.162C311.661 202.418 312.187 202.545 312.795 202.545C313.198 202.545 313.567 202.489 313.903 202.375C314.238 202.261 314.525 202.091 314.763 201.864C315.002 201.636 315.184 201.358 315.309 201.028L318.667 201.25C318.496 202.057 318.147 202.761 317.619 203.364C317.096 203.96 316.42 204.426 315.59 204.761C314.766 205.091 313.815 205.256 312.735 205.256ZM324.744 197.432V205H321.113V191.909H324.573V194.219H324.727C325.016 193.457 325.502 192.855 326.184 192.412C326.866 191.963 327.692 191.739 328.664 191.739C329.573 191.739 330.366 191.938 331.042 192.335C331.718 192.733 332.244 193.301 332.619 194.04C332.994 194.773 333.181 195.648 333.181 196.665V205H329.55V197.312C329.556 196.511 329.352 195.886 328.937 195.438C328.522 194.983 327.951 194.756 327.224 194.756C326.735 194.756 326.303 194.861 325.928 195.071C325.559 195.281 325.269 195.588 325.059 195.991C324.854 196.389 324.749 196.869 324.744 197.432ZM342.009 205.256C340.662 205.256 339.503 204.983 338.531 204.438C337.565 203.886 336.821 203.108 336.298 202.102C335.776 201.091 335.514 199.895 335.514 198.514C335.514 197.168 335.776 195.986 336.298 194.969C336.821 193.952 337.557 193.159 338.506 192.591C339.46 192.023 340.58 191.739 341.864 191.739C342.727 191.739 343.531 191.878 344.276 192.156C345.026 192.429 345.679 192.841 346.236 193.392C346.798 193.943 347.236 194.636 347.548 195.472C347.861 196.301 348.017 197.273 348.017 198.386V199.384H336.963V197.134H344.599C344.599 196.611 344.486 196.148 344.259 195.744C344.031 195.341 343.716 195.026 343.312 194.798C342.915 194.565 342.452 194.449 341.923 194.449C341.372 194.449 340.884 194.577 340.457 194.832C340.037 195.082 339.707 195.42 339.469 195.847C339.23 196.267 339.108 196.736 339.102 197.253V199.392C339.102 200.04 339.222 200.599 339.46 201.071C339.705 201.543 340.048 201.906 340.491 202.162C340.935 202.418 341.46 202.545 342.068 202.545C342.472 202.545 342.841 202.489 343.176 202.375C343.511 202.261 343.798 202.091 344.037 201.864C344.276 201.636 344.457 201.358 344.582 201.028L347.94 201.25C347.77 202.057 347.42 202.761 346.892 203.364C346.369 203.96 345.693 204.426 344.864 204.761C344.04 205.091 343.088 205.256 342.009 205.256ZM355.21 205.213C354.216 205.213 353.315 204.957 352.509 204.446C351.707 203.929 351.071 203.17 350.599 202.17C350.134 201.165 349.901 199.932 349.901 198.472C349.901 196.972 350.142 195.724 350.625 194.73C351.108 193.73 351.75 192.983 352.551 192.489C353.358 191.989 354.241 191.739 355.202 191.739C355.935 191.739 356.545 191.864 357.034 192.114C357.528 192.358 357.926 192.665 358.227 193.034C358.534 193.398 358.767 193.756 358.926 194.108H359.037V187.545H362.659V205H359.08V202.903H358.926C358.756 203.267 358.514 203.628 358.202 203.986C357.895 204.338 357.494 204.631 357 204.864C356.511 205.097 355.915 205.213 355.21 205.213ZM356.361 202.324C356.946 202.324 357.44 202.165 357.844 201.847C358.253 201.523 358.565 201.071 358.781 200.491C359.003 199.912 359.114 199.233 359.114 198.455C359.114 197.676 359.006 197 358.79 196.426C358.574 195.852 358.261 195.409 357.852 195.097C357.443 194.784 356.946 194.628 356.361 194.628C355.764 194.628 355.261 194.79 354.852 195.114C354.443 195.437 354.134 195.886 353.923 196.46C353.713 197.034 353.608 197.699 353.608 198.455C353.608 199.216 353.713 199.889 353.923 200.474C354.139 201.054 354.449 201.509 354.852 201.838C355.261 202.162 355.764 202.324 356.361 202.324ZM371.199 205V191.909H374.659V194.219H374.812C375.085 193.452 375.54 192.847 376.176 192.403C376.812 191.96 377.574 191.739 378.46 191.739C379.358 191.739 380.122 191.963 380.753 192.412C381.384 192.855 381.804 193.457 382.014 194.219H382.151C382.418 193.469 382.901 192.869 383.599 192.42C384.304 191.966 385.136 191.739 386.097 191.739C387.318 191.739 388.31 192.128 389.071 192.906C389.838 193.679 390.222 194.776 390.222 196.196V205H386.599V196.912C386.599 196.185 386.406 195.639 386.02 195.276C385.634 194.912 385.151 194.73 384.571 194.73C383.912 194.73 383.398 194.94 383.028 195.361C382.659 195.776 382.474 196.324 382.474 197.006V205H378.955V196.835C378.955 196.193 378.77 195.682 378.401 195.301C378.037 194.92 377.557 194.73 376.96 194.73C376.557 194.73 376.193 194.832 375.869 195.037C375.551 195.236 375.298 195.517 375.111 195.881C374.923 196.239 374.83 196.659 374.83 197.142V205H371.199ZM394.862 209.909C394.402 209.909 393.97 209.872 393.567 209.798C393.169 209.73 392.839 209.642 392.578 209.534L393.396 206.824C393.822 206.955 394.206 207.026 394.547 207.037C394.893 207.048 395.192 206.969 395.442 206.798C395.697 206.628 395.905 206.338 396.064 205.929L396.277 205.375L391.581 191.909H395.399L398.109 201.523H398.246L400.982 191.909H404.825L399.737 206.415C399.493 207.119 399.161 207.733 398.74 208.256C398.325 208.784 397.8 209.19 397.163 209.474C396.527 209.764 395.76 209.909 394.862 209.909ZM198.958 234.256C197.611 234.256 196.452 233.983 195.48 233.438C194.515 232.886 193.77 232.108 193.248 231.102C192.725 230.091 192.463 228.895 192.463 227.514C192.463 226.168 192.725 224.986 193.248 223.969C193.77 222.952 194.506 222.159 195.455 221.591C196.409 221.023 197.529 220.739 198.813 220.739C199.676 220.739 200.48 220.878 201.225 221.156C201.975 221.429 202.628 221.841 203.185 222.392C203.748 222.943 204.185 223.636 204.498 224.472C204.81 225.301 204.966 226.273 204.966 227.386V228.384H193.912V226.134H201.549C201.549 225.611 201.435 225.148 201.208 224.744C200.98 224.341 200.665 224.026 200.262 223.798C199.864 223.565 199.401 223.449 198.873 223.449C198.321 223.449 197.833 223.577 197.407 223.832C196.986 224.082 196.657 224.42 196.418 224.847C196.179 225.267 196.057 225.736 196.051 226.253V228.392C196.051 229.04 196.171 229.599 196.409 230.071C196.654 230.543 196.998 230.906 197.441 231.162C197.884 231.418 198.409 231.545 199.017 231.545C199.421 231.545 199.79 231.489 200.125 231.375C200.461 231.261 200.748 231.091 200.986 230.864C201.225 230.636 201.407 230.358 201.532 230.028L204.89 230.25C204.719 231.057 204.37 231.761 203.841 232.364C203.319 232.96 202.642 233.426 201.813 233.761C200.989 234.091 200.037 234.256 198.958 234.256ZM209.225 238.909C208.765 238.909 208.333 238.872 207.93 238.798C207.532 238.73 207.203 238.642 206.941 238.534L207.76 235.824C208.186 235.955 208.569 236.026 208.91 236.037C209.257 236.048 209.555 235.969 209.805 235.798C210.061 235.628 210.268 235.338 210.427 234.929L210.64 234.375L205.944 220.909H209.762L212.473 230.523H212.609L215.345 220.909H219.189L214.1 235.415C213.856 236.119 213.524 236.733 213.103 237.256C212.689 237.784 212.163 238.19 211.527 238.474C210.89 238.764 210.123 238.909 209.225 238.909ZM226.591 234.256C225.244 234.256 224.085 233.983 223.113 233.438C222.147 232.886 221.403 232.108 220.88 231.102C220.358 230.091 220.096 228.895 220.096 227.514C220.096 226.168 220.358 224.986 220.88 223.969C221.403 222.952 222.139 222.159 223.088 221.591C224.042 221.023 225.162 220.739 226.446 220.739C227.309 220.739 228.113 220.878 228.858 221.156C229.608 221.429 230.261 221.841 230.818 222.392C231.38 222.943 231.818 223.636 232.13 224.472C232.443 225.301 232.599 226.273 232.599 227.386V228.384H221.545V226.134H229.181C229.181 225.611 229.068 225.148 228.841 224.744C228.613 224.341 228.298 224.026 227.895 223.798C227.497 223.565 227.034 223.449 226.505 223.449C225.954 223.449 225.466 223.577 225.039 223.832C224.619 224.082 224.289 224.42 224.051 224.847C223.812 225.267 223.69 225.736 223.684 226.253V228.392C223.684 229.04 223.804 229.599 224.042 230.071C224.287 230.543 224.63 230.906 225.074 231.162C225.517 231.418 226.042 231.545 226.65 231.545C227.054 231.545 227.423 231.489 227.758 231.375C228.093 231.261 228.38 231.091 228.619 230.864C228.858 230.636 229.039 230.358 229.164 230.028L232.522 230.25C232.352 231.057 232.002 231.761 231.474 232.364C230.951 232.96 230.275 233.426 229.446 233.761C228.622 234.091 227.67 234.256 226.591 234.256ZM245.86 224.642L242.537 224.847C242.48 224.562 242.358 224.307 242.17 224.08C241.983 223.847 241.735 223.662 241.429 223.526C241.127 223.384 240.767 223.312 240.346 223.312C239.784 223.312 239.309 223.432 238.923 223.67C238.537 223.903 238.343 224.216 238.343 224.608C238.343 224.92 238.468 225.185 238.718 225.401C238.968 225.616 239.397 225.79 240.005 225.92L242.375 226.398C243.647 226.659 244.596 227.08 245.221 227.659C245.846 228.239 246.159 229 246.159 229.943C246.159 230.801 245.906 231.554 245.4 232.202C244.9 232.849 244.213 233.355 243.338 233.719C242.468 234.077 241.466 234.256 240.329 234.256C238.596 234.256 237.216 233.895 236.187 233.173C235.164 232.446 234.565 231.457 234.389 230.207L237.96 230.02C238.068 230.548 238.329 230.952 238.744 231.23C239.159 231.503 239.69 231.639 240.338 231.639C240.974 231.639 241.485 231.517 241.872 231.273C242.264 231.023 242.463 230.702 242.468 230.31C242.463 229.98 242.324 229.71 242.051 229.5C241.778 229.284 241.358 229.119 240.789 229.006L238.522 228.554C237.244 228.298 236.292 227.855 235.667 227.224C235.048 226.594 234.738 225.79 234.738 224.812C234.738 223.972 234.966 223.247 235.42 222.639C235.88 222.031 236.525 221.562 237.355 221.233C238.19 220.903 239.167 220.739 240.287 220.739C241.94 220.739 243.241 221.088 244.19 221.787C245.145 222.486 245.701 223.437 245.86 224.642ZM260.963 220.909V223.636H253.079V220.909H260.963ZM254.869 217.773H258.5V229.977C258.5 230.312 258.551 230.574 258.653 230.761C258.755 230.943 258.897 231.071 259.079 231.145C259.267 231.219 259.483 231.256 259.727 231.256C259.897 231.256 260.068 231.241 260.238 231.213C260.409 231.179 260.539 231.153 260.63 231.136L261.201 233.838C261.02 233.895 260.764 233.96 260.434 234.034C260.105 234.114 259.704 234.162 259.233 234.179C258.358 234.213 257.591 234.097 256.931 233.83C256.278 233.562 255.77 233.148 255.406 232.585C255.042 232.023 254.863 231.312 254.869 230.455V217.773ZM269.102 234.256C267.778 234.256 266.633 233.974 265.667 233.412C264.707 232.844 263.966 232.054 263.443 231.043C262.92 230.026 262.659 228.847 262.659 227.506C262.659 226.153 262.92 224.972 263.443 223.96C263.966 222.943 264.707 222.153 265.667 221.591C266.633 221.023 267.778 220.739 269.102 220.739C270.426 220.739 271.568 221.023 272.528 221.591C273.494 222.153 274.238 222.943 274.761 223.96C275.284 224.972 275.545 226.153 275.545 227.506C275.545 228.847 275.284 230.026 274.761 231.043C274.238 232.054 273.494 232.844 272.528 233.412C271.568 233.974 270.426 234.256 269.102 234.256ZM269.119 231.443C269.721 231.443 270.224 231.273 270.627 230.932C271.031 230.585 271.335 230.114 271.539 229.517C271.75 228.92 271.855 228.241 271.855 227.48C271.855 226.719 271.75 226.04 271.539 225.443C271.335 224.847 271.031 224.375 270.627 224.028C270.224 223.682 269.721 223.509 269.119 223.509C268.511 223.509 268 223.682 267.585 224.028C267.176 224.375 266.866 224.847 266.656 225.443C266.451 226.04 266.349 226.719 266.349 227.48C266.349 228.241 266.451 228.92 266.656 229.517C266.866 230.114 267.176 230.585 267.585 230.932C268 231.273 268.511 231.443 269.119 231.443ZM124.079 253.642L120.755 253.847C120.699 253.562 120.576 253.307 120.389 253.08C120.201 252.847 119.954 252.662 119.647 252.526C119.346 252.384 118.985 252.312 118.565 252.312C118.002 252.312 117.528 252.432 117.142 252.67C116.755 252.903 116.562 253.216 116.562 253.608C116.562 253.92 116.687 254.185 116.937 254.401C117.187 254.616 117.616 254.79 118.224 254.92L120.593 255.398C121.866 255.659 122.815 256.08 123.44 256.659C124.065 257.239 124.377 258 124.377 258.943C124.377 259.801 124.125 260.554 123.619 261.202C123.119 261.849 122.431 262.355 121.556 262.719C120.687 263.077 119.684 263.256 118.548 263.256C116.815 263.256 115.434 262.895 114.406 262.173C113.383 261.446 112.784 260.457 112.608 259.207L116.179 259.02C116.287 259.548 116.548 259.952 116.963 260.23C117.377 260.503 117.909 260.639 118.556 260.639C119.193 260.639 119.704 260.517 120.091 260.273C120.483 260.023 120.681 259.702 120.687 259.31C120.681 258.98 120.542 258.71 120.27 258.5C119.997 258.284 119.576 258.119 119.008 258.006L116.741 257.554C115.463 257.298 114.511 256.855 113.886 256.224C113.267 255.594 112.957 254.79 112.957 253.812C112.957 252.972 113.184 252.247 113.639 251.639C114.099 251.031 114.744 250.562 115.574 250.233C116.409 249.903 117.386 249.739 118.505 249.739C120.159 249.739 121.46 250.088 122.409 250.787C123.363 251.486 123.92 252.437 124.079 253.642ZM132.63 263.256C131.283 263.256 130.124 262.983 129.152 262.438C128.186 261.886 127.442 261.108 126.919 260.102C126.397 259.091 126.135 257.895 126.135 256.514C126.135 255.168 126.397 253.986 126.919 252.969C127.442 251.952 128.178 251.159 129.127 250.591C130.081 250.023 131.201 249.739 132.485 249.739C133.348 249.739 134.152 249.878 134.897 250.156C135.647 250.429 136.3 250.841 136.857 251.392C137.419 251.943 137.857 252.636 138.169 253.472C138.482 254.301 138.638 255.273 138.638 256.386V257.384H127.584V255.134H135.221C135.221 254.611 135.107 254.148 134.88 253.744C134.652 253.341 134.337 253.026 133.934 252.798C133.536 252.565 133.073 252.449 132.544 252.449C131.993 252.449 131.505 252.577 131.078 252.832C130.658 253.082 130.328 253.42 130.09 253.847C129.851 254.267 129.729 254.736 129.723 255.253V257.392C129.723 258.04 129.843 258.599 130.081 259.071C130.326 259.543 130.669 259.906 131.113 260.162C131.556 260.418 132.081 260.545 132.689 260.545C133.093 260.545 133.462 260.489 133.797 260.375C134.132 260.261 134.419 260.091 134.658 259.864C134.897 259.636 135.078 259.358 135.203 259.028L138.561 259.25C138.391 260.057 138.042 260.761 137.513 261.364C136.99 261.96 136.314 262.426 135.485 262.761C134.661 263.091 133.709 263.256 132.63 263.256ZM146.973 263.256C145.627 263.256 144.468 262.983 143.496 262.438C142.53 261.886 141.786 261.108 141.263 260.102C140.74 259.091 140.479 257.895 140.479 256.514C140.479 255.168 140.74 253.986 141.263 252.969C141.786 251.952 142.522 251.159 143.471 250.591C144.425 250.023 145.544 249.739 146.828 249.739C147.692 249.739 148.496 249.878 149.24 250.156C149.99 250.429 150.644 250.841 151.201 251.392C151.763 251.943 152.201 252.636 152.513 253.472C152.826 254.301 152.982 255.273 152.982 256.386V257.384H141.928V255.134H149.564C149.564 254.611 149.451 254.148 149.223 253.744C148.996 253.341 148.681 253.026 148.277 252.798C147.88 252.565 147.417 252.449 146.888 252.449C146.337 252.449 145.848 252.577 145.422 252.832C145.002 253.082 144.672 253.42 144.434 253.847C144.195 254.267 144.073 254.736 144.067 255.253V257.392C144.067 258.04 144.186 258.599 144.425 259.071C144.669 259.543 145.013 259.906 145.456 260.162C145.9 260.418 146.425 260.545 147.033 260.545C147.436 260.545 147.806 260.489 148.141 260.375C148.476 260.261 148.763 260.091 149.002 259.864C149.24 259.636 149.422 259.358 149.547 259.028L152.905 259.25C152.735 260.057 152.385 260.761 151.857 261.364C151.334 261.96 150.658 262.426 149.828 262.761C149.005 263.091 148.053 263.256 146.973 263.256ZM160.906 263V249.909H164.366V252.219H164.52C164.792 251.452 165.247 250.847 165.883 250.403C166.52 249.96 167.281 249.739 168.167 249.739C169.065 249.739 169.829 249.963 170.46 250.412C171.091 250.855 171.511 251.457 171.721 252.219H171.858C172.125 251.469 172.608 250.869 173.306 250.42C174.011 249.966 174.843 249.739 175.804 249.739C177.025 249.739 178.017 250.128 178.778 250.906C179.545 251.679 179.929 252.776 179.929 254.196V263H176.306V254.912C176.306 254.185 176.113 253.639 175.727 253.276C175.341 252.912 174.858 252.73 174.278 252.73C173.619 252.73 173.105 252.94 172.735 253.361C172.366 253.776 172.181 254.324 172.181 255.006V263H168.662V254.835C168.662 254.193 168.477 253.682 168.108 253.301C167.744 252.92 167.264 252.73 166.667 252.73C166.264 252.73 165.9 252.832 165.576 253.037C165.258 253.236 165.005 253.517 164.818 253.881C164.63 254.239 164.537 254.659 164.537 255.142V263H160.906ZM184.569 267.909C184.109 267.909 183.677 267.872 183.274 267.798C182.876 267.73 182.547 267.642 182.285 267.534L183.103 264.824C183.529 264.955 183.913 265.026 184.254 265.037C184.6 265.048 184.899 264.969 185.149 264.798C185.404 264.628 185.612 264.338 185.771 263.929L185.984 263.375L181.288 249.909H185.106L187.816 259.523H187.953L190.689 249.909H194.532L189.444 264.415C189.2 265.119 188.868 265.733 188.447 266.256C188.032 266.784 187.507 267.19 186.87 267.474C186.234 267.764 185.467 267.909 184.569 267.909ZM208.908 249.909V252.636H201.025V249.909H208.908ZM202.814 246.773H206.445V258.977C206.445 259.312 206.496 259.574 206.598 259.761C206.701 259.943 206.843 260.071 207.025 260.145C207.212 260.219 207.428 260.256 207.672 260.256C207.843 260.256 208.013 260.241 208.184 260.213C208.354 260.179 208.485 260.153 208.576 260.136L209.147 262.838C208.965 262.895 208.709 262.96 208.38 263.034C208.05 263.114 207.65 263.162 207.178 263.179C206.303 263.213 205.536 263.097 204.877 262.83C204.223 262.562 203.715 262.148 203.351 261.585C202.988 261.023 202.809 260.312 202.814 259.455V246.773ZM211.273 263V249.909H214.793V252.193H214.929C215.168 251.381 215.569 250.767 216.131 250.352C216.694 249.932 217.341 249.722 218.074 249.722C218.256 249.722 218.452 249.733 218.662 249.756C218.873 249.778 219.057 249.81 219.216 249.849V253.071C219.046 253.02 218.81 252.974 218.509 252.935C218.208 252.895 217.932 252.875 217.682 252.875C217.148 252.875 216.671 252.991 216.25 253.224C215.836 253.452 215.506 253.77 215.262 254.179C215.023 254.588 214.904 255.06 214.904 255.594V263H211.273ZM229.488 257.426V249.909H233.119V263H229.633V260.622H229.497C229.201 261.389 228.71 262.006 228.022 262.472C227.341 262.937 226.508 263.17 225.525 263.17C224.65 263.17 223.88 262.972 223.216 262.574C222.551 262.176 222.031 261.611 221.656 260.878C221.287 260.145 221.099 259.267 221.093 258.244V249.909H224.724V257.597C224.73 258.369 224.937 258.98 225.346 259.429C225.755 259.878 226.304 260.102 226.991 260.102C227.429 260.102 227.838 260.003 228.218 259.804C228.599 259.599 228.906 259.298 229.139 258.901C229.377 258.503 229.494 258.011 229.488 257.426ZM241.989 263.256C240.642 263.256 239.483 262.983 238.512 262.438C237.546 261.886 236.801 261.108 236.279 260.102C235.756 259.091 235.495 257.895 235.495 256.514C235.495 255.168 235.756 253.986 236.279 252.969C236.801 251.952 237.537 251.159 238.486 250.591C239.441 250.023 240.56 249.739 241.844 249.739C242.708 249.739 243.512 249.878 244.256 250.156C245.006 250.429 245.659 250.841 246.216 251.392C246.779 251.943 247.216 252.636 247.529 253.472C247.841 254.301 247.998 255.273 247.998 256.386V257.384H236.944V255.134H244.58C244.58 254.611 244.466 254.148 244.239 253.744C244.012 253.341 243.696 253.026 243.293 252.798C242.895 252.565 242.432 252.449 241.904 252.449C241.353 252.449 240.864 252.577 240.438 252.832C240.017 253.082 239.688 253.42 239.449 253.847C239.211 254.267 239.088 254.736 239.083 255.253V257.392C239.083 258.04 239.202 258.599 239.441 259.071C239.685 259.543 240.029 259.906 240.472 260.162C240.915 260.418 241.441 260.545 242.049 260.545C242.452 260.545 242.821 260.489 243.157 260.375C243.492 260.261 243.779 260.091 244.017 259.864C244.256 259.636 244.438 259.358 244.563 259.028L247.921 259.25C247.75 260.057 247.401 260.761 246.873 261.364C246.35 261.96 245.674 262.426 244.844 262.761C244.02 263.091 243.069 263.256 241.989 263.256ZM259.654 263.247C258.819 263.247 258.075 263.102 257.422 262.812C256.768 262.517 256.251 262.082 255.87 261.509C255.495 260.929 255.308 260.207 255.308 259.344C255.308 258.616 255.441 258.006 255.708 257.511C255.975 257.017 256.339 256.619 256.799 256.318C257.26 256.017 257.782 255.79 258.368 255.636C258.958 255.483 259.578 255.375 260.225 255.312C260.987 255.233 261.6 255.159 262.066 255.091C262.532 255.017 262.87 254.909 263.081 254.767C263.291 254.625 263.396 254.415 263.396 254.136V254.085C263.396 253.545 263.225 253.128 262.885 252.832C262.549 252.537 262.072 252.389 261.453 252.389C260.799 252.389 260.279 252.534 259.893 252.824C259.507 253.108 259.251 253.466 259.126 253.898L255.768 253.625C255.939 252.83 256.274 252.142 256.774 251.562C257.274 250.977 257.919 250.528 258.708 250.216C259.504 249.898 260.424 249.739 261.47 249.739C262.197 249.739 262.893 249.824 263.558 249.994C264.228 250.165 264.822 250.429 265.339 250.787C265.862 251.145 266.274 251.605 266.575 252.168C266.876 252.724 267.027 253.392 267.027 254.17V263H263.583V261.185H263.481C263.271 261.594 262.99 261.955 262.637 262.267C262.285 262.574 261.862 262.815 261.368 262.991C260.873 263.162 260.302 263.247 259.654 263.247ZM260.694 260.741C261.228 260.741 261.7 260.636 262.109 260.426C262.518 260.21 262.839 259.92 263.072 259.557C263.305 259.193 263.422 258.781 263.422 258.321V256.932C263.308 257.006 263.152 257.074 262.953 257.136C262.76 257.193 262.541 257.247 262.297 257.298C262.052 257.344 261.808 257.386 261.564 257.426C261.319 257.46 261.098 257.491 260.899 257.52C260.473 257.582 260.1 257.682 259.782 257.818C259.464 257.955 259.217 258.139 259.041 258.372C258.865 258.599 258.777 258.884 258.777 259.224C258.777 259.719 258.956 260.097 259.314 260.358C259.677 260.614 260.137 260.741 260.694 260.741ZM269.912 263V245.545H273.542V252.108H273.653C273.812 251.756 274.042 251.398 274.343 251.034C274.65 250.665 275.048 250.358 275.537 250.114C276.031 249.864 276.645 249.739 277.377 249.739C278.332 249.739 279.213 249.989 280.02 250.489C280.826 250.983 281.471 251.73 281.954 252.73C282.437 253.724 282.679 254.972 282.679 256.472C282.679 257.932 282.443 259.165 281.971 260.17C281.505 261.17 280.869 261.929 280.062 262.446C279.261 262.957 278.363 263.213 277.369 263.213C276.664 263.213 276.065 263.097 275.571 262.864C275.082 262.631 274.681 262.338 274.369 261.986C274.056 261.628 273.818 261.267 273.653 260.903H273.491V263H269.912ZM273.466 256.455C273.466 257.233 273.574 257.912 273.789 258.491C274.005 259.071 274.318 259.523 274.727 259.847C275.136 260.165 275.633 260.324 276.218 260.324C276.809 260.324 277.309 260.162 277.718 259.838C278.127 259.509 278.437 259.054 278.647 258.474C278.863 257.889 278.971 257.216 278.971 256.455C278.971 255.699 278.866 255.034 278.656 254.46C278.446 253.886 278.136 253.437 277.727 253.114C277.318 252.79 276.815 252.628 276.218 252.628C275.627 252.628 275.127 252.784 274.718 253.097C274.315 253.409 274.005 253.852 273.789 254.426C273.574 255 273.466 255.676 273.466 256.455ZM285.101 263V249.909H288.732V263H285.101ZM286.925 248.222C286.385 248.222 285.922 248.043 285.536 247.685C285.155 247.321 284.965 246.886 284.965 246.381C284.965 245.881 285.155 245.452 285.536 245.094C285.922 244.73 286.385 244.548 286.925 244.548C287.465 244.548 287.925 244.73 288.306 245.094C288.692 245.452 288.885 245.881 288.885 246.381C288.885 246.886 288.692 247.321 288.306 247.685C287.925 248.043 287.465 248.222 286.925 248.222ZM295.271 245.545V263H291.64V245.545H295.271ZM298.179 263V249.909H301.81V263H298.179ZM300.003 248.222C299.463 248.222 299 248.043 298.614 247.685C298.233 247.321 298.043 246.886 298.043 246.381C298.043 245.881 298.233 245.452 298.614 245.094C299 244.73 299.463 244.548 300.003 244.548C300.543 244.548 301.003 244.73 301.384 245.094C301.77 245.452 301.963 245.881 301.963 246.381C301.963 246.886 301.77 247.321 301.384 247.685C301.003 248.043 300.543 248.222 300.003 248.222ZM311.681 249.909V252.636H303.798V249.909H311.681ZM305.588 246.773H309.218V258.977C309.218 259.312 309.27 259.574 309.372 259.761C309.474 259.943 309.616 260.071 309.798 260.145C309.985 260.219 310.201 260.256 310.446 260.256C310.616 260.256 310.787 260.241 310.957 260.213C311.127 260.179 311.258 260.153 311.349 260.136L311.92 262.838C311.738 262.895 311.483 262.96 311.153 263.034C310.824 263.114 310.423 263.162 309.951 263.179C309.076 263.213 308.309 263.097 307.65 262.83C306.997 262.562 306.488 262.148 306.125 261.585C305.761 261.023 305.582 260.312 305.588 259.455V246.773ZM314.047 263V249.909H317.677V263H314.047ZM315.87 248.222C315.331 248.222 314.868 248.043 314.481 247.685C314.1 247.321 313.91 246.886 313.91 246.381C313.91 245.881 314.1 245.452 314.481 245.094C314.868 244.73 315.331 244.548 315.87 244.548C316.41 244.548 316.87 244.73 317.251 245.094C317.637 245.452 317.831 245.881 317.831 246.381C317.831 246.886 317.637 247.321 317.251 247.685C316.87 248.043 316.41 248.222 315.87 248.222ZM326.551 263.256C325.205 263.256 324.046 262.983 323.074 262.438C322.108 261.886 321.364 261.108 320.841 260.102C320.319 259.091 320.057 257.895 320.057 256.514C320.057 255.168 320.319 253.986 320.841 252.969C321.364 251.952 322.1 251.159 323.049 250.591C324.003 250.023 325.123 249.739 326.407 249.739C327.27 249.739 328.074 249.878 328.819 250.156C329.569 250.429 330.222 250.841 330.779 251.392C331.341 251.943 331.779 252.636 332.091 253.472C332.404 254.301 332.56 255.273 332.56 256.386V257.384H321.506V255.134H329.142C329.142 254.611 329.029 254.148 328.801 253.744C328.574 253.341 328.259 253.026 327.855 252.798C327.458 252.565 326.995 252.449 326.466 252.449C325.915 252.449 325.426 252.577 325 252.832C324.58 253.082 324.25 253.42 324.012 253.847C323.773 254.267 323.651 254.736 323.645 255.253V257.392C323.645 258.04 323.765 258.599 324.003 259.071C324.248 259.543 324.591 259.906 325.034 260.162C325.478 260.418 326.003 260.545 326.611 260.545C327.015 260.545 327.384 260.489 327.719 260.375C328.054 260.261 328.341 260.091 328.58 259.864C328.819 259.636 329 259.358 329.125 259.028L332.483 259.25C332.313 260.057 331.963 260.761 331.435 261.364C330.912 261.96 330.236 262.426 329.407 262.761C328.583 263.091 327.631 263.256 326.551 263.256ZM345.821 253.642L342.498 253.847C342.441 253.562 342.319 253.307 342.131 253.08C341.944 252.847 341.696 252.662 341.39 252.526C341.088 252.384 340.728 252.312 340.307 252.312C339.745 252.312 339.27 252.432 338.884 252.67C338.498 252.903 338.304 253.216 338.304 253.608C338.304 253.92 338.429 254.185 338.679 254.401C338.929 254.616 339.358 254.79 339.966 254.92L342.336 255.398C343.608 255.659 344.557 256.08 345.182 256.659C345.807 257.239 346.12 258 346.12 258.943C346.12 259.801 345.867 260.554 345.361 261.202C344.861 261.849 344.174 262.355 343.299 262.719C342.429 263.077 341.426 263.256 340.29 263.256C338.557 263.256 337.176 262.895 336.148 262.173C335.125 261.446 334.526 260.457 334.35 259.207L337.921 259.02C338.029 259.548 338.29 259.952 338.705 260.23C339.12 260.503 339.651 260.639 340.299 260.639C340.935 260.639 341.446 260.517 341.833 260.273C342.225 260.023 342.424 259.702 342.429 259.31C342.424 258.98 342.284 258.71 342.012 258.5C341.739 258.284 341.319 258.119 340.75 258.006L338.483 257.554C337.205 257.298 336.253 256.855 335.628 256.224C335.009 255.594 334.699 254.79 334.699 253.812C334.699 252.972 334.926 252.247 335.381 251.639C335.841 251.031 336.486 250.562 337.316 250.233C338.151 249.903 339.128 249.739 340.248 249.739C341.901 249.739 343.202 250.088 344.151 250.787C345.105 251.486 345.662 252.437 345.821 253.642ZM350.528 263.222C349.966 263.222 349.483 263.023 349.079 262.625C348.681 262.222 348.483 261.739 348.483 261.176C348.483 260.619 348.681 260.142 349.079 259.744C349.483 259.347 349.966 259.148 350.528 259.148C351.074 259.148 351.551 259.347 351.96 259.744C352.369 260.142 352.574 260.619 352.574 261.176C352.574 261.551 352.477 261.895 352.284 262.207C352.096 262.514 351.849 262.761 351.542 262.949C351.235 263.131 350.897 263.222 350.528 263.222ZM356.206 245.545V247.386C356.206 247.909 356.104 248.443 355.9 248.989C355.701 249.528 355.434 250.04 355.098 250.523C354.763 251 354.397 251.406 353.999 251.741L352.397 250.795C352.681 250.347 352.931 249.849 353.147 249.304C353.368 248.759 353.479 248.125 353.479 247.403V245.545H356.206ZM360.493 245.545V247.386C360.493 247.909 360.391 248.443 360.186 248.989C359.988 249.528 359.721 250.04 359.385 250.523C359.05 251 358.681 251.406 358.277 251.741L356.675 250.795C356.965 250.347 357.218 249.849 357.434 249.304C357.655 248.759 357.766 248.125 357.766 247.403V245.545H360.493ZM141.332 292V274.545H147.23C148.594 274.545 149.713 274.778 150.588 275.244C151.463 275.705 152.111 276.338 152.531 277.145C152.952 277.952 153.162 278.869 153.162 279.898C153.162 280.926 152.952 281.838 152.531 282.634C152.111 283.429 151.466 284.054 150.597 284.509C149.727 284.957 148.616 285.182 147.264 285.182H142.491V283.273H147.196C148.128 283.273 148.878 283.136 149.446 282.864C150.02 282.591 150.435 282.205 150.69 281.705C150.952 281.199 151.082 280.597 151.082 279.898C151.082 279.199 150.952 278.588 150.69 278.065C150.429 277.543 150.011 277.139 149.438 276.855C148.864 276.565 148.105 276.42 147.162 276.42H143.446V292H141.332ZM149.548 284.159L153.844 292H151.389L147.162 284.159H149.548ZM161.589 292.273C160.407 292.273 159.37 291.991 158.478 291.429C157.592 290.866 156.898 290.08 156.398 289.068C155.904 288.057 155.657 286.875 155.657 285.523C155.657 284.159 155.904 282.969 156.398 281.952C156.898 280.935 157.592 280.145 158.478 279.582C159.37 279.02 160.407 278.739 161.589 278.739C162.771 278.739 163.805 279.02 164.691 279.582C165.583 280.145 166.276 280.935 166.771 281.952C167.271 282.969 167.521 284.159 167.521 285.523C167.521 286.875 167.271 288.057 166.771 289.068C166.276 290.08 165.583 290.866 164.691 291.429C163.805 291.991 162.771 292.273 161.589 292.273ZM161.589 290.466C162.487 290.466 163.225 290.236 163.805 289.776C164.384 289.315 164.813 288.71 165.092 287.96C165.37 287.21 165.509 286.398 165.509 285.523C165.509 284.648 165.37 283.832 165.092 283.077C164.813 282.321 164.384 281.71 163.805 281.244C163.225 280.778 162.487 280.545 161.589 280.545C160.691 280.545 159.952 280.778 159.373 281.244C158.793 281.71 158.364 282.321 158.086 283.077C157.808 283.832 157.668 284.648 157.668 285.523C157.668 286.398 157.808 287.21 158.086 287.96C158.364 288.71 158.793 289.315 159.373 289.776C159.952 290.236 160.691 290.466 161.589 290.466ZM170.864 292V274.545H172.875V280.989H173.045C173.193 280.761 173.398 280.472 173.659 280.119C173.926 279.761 174.307 279.443 174.801 279.165C175.301 278.881 175.977 278.739 176.83 278.739C177.932 278.739 178.903 279.014 179.744 279.565C180.585 280.116 181.241 280.898 181.713 281.909C182.185 282.92 182.42 284.114 182.42 285.489C182.42 286.875 182.185 288.077 181.713 289.094C181.241 290.105 180.588 290.889 179.753 291.446C178.918 291.997 177.955 292.273 176.864 292.273C176.023 292.273 175.349 292.134 174.844 291.855C174.338 291.571 173.949 291.25 173.676 290.892C173.403 290.528 173.193 290.227 173.045 289.989H172.807V292H170.864ZM172.841 285.455C172.841 286.443 172.986 287.315 173.276 288.071C173.565 288.821 173.989 289.409 174.545 289.835C175.102 290.256 175.784 290.466 176.591 290.466C177.432 290.466 178.134 290.244 178.696 289.801C179.264 289.352 179.69 288.75 179.974 287.994C180.264 287.233 180.409 286.386 180.409 285.455C180.409 284.534 180.267 283.705 179.983 282.966C179.705 282.222 179.281 281.634 178.713 281.202C178.151 280.764 177.443 280.545 176.591 280.545C175.773 280.545 175.085 280.753 174.528 281.168C173.972 281.577 173.551 282.151 173.267 282.889C172.983 283.622 172.841 284.477 172.841 285.455ZM190.986 292.273C189.724 292.273 188.636 291.994 187.722 291.438C186.812 290.875 186.111 290.091 185.616 289.085C185.128 288.074 184.884 286.898 184.884 285.557C184.884 284.216 185.128 283.034 185.616 282.011C186.111 280.983 186.798 280.182 187.679 279.608C188.565 279.028 189.599 278.739 190.781 278.739C191.463 278.739 192.136 278.852 192.801 279.08C193.466 279.307 194.071 279.676 194.616 280.188C195.162 280.693 195.597 281.364 195.92 282.199C196.244 283.034 196.406 284.062 196.406 285.284V286.136H186.315V284.398H194.361C194.361 283.659 194.213 283 193.918 282.42C193.628 281.841 193.213 281.384 192.673 281.048C192.139 280.713 191.509 280.545 190.781 280.545C189.98 280.545 189.287 280.744 188.702 281.142C188.122 281.534 187.676 282.045 187.364 282.676C187.051 283.307 186.895 283.983 186.895 284.705V285.864C186.895 286.852 187.065 287.69 187.406 288.378C187.753 289.06 188.233 289.58 188.847 289.938C189.46 290.29 190.173 290.466 190.986 290.466C191.514 290.466 191.991 290.392 192.418 290.244C192.849 290.091 193.222 289.864 193.534 289.562C193.847 289.256 194.088 288.875 194.259 288.42L196.202 288.966C195.997 289.625 195.653 290.205 195.17 290.705C194.688 291.199 194.091 291.585 193.381 291.864C192.67 292.136 191.872 292.273 190.986 292.273ZM199.466 292V278.909H201.409V280.886H201.545C201.784 280.239 202.216 279.713 202.841 279.31C203.466 278.906 204.17 278.705 204.955 278.705C205.102 278.705 205.287 278.707 205.509 278.713C205.73 278.719 205.898 278.727 206.011 278.739V280.784C205.943 280.767 205.787 280.741 205.543 280.707C205.304 280.668 205.051 280.648 204.784 280.648C204.148 280.648 203.58 280.781 203.08 281.048C202.585 281.31 202.193 281.673 201.903 282.139C201.619 282.599 201.477 283.125 201.477 283.716V292H199.466ZM214.909 278.909V280.614H208.125V278.909H214.909ZM210.102 275.773H212.114V288.25C212.114 288.818 212.196 289.244 212.361 289.528C212.531 289.807 212.747 289.994 213.009 290.091C213.276 290.182 213.557 290.227 213.852 290.227C214.074 290.227 214.256 290.216 214.398 290.193C214.54 290.165 214.653 290.142 214.739 290.125L215.148 291.932C215.011 291.983 214.821 292.034 214.577 292.085C214.332 292.142 214.023 292.17 213.648 292.17C213.08 292.17 212.523 292.048 211.977 291.804C211.438 291.56 210.989 291.188 210.631 290.688C210.278 290.188 210.102 289.557 210.102 288.795V275.773ZM224.957 274.545H227.48L233.412 289.034H233.616L239.548 274.545H242.071V292H240.094V278.739H239.923L234.469 292H232.56L227.105 278.739H226.935V292H224.957V274.545ZM247.502 292.136C247.082 292.136 246.721 291.986 246.42 291.685C246.119 291.384 245.968 291.023 245.968 290.602C245.968 290.182 246.119 289.821 246.42 289.52C246.721 289.219 247.082 289.068 247.502 289.068C247.923 289.068 248.283 289.219 248.585 289.52C248.886 289.821 249.036 290.182 249.036 290.602C249.036 290.881 248.965 291.136 248.823 291.369C248.687 291.602 248.502 291.79 248.269 291.932C248.042 292.068 247.786 292.136 247.502 292.136ZM259.668 292V274.545H261.782V282.318H271.089V274.545H273.202V292H271.089V284.193H261.782V292H259.668ZM282.65 292.273C281.388 292.273 280.3 291.994 279.386 291.438C278.477 290.875 277.775 290.091 277.281 289.085C276.792 288.074 276.548 286.898 276.548 285.557C276.548 284.216 276.792 283.034 277.281 282.011C277.775 280.983 278.462 280.182 279.343 279.608C280.229 279.028 281.263 278.739 282.445 278.739C283.127 278.739 283.8 278.852 284.465 279.08C285.13 279.307 285.735 279.676 286.281 280.188C286.826 280.693 287.261 281.364 287.585 282.199C287.908 283.034 288.07 284.062 288.07 285.284V286.136H277.979V284.398H286.025C286.025 283.659 285.877 283 285.582 282.42C285.292 281.841 284.877 281.384 284.337 281.048C283.803 280.713 283.173 280.545 282.445 280.545C281.644 280.545 280.951 280.744 280.366 281.142C279.786 281.534 279.34 282.045 279.028 282.676C278.715 283.307 278.559 283.983 278.559 284.705V285.864C278.559 286.852 278.729 287.69 279.07 288.378C279.417 289.06 279.897 289.58 280.511 289.938C281.124 290.29 281.837 290.466 282.65 290.466C283.178 290.466 283.656 290.392 284.082 290.244C284.513 290.091 284.886 289.864 285.198 289.562C285.511 289.256 285.752 288.875 285.923 288.42L287.866 288.966C287.661 289.625 287.317 290.205 286.835 290.705C286.352 291.199 285.755 291.585 285.045 291.864C284.335 292.136 283.536 292.273 282.65 292.273ZM293.141 284.125V292H291.13V278.909H293.073V280.955H293.244C293.55 280.29 294.016 279.756 294.641 279.352C295.266 278.943 296.073 278.739 297.062 278.739C297.948 278.739 298.724 278.92 299.388 279.284C300.053 279.642 300.57 280.188 300.94 280.92C301.309 281.648 301.494 282.568 301.494 283.682V292H299.482V283.818C299.482 282.79 299.215 281.989 298.681 281.415C298.147 280.835 297.414 280.545 296.482 280.545C295.84 280.545 295.266 280.685 294.761 280.963C294.261 281.241 293.866 281.648 293.576 282.182C293.286 282.716 293.141 283.364 293.141 284.125ZM314.442 281.841L312.635 282.352C312.521 282.051 312.354 281.759 312.132 281.474C311.916 281.185 311.621 280.946 311.246 280.759C310.871 280.571 310.391 280.477 309.805 280.477C309.004 280.477 308.337 280.662 307.803 281.031C307.274 281.395 307.01 281.858 307.01 282.42C307.01 282.92 307.192 283.315 307.555 283.605C307.919 283.895 308.487 284.136 309.26 284.33L311.203 284.807C312.374 285.091 313.246 285.526 313.82 286.111C314.393 286.69 314.68 287.437 314.68 288.352C314.68 289.102 314.464 289.773 314.033 290.364C313.607 290.955 313.01 291.42 312.243 291.761C311.476 292.102 310.584 292.273 309.567 292.273C308.232 292.273 307.126 291.983 306.251 291.403C305.376 290.824 304.822 289.977 304.589 288.864L306.499 288.386C306.68 289.091 307.024 289.619 307.53 289.972C308.041 290.324 308.709 290.5 309.533 290.5C310.47 290.5 311.214 290.301 311.766 289.903C312.322 289.5 312.601 289.017 312.601 288.455C312.601 288 312.442 287.619 312.124 287.312C311.805 287 311.317 286.767 310.658 286.614L308.476 286.102C307.277 285.818 306.396 285.378 305.834 284.781C305.277 284.179 304.999 283.426 304.999 282.523C304.999 281.784 305.206 281.131 305.621 280.562C306.041 279.994 306.612 279.548 307.334 279.224C308.061 278.901 308.885 278.739 309.805 278.739C311.101 278.739 312.118 279.023 312.857 279.591C313.601 280.159 314.129 280.909 314.442 281.841ZM323.197 292.273C321.935 292.273 320.847 291.994 319.933 291.438C319.023 290.875 318.322 290.091 317.827 289.085C317.339 288.074 317.094 286.898 317.094 285.557C317.094 284.216 317.339 283.034 317.827 282.011C318.322 280.983 319.009 280.182 319.89 279.608C320.776 279.028 321.81 278.739 322.992 278.739C323.674 278.739 324.347 278.852 325.012 279.08C325.677 279.307 326.282 279.676 326.827 280.188C327.373 280.693 327.808 281.364 328.131 282.199C328.455 283.034 328.617 284.062 328.617 285.284V286.136H318.526V284.398H326.572C326.572 283.659 326.424 283 326.129 282.42C325.839 281.841 325.424 281.384 324.884 281.048C324.35 280.713 323.719 280.545 322.992 280.545C322.191 280.545 321.498 280.744 320.913 281.142C320.333 281.534 319.887 282.045 319.575 282.676C319.262 283.307 319.106 283.983 319.106 284.705V285.864C319.106 286.852 319.276 287.69 319.617 288.378C319.964 289.06 320.444 289.58 321.058 289.938C321.671 290.29 322.384 290.466 323.197 290.466C323.725 290.466 324.202 290.392 324.629 290.244C325.06 290.091 325.433 289.864 325.745 289.562C326.058 289.256 326.299 288.875 326.469 288.42L328.413 288.966C328.208 289.625 327.864 290.205 327.381 290.705C326.898 291.199 326.302 291.585 325.592 291.864C324.881 292.136 324.083 292.273 323.197 292.273ZM333.688 274.545V292H331.677V274.545H333.688Z" fill="#554D3F"/>
</svg>
