<svg width="555" height="442" viewBox="0 0 555 442" fill="none" xmlns="http://www.w3.org/2000/svg">
<path d="M115.641 126.766L115.643 126.766L115.644 126.766L115.645 126.767L115.646 126.767L116.066 126.897L116.201 126.858C116.394 126.946 116.682 127.112 117.061 127.376L117.177 127.457L117.307 127.515C117.93 127.792 118.649 128.099 119.35 128.347C120.024 128.586 120.794 128.812 121.488 128.86C122.043 128.898 123.411 128.861 123.946 127.546C124.169 126.996 124.126 126.442 124.028 126.011C123.927 125.568 123.735 125.107 123.491 124.639L123.491 124.638C122.798 123.311 123.158 121.816 124.713 120.33C126.273 118.84 128.794 117.673 131.442 117.379C132.941 117.213 134.947 117.699 136.728 118.328C137.587 118.632 138.339 118.95 138.876 119.191C139.144 119.311 139.356 119.412 139.5 119.481C139.548 119.504 139.588 119.524 139.62 119.54L139.637 119.552C139.705 119.6 139.806 119.672 139.932 119.763C140.183 119.944 140.532 120.2 140.922 120.495C141.716 121.098 142.621 121.823 143.221 122.413L143.222 122.413C145.894 125.039 146.644 126.921 147.99 130.295C148.031 130.399 148.073 130.504 148.116 130.611L148.116 130.611C150.259 135.977 149.739 140.478 148.186 145.082C147.426 147.332 146.43 149.579 145.362 151.986C145.321 152.079 145.279 152.173 145.238 152.267C144.135 154.753 142.974 157.395 142.016 160.251L142.014 160.257L141.987 160.331C141.963 160.396 141.928 160.491 141.884 160.616C141.794 160.866 141.663 161.234 141.499 161.706C141.169 162.651 140.703 164.017 140.153 165.706C139.054 169.084 137.62 173.764 136.281 178.967C134.943 184.166 133.693 189.91 132.971 195.414C132.251 200.896 132.039 206.241 132.84 210.6L134.315 210.329L132.84 210.6C134.421 219.199 137.741 223.923 141.843 227.535C143.612 229.092 145.523 230.44 147.415 231.773C147.664 231.949 147.913 232.124 148.161 232.3C150.316 233.825 152.465 235.397 154.551 237.386L156.968 235.716C156.128 233.73 155.586 230.76 155.449 227.677C155.313 224.594 155.591 221.606 156.251 219.586C157.653 215.295 159.754 211.5 165.245 209.366C168.217 208.211 170.271 207.706 172.343 207.778C174.428 207.849 176.688 208.51 180.052 209.992C181.586 210.668 184.058 212.287 187.257 214.687C190.42 217.059 194.192 220.116 198.295 223.579C206.499 230.504 215.976 239.015 224.458 246.846L224.468 246.855L224.479 246.864L225.476 245.744C224.479 246.864 224.479 246.864 224.479 246.864L224.479 246.865L224.481 246.866L224.486 246.871L224.508 246.89L224.591 246.964C224.664 247.029 224.772 247.123 224.911 247.245C225.188 247.488 225.592 247.84 226.099 248.276C227.112 249.148 228.537 250.357 230.189 251.709C233.48 254.401 237.718 257.696 241.392 260C243.146 261.1 244.768 261.842 246.235 262.513C246.513 262.64 246.787 262.765 247.054 262.89C248.741 263.674 250.27 264.463 251.867 265.787L251.867 265.787C253.203 266.894 254.643 268.562 255.781 270.01C256.342 270.723 256.814 271.364 257.146 271.825C257.311 272.055 257.441 272.24 257.529 272.367C257.573 272.43 257.606 272.478 257.628 272.51L257.653 272.546L257.658 272.554L257.659 272.556L257.659 272.556L257.679 272.585L257.7 272.613C263.056 279.786 266.87 285.368 269.311 291.545C271.739 297.687 272.843 304.511 272.596 314.175L272.594 314.236L272.597 314.297L275.547 367.016H190.782C190.826 366.727 190.873 366.406 190.923 366.057C191.163 364.367 191.452 362.01 191.644 359.338C192.025 354.046 192.047 347.318 190.446 342.105L189.012 342.545L190.446 342.105C186.54 329.386 176.384 322.963 164.846 317.548C162.073 316.246 159.223 315.002 156.343 313.744C147.097 309.707 137.534 305.532 129.172 298.874C124.735 295.341 120.662 292.339 116.965 289.614C116.329 289.145 115.704 288.685 115.091 288.231C110.896 285.13 107.237 282.362 104.039 279.461C97.7028 273.715 93.1648 267.443 90.1758 257.131C88.6819 251.977 87.1361 247.35 85.6667 242.951C81.0191 229.039 77.1359 217.416 78.0773 198.63C78.7747 191.065 80.7072 184.435 83.3932 177.154C84.5594 173.993 85.8615 170.725 87.2654 167.202C87.4839 166.654 87.7048 166.1 87.9281 165.538C89.5831 161.378 91.3595 156.865 93.1848 151.813L93.2202 151.716L93.2417 151.614C93.6765 149.557 93.9848 147.454 94.2819 145.429C94.3186 145.179 94.3551 144.93 94.3917 144.682C94.7278 142.406 95.0685 140.242 95.581 138.228C96.6013 134.22 98.2498 131.016 101.659 128.981L101.659 128.981C105.27 126.827 108.789 126.28 111.411 126.271C112.723 126.266 113.804 126.397 114.548 126.526C114.919 126.59 115.206 126.654 115.393 126.7C115.486 126.723 115.555 126.741 115.597 126.753C115.618 126.759 115.632 126.763 115.64 126.765L115.641 126.766Z" fill="#A0937D" stroke="black" stroke-width="3"/>
<path d="M116.083 125.332C117.819 124.84 130.345 136.412 128.238 144.22C126.132 152.029 122.161 170.191 122.161 170.191C122.161 170.191 115.888 188.758 116.083 200.885C116.264 212.101 117.397 218.628 122.161 229.217C128.138 242.503 146.47 259.91 146.47 259.91M116.083 125.332C116.083 125.332 108.675 123.048 100.89 127.693C93.1048 132.339 93.6801 142.285 91.7741 151.304C84.5064 171.416 78.0044 183.002 76.5807 198.524C75.3175 223.602 82.5876 236.338 88.7351 257.549C94.8831 278.76 107.542 283.568 128.238 300.047C150.538 317.803 181.601 318.414 189.012 342.545C192.041 352.411 189.012 368.516 189.012 368.516H277.133L274.095 314.213C274.596 294.603 269.621 286.07 258.902 271.715C258.902 271.715 255.751 267.057 252.824 264.632C249.333 261.739 246.161 261.22 242.189 258.729C235.006 254.225 225.476 245.744 225.476 245.744C208.494 230.066 187.495 211.633 180.657 208.62C173.818 205.607 170.78 205.607 164.702 207.968C158.625 210.329 156.3 214.606 154.825 219.121C153.35 223.636 153.715 231.875 155.586 236.3M116.083 125.332C117.574 125.889 124.4 129.624 122.161 125.332C119.922 121.041 125.403 116.54 131.277 115.888C134.992 115.476 140.393 118.249 140.393 118.249C140.393 118.249 142.926 120.02 144.273 121.343C147.27 124.289 148.077 126.469 149.509 130.055C154.134 141.637 147.171 149.593 143.431 160.747C143.431 160.747 131.277 193.802 134.315 210.329C137.354 226.856 146.905 228.026 155.586 236.3M155.586 236.3C174.573 253.818 204.205 281.159 204.205 281.159M164.702 219.121C164.556 222.008 167.665 227.348 170.703 229.217C173.742 231.086 180.521 227.653 185.973 222.134" stroke="black" stroke-width="3" stroke-linecap="round"/>
<path d="M264.97 249.613L277.134 234.75L289.297 249.613" stroke="black" stroke-width="3" stroke-linecap="round"/>
<path d="M177.799 102.647C172.742 101.763 169.588 102.463 163.608 105.032L149.417 209.978C154.418 204.472 157.601 201.58 166.446 198.053C174.983 197.64 178.627 198.222 183.475 200.438C192.038 196.834 194.197 193.556 203.342 193.282C210.203 193.077 223.209 193.282 223.209 193.282C223.209 193.282 235.88 193.306 243.076 195.667C250.272 198.029 277.133 209.978 277.133 209.978V200.438M177.799 102.647L179.475 92.7542L202.18 85.5987C209.712 83.6193 214.083 82.5639 223.209 81.1805C232.308 80.952 245.914 83.5657 245.914 83.5657C245.914 83.5657 255.108 85.933 260.105 88.336C267.832 93.7771 271.384 96.9342 277.133 102.647V195.667M177.799 102.647L166.446 190.897C181.062 184.411 188.763 180.553 209.018 176.586C222.319 174.498 229.775 174.298 243.076 176.586C262.501 181.667 266.58 187.152 277.133 195.667M277.133 200.438V195.667M277.133 200.438C277.133 200.438 265.492 193.885 257.267 190.897C250.844 188.564 247.079 187.456 240.238 186.127C223.89 182.952 205.91 185.207 207.193 185.207" stroke="black" stroke-width="3" stroke-linecap="round"/>
<path d="M191.989 118.324C203.167 113.94 209.284 111.364 225.439 110.892H233.041H240.643C256.098 112.537 259.235 114.917 268.011 118.324" stroke="black" stroke-width="3" stroke-linecap="round"/>
<path d="M182.867 167.867C194.045 163.483 209.284 155.953 225.439 155.481H233.041H240.643C256.098 157.126 259.236 159.506 268.011 162.913" stroke="black" stroke-width="3" stroke-linecap="round"/>
<path d="M188.948 148.05C200.126 143.666 209.284 141.09 225.439 140.618H233.041H240.643C256.098 142.263 259.236 144.643 268.011 148.05" stroke="black" stroke-width="3" stroke-linecap="round"/>
<path d="M191.989 133.187C203.167 128.803 209.284 126.227 225.439 125.755H233.041H240.643C256.098 127.4 259.235 129.78 268.011 133.187" stroke="black" stroke-width="3" stroke-linecap="round"/>
<path d="M191.989 207.059C228.479 200.07 243.684 205.024 243.684 205.024C243.684 205.024 249.219 205.338 261.929 214.933C265.66 217.749 274.093 219.887 277.133 219.887" stroke="black" stroke-width="3" stroke-linecap="round"/>
<path d="M437.207 127.376C437.586 127.112 437.874 126.946 438.067 126.858L438.202 126.897L438.622 126.767L438.623 126.767L438.624 126.766L438.625 126.766L438.626 126.766L438.628 126.765C438.635 126.763 438.65 126.759 438.671 126.753C438.713 126.741 438.781 126.723 438.875 126.7C439.062 126.654 439.348 126.59 439.72 126.526C440.464 126.397 441.545 126.266 442.856 126.271C445.478 126.28 448.998 126.827 452.609 128.981C456.018 131.016 457.666 134.22 458.686 138.228C459.199 140.242 459.539 142.406 459.876 144.682C459.912 144.929 459.949 145.178 459.985 145.427C460.282 147.453 460.591 149.556 461.026 151.614L461.048 151.716L461.083 151.813C462.908 156.865 464.684 161.378 466.339 165.538C466.563 166.101 466.784 166.656 467.003 167.205C468.407 170.727 469.708 173.994 470.874 177.154C473.56 184.435 475.493 191.065 476.19 198.63C477.131 217.417 473.248 229.041 468.6 242.953C467.131 247.351 465.585 251.978 464.091 257.131C461.103 267.443 456.565 273.715 450.229 279.461C447.031 282.362 443.372 285.13 439.177 288.231C438.563 288.685 437.938 289.145 437.302 289.614C433.605 292.339 429.532 295.341 425.095 298.874C416.733 305.532 407.17 309.707 397.924 313.744C395.044 315.002 392.194 316.246 389.422 317.548C377.884 322.963 367.728 329.386 363.822 342.105C362.221 347.318 362.242 354.046 362.623 359.338C362.816 362.01 363.104 364.367 363.344 366.057C363.394 366.406 363.442 366.727 363.486 367.016H278.72L281.67 314.297L281.674 314.236L281.672 314.175C281.425 304.511 282.528 297.687 284.956 291.545C287.397 285.368 291.211 279.786 296.568 272.613L296.589 272.585L296.608 272.556L296.608 272.556L296.609 272.554L296.615 272.546L296.639 272.51C296.661 272.478 296.695 272.43 296.739 272.367C296.826 272.24 296.956 272.055 297.122 271.825C297.454 271.364 297.926 270.723 298.487 270.01C299.625 268.562 301.064 266.894 302.401 265.787L302.401 265.787C303.998 264.463 305.526 263.674 307.213 262.89C307.481 262.765 307.754 262.64 308.033 262.513C309.5 261.842 311.122 261.1 312.875 260C316.55 257.696 320.787 254.401 324.078 251.709C325.73 250.357 327.156 249.148 328.169 248.276C328.675 247.84 329.079 247.488 329.357 247.245C329.431 247.18 329.497 247.122 329.553 247.073C329.601 247.03 329.642 246.994 329.676 246.964L329.759 246.89L329.781 246.871L329.786 246.866L329.788 246.865L329.788 246.864C329.788 246.864 329.789 246.864 328.791 245.744L329.789 246.864L329.799 246.855L329.809 246.846C338.291 239.015 347.769 230.504 355.972 223.579C360.075 220.116 363.847 217.059 367.011 214.687C370.21 212.287 372.681 210.668 374.215 209.992C377.58 208.51 379.839 207.849 381.925 207.778C383.996 207.706 386.05 208.211 389.022 209.366C394.514 211.5 396.615 215.295 398.016 219.586C398.676 221.606 398.955 224.594 398.818 227.677C398.681 230.76 398.139 233.729 397.299 235.716L399.716 237.386C401.802 235.397 403.951 233.825 406.107 232.3C406.354 232.124 406.603 231.949 406.852 231.774C408.744 230.44 410.655 229.092 412.424 227.535C416.526 223.923 419.846 219.199 421.427 210.6C422.229 206.241 422.017 200.896 421.297 195.414C420.574 189.91 419.324 184.166 417.986 178.967C416.647 173.764 415.213 169.084 414.114 165.706C413.564 164.017 413.098 162.651 412.769 161.706C412.604 161.234 412.473 160.866 412.384 160.616C412.367 160.569 412.351 160.527 412.337 160.488C412.314 160.424 412.295 160.371 412.28 160.331L412.253 160.257L412.251 160.251C411.293 157.395 410.132 154.753 409.029 152.267L408.905 151.986C407.837 149.579 406.841 147.332 406.082 145.082C404.529 140.478 404.009 135.977 406.151 130.611C406.195 130.502 406.237 130.396 406.279 130.29C407.624 126.919 408.375 125.038 411.046 122.413L409.994 121.343L411.046 122.413C411.646 121.823 412.551 121.098 413.346 120.495C413.735 120.2 414.084 119.944 414.336 119.763C414.461 119.672 414.562 119.601 414.631 119.552L414.648 119.54C414.679 119.524 414.72 119.504 414.768 119.481C414.911 119.412 415.124 119.311 415.392 119.191C415.928 118.95 416.68 118.632 417.54 118.328C419.321 117.699 421.326 117.213 422.825 117.379C425.474 117.673 427.995 118.84 429.555 120.33C431.11 121.816 431.469 123.311 430.777 124.639C430.532 125.107 430.341 125.567 430.24 126.011C430.142 126.442 430.098 126.995 430.322 127.546C430.856 128.861 432.225 128.898 432.779 128.86C433.473 128.812 434.243 128.586 434.918 128.347C435.618 128.099 436.337 127.792 436.96 127.515L437.09 127.457L437.207 127.376Z" fill="#E2CBA5" stroke="black" stroke-width="3"/>
<path d="M438.184 125.332C436.449 124.84 423.923 136.412 426.029 144.22C428.135 152.029 432.107 170.191 432.107 170.191C432.107 170.191 438.379 188.758 438.184 200.885C438.004 212.101 436.871 218.628 432.107 229.217C426.129 242.503 407.797 259.91 407.797 259.91M438.184 125.332C438.184 125.332 445.592 123.048 453.378 127.693C461.162 132.339 460.587 142.285 462.494 151.304C469.761 171.416 476.263 183.002 477.687 198.524C478.95 223.602 471.68 236.338 465.532 257.549C459.385 278.76 446.726 283.568 426.029 300.047C403.729 317.803 372.667 318.414 365.256 342.545C362.226 352.411 365.256 368.516 365.256 368.516H277.134L280.173 314.213C279.671 294.603 284.646 286.07 295.366 271.715C295.366 271.715 298.517 267.057 301.443 264.632C304.934 261.739 308.107 261.22 312.079 258.729C319.262 254.225 328.791 245.744 328.791 245.744C345.773 230.066 366.772 211.633 373.611 208.62C380.449 205.607 383.487 205.607 389.565 207.968C395.642 210.329 397.967 214.606 399.442 219.121C400.917 223.636 400.552 231.875 398.681 236.3M438.184 125.332C436.694 125.889 429.868 129.624 432.107 125.332C434.345 121.041 428.865 116.54 422.991 115.888C419.275 115.476 413.875 118.249 413.875 118.249C413.875 118.249 411.341 120.02 409.994 121.343C406.997 124.289 406.191 126.469 404.758 130.055C400.134 141.637 407.096 149.593 410.836 160.747C410.836 160.747 422.991 193.802 419.952 210.329C416.913 226.856 407.363 228.026 398.681 236.3M398.681 236.3C379.694 253.818 350.062 281.159 350.062 281.159M389.565 219.121C389.712 222.008 386.603 227.926 383.564 229.796C380.526 231.665 373.746 227.653 368.294 222.134" stroke="black" stroke-width="3" stroke-linecap="round"/>
<path d="M362.278 207.059C325.787 200.07 310.583 205.024 310.583 205.024C310.583 205.024 305.048 205.338 292.338 214.933C288.607 217.749 280.174 219.887 277.134 219.887" stroke="black" stroke-width="3" stroke-linecap="round"/>
<path d="M376.469 102.647C381.525 101.763 384.68 102.463 390.66 105.032L404.85 209.978C399.849 204.472 396.667 201.58 387.821 198.053C379.284 197.64 375.64 198.222 370.792 200.438C362.229 196.834 360.071 193.556 350.926 193.282C344.065 193.077 331.059 193.282 331.059 193.282C331.059 193.282 318.388 193.306 311.191 195.667C303.995 198.029 277.134 209.978 277.134 209.978V200.438M376.469 102.647L374.793 92.7542L352.088 85.5987C344.555 83.6193 340.184 82.5639 331.059 81.1805C321.96 80.952 308.354 83.5657 308.354 83.5657C308.354 83.5657 299.16 85.933 294.162 88.336C286.435 93.7771 282.884 96.9342 277.134 102.647V195.667M376.469 102.647L387.821 190.897C373.205 184.411 365.505 180.553 345.249 176.586C331.949 174.498 324.492 174.298 311.191 176.586C291.766 181.667 287.687 187.152 277.134 195.667M277.134 200.438V195.667M277.134 200.438C277.134 200.438 288.775 193.885 297.001 190.897C303.424 188.564 307.189 187.456 314.03 186.127C330.377 182.952 352.209 186.127 350.926 186.127" stroke="black" stroke-width="3" stroke-linecap="round"/>
<path d="M362.278 118.324C351.1 113.94 344.983 111.364 328.828 110.892H321.226H313.624C298.17 112.537 295.031 114.917 286.256 118.324" stroke="black" stroke-width="3" stroke-linecap="round"/>
<path d="M371.401 167.867C360.223 163.483 344.983 155.953 328.828 155.481H321.226H313.624C298.17 157.126 295.031 159.506 286.256 162.913" stroke="black" stroke-width="3" stroke-linecap="round"/>
<path d="M365.319 148.05C354.141 143.666 344.983 141.09 328.828 140.618H321.226H313.624C298.17 142.263 295.031 144.643 286.256 148.05" stroke="black" stroke-width="3" stroke-linecap="round"/>
<path d="M362.278 133.187C351.1 128.803 344.983 126.227 328.828 125.755H321.226H313.624C298.17 127.4 295.031 129.78 286.256 133.187" stroke="black" stroke-width="3" stroke-linecap="round"/>
<path d="M132.015 360.499C51.5217 313.143 9.39214 242.271 23.6494 176.404" stroke="black" stroke-width="3" stroke-linecap="round"/>
<path d="M124.932 351.062L124.932 351.062C124.793 349.248 124.003 345.621 123.128 341.726C122.995 341.133 122.859 340.531 122.722 339.924C121.942 336.466 121.127 332.853 120.571 329.881C120.413 329.033 120.278 328.249 120.172 327.545C120.712 328.48 121.351 329.664 122.099 331.134C127.555 341.846 128.623 348.621 128.432 352.6C128.336 354.584 127.927 355.883 127.584 356.647C127.51 356.812 127.438 356.954 127.372 357.073C126.956 357.054 126.391 357.027 125.697 356.994C124.111 356.916 121.854 356.8 119.171 356.646C113.802 356.337 106.734 355.873 99.9235 355.256C93.0931 354.637 86.5896 353.869 82.3158 352.961C80.8887 352.657 79.8123 352.357 79.0759 352.083C79.7818 351.829 80.7318 351.635 81.9426 351.523C83.6547 351.365 85.7282 351.383 88.0543 351.527C92.5094 351.802 97.7144 352.523 102.791 353.226C103.02 353.258 103.248 353.289 103.476 353.321C108.717 354.046 113.818 354.736 117.578 354.81C119.435 354.847 121.137 354.741 122.407 354.325C123.049 354.115 123.713 353.784 124.21 353.229C124.75 352.627 124.994 351.872 124.932 351.062ZM78.0408 351.561C78.0422 351.561 78.0523 351.569 78.0673 351.586C78.047 351.569 78.0395 351.561 78.0408 351.561ZM78.0846 352.591C78.0723 352.606 78.064 352.613 78.063 352.613C78.062 352.613 78.0682 352.605 78.0846 352.591Z" fill="white" stroke="black" stroke-width="3"/>
<path d="M54.3216 325.37C54.3447 325.441 54.3645 325.525 54.375 325.619C54.4069 325.906 54.3427 326.209 54.1788 326.469C54.1199 326.562 54.056 326.637 53.9948 326.697C54.0979 326.754 54.2077 326.812 54.324 326.871L54.3216 325.37ZM54.3216 325.37C54.4344 325.365 54.5512 325.361 54.6717 325.358L54.3216 325.37ZM96.1568 304.958L96.1568 304.958C97.3054 304.082 97.8878 304.18 98.1848 304.314C98.6437 304.52 99.2621 305.172 99.884 306.639C101.1 309.507 101.815 314.237 102.19 319.449C102.562 324.605 102.592 330.038 102.527 334.194C102.495 336.269 102.44 338.02 102.392 339.251C102.385 339.437 102.378 339.61 102.372 339.771C102.011 339.722 101.577 339.651 101.07 339.557C99.4291 339.253 97.1683 338.737 94.5005 338.067C89.1724 336.729 82.3084 334.8 75.7183 332.796C69.1217 330.79 62.8371 328.721 58.6556 327.103C58.5832 327.075 58.5116 327.047 58.4408 327.02C59.6504 327.122 61.0157 327.27 62.5027 327.457C66.5247 327.961 71.2458 328.722 75.7635 329.514C80.2781 330.306 84.5749 331.127 87.744 331.751C89.3283 332.062 90.6299 332.324 91.535 332.508C91.9876 332.6 92.3409 332.673 92.5809 332.722L92.8541 332.779L92.9235 332.793L92.9409 332.797L92.9452 332.798L92.9462 332.798C92.9464 332.798 92.9464 332.798 93.2526 331.33L92.9464 332.798L95.9086 333.416L94.6071 330.685L94.607 330.685L94.6067 330.684L94.6067 330.684L94.6034 330.677L94.5875 330.643C94.5729 330.612 94.5503 330.563 94.5207 330.497C94.4614 330.365 94.3739 330.167 94.2653 329.909C94.048 329.394 93.7468 328.643 93.418 327.713C92.7586 325.849 91.9973 323.292 91.5716 320.497C90.7063 314.817 91.2871 308.674 96.1568 304.958Z" fill="white" stroke="black" stroke-width="3"/>
<path d="M27.5836 292.991L27.5836 292.991C26.7181 291.798 26.1616 290.883 25.8445 290.205C25.7646 290.034 25.7058 289.891 25.6625 289.772C25.8721 289.797 26.1455 289.846 26.4919 289.933C27.9476 290.302 30.0517 291.179 32.6159 292.451C35.1557 293.71 38.0629 295.313 41.0977 297.078C47.1661 300.608 53.6882 304.756 58.7006 308.026C60.2346 309.027 61.6258 309.944 62.8178 310.736C60.1775 310.506 56.7265 310.032 52.9234 309.07C44.4765 306.934 34.4358 302.429 27.5836 292.991ZM25.1543 289.767C25.1543 289.767 25.1549 289.767 25.1564 289.767L25.1543 289.767ZM68.5496 307.684C68.5208 307.531 68.4918 307.376 68.4627 307.217C67.9211 304.269 67.3371 300.325 67.1528 296.302C66.9673 292.254 67.1936 288.249 68.1942 285.117C69.1879 282.007 70.8452 280.015 73.4005 279.396C74.7502 279.069 75.286 279.355 75.5331 279.593C75.8703 279.919 76.2004 280.649 76.2652 282.064C76.3932 284.858 75.4406 289.042 74.0018 293.545C72.5812 297.991 70.7532 302.551 69.2743 306.01C69.0209 306.603 68.778 307.163 68.5496 307.684Z" fill="white" stroke="black" stroke-width="3"/>
<path d="M20.0895 264.235L20.0896 264.235C28.8238 268.339 33.6243 271.418 36.2384 273.638L39.4006 276.324L38.687 272.237C38.3262 270.17 39.2714 266.306 44.4683 259.478C46.6025 256.674 48.1634 255.19 49.2332 254.567C49.7549 254.264 50.029 254.243 50.1171 254.249L50.1206 254.249C50.1551 254.251 50.2091 254.254 50.3207 254.385C50.4669 254.556 50.6545 254.892 50.8251 255.48C50.9917 256.055 51.118 256.786 51.1981 257.664C51.3585 259.422 51.3217 261.625 51.1471 264.06C50.7984 268.921 49.916 274.509 49.1142 278.906C48.7145 281.098 48.3367 282.984 48.0589 284.321C47.8567 284.189 47.6395 284.046 47.4083 283.895C45.8529 282.875 43.665 281.434 41.1357 279.751C36.0746 276.382 29.6569 272.047 24.2065 268.168C21.48 266.228 19.008 264.41 17.0734 262.89C17.0433 262.866 17.0133 262.843 16.9835 262.819C17.884 263.214 18.9157 263.683 20.0895 264.235Z" fill="white" stroke="black" stroke-width="3"/>
<path d="M34.4232 228.63L34.4234 228.63C34.4284 228.63 34.4335 228.631 34.4387 228.632C34.5177 228.642 34.6035 228.653 34.7162 228.968C34.8714 229.403 34.9434 230.155 34.8424 231.27C34.6435 233.464 33.8432 236.417 32.8144 239.46C31.7948 242.475 30.5871 245.475 29.6307 247.727C29.3416 248.408 29.076 249.02 28.8464 249.541C28.2023 248.921 27.3838 248.131 26.448 247.219C26.3129 247.088 26.1755 246.954 26.0358 246.817L26.245 243.424C26.2627 243.138 26.4787 241.98 26.9438 240.307C27.3948 238.684 28.044 236.706 28.8638 234.824C29.6921 232.922 30.6538 231.214 31.6958 230.055C32.7511 228.881 33.6495 228.518 34.4232 228.63ZM18.1759 238.95C15.6361 236.328 13.2465 233.757 11.5685 231.735C11.7642 231.886 11.9639 232.045 12.1673 232.211C13.8467 233.583 15.6728 235.373 17.3768 237.172C19.0755 238.966 20.6271 240.742 21.7557 242.072C22.3193 242.736 22.776 243.287 23.0911 243.671C23.2486 243.863 23.3707 244.013 23.4529 244.115L23.5458 244.23L23.5688 244.259L23.5743 244.266L23.5755 244.267L23.5757 244.267L23.5757 244.267L24.0739 244.891C22.2238 243.065 20.1632 241.002 18.1759 238.95Z" fill="white" stroke="black" stroke-width="3"/>
<path d="M20.6786 215.13C20.0001 214.383 19.0619 213.344 17.9712 212.122C17.8375 211.972 17.7017 211.82 17.5637 211.665L18.2271 210.075L18.2272 210.075L18.2274 210.075L18.2274 210.075L18.2296 210.069L18.2408 210.043C18.2512 210.019 18.2676 209.981 18.2898 209.93C18.3342 209.828 18.402 209.675 18.4926 209.478C18.6738 209.083 18.9458 208.51 19.3038 207.812C20.0209 206.412 21.077 204.52 22.4324 202.544C25.1904 198.523 28.9897 194.45 33.4663 193.14L20.6786 215.13ZM20.6786 215.13C21.3302 214.342 22.2318 213.24 23.2707 211.935C25.4105 209.246 28.1183 205.717 30.4236 202.316C32.7754 198.847 34.5575 195.723 35.0414 193.782C35.1674 193.277 35.168 193.011 35.1541 192.889C35.1114 192.882 35.053 192.876 34.9755 192.875C34.6686 192.868 34.1824 192.931 33.4664 193.14L20.6786 215.13ZM35.2525 192.913C35.2525 192.913 35.2514 192.912 35.2493 192.911C35.2515 192.912 35.2526 192.913 35.2525 192.913ZM11.993 204.733C12.7072 205.715 13.334 206.644 13.8539 207.449C12.6311 206.041 11.3812 204.58 10.1936 203.157C8.75521 201.433 7.43278 199.795 6.36544 198.386C8.47541 200.232 10.4186 202.57 11.993 204.733ZM4.51002 195.148L4.3248 195.454C4.3204 195.447 4.31602 195.44 4.31166 195.432L4.51002 195.148Z" fill="white" stroke="black" stroke-width="3"/>
<path d="M27.8451 167.022C27.8437 166.707 27.8422 166.372 27.8422 166.015C27.8422 160.945 26.2533 158.094 23.7183 153.546C23.2456 152.698 22.74 151.79 22.2057 150.799L27.8451 167.022ZM27.8451 167.022C27.8546 169.106 27.8601 170.312 27.3924 171.511M27.8451 167.022L27.3924 171.511M27.3924 171.511C26.9283 172.701 25.9209 174.009 23.4261 175.964M27.3924 171.511L23.4261 175.964M23.4261 175.964C23.1346 175.782 22.7783 175.555 22.3748 175.286C21.2238 174.521 19.7041 173.434 18.2103 172.14C16.7087 170.839 15.2815 169.371 14.274 167.85C13.2829 166.353 12.7839 164.938 12.8628 163.651C13.6273 160.216 15.7261 155.606 17.9968 152.621C19.176 151.071 20.2115 150.215 20.9296 149.975C21.2281 149.875 21.3832 149.909 21.4868 149.958C21.6188 150.019 21.8886 150.21 22.2057 150.799L23.4261 175.964Z" fill="white" stroke="black" stroke-width="3"/>
<path d="M68.0378 312.434C68.0378 312.434 86.0823 274.78 73.0473 277.938C60.0123 281.097 68.0378 312.434 68.0378 312.434ZM68.0378 312.434C68.0378 312.434 40.6414 313.529 26.3698 293.872C12.0985 274.215 68.0378 312.434 68.0378 312.434ZM27.9457 243.791C27.9457 243.791 24.6022 245.698 24.7482 243.331M24.7482 243.331C24.8617 241.491 28.6469 226.284 34.6368 227.145C40.6268 228.005 29.3421 252.09 29.3421 252.09C29.3421 252.09 3.63407 227.722 8.51983 228.424C13.4057 229.125 24.7482 243.331 24.7482 243.331ZM19.3091 212.366L16.8431 209.497M16.8431 209.497C16.8431 209.497 11.2546 199.223 4.51002 195.148C-5.02798 189.385 20.7275 217.41 20.7275 217.41C20.7275 217.41 45.7889 187.973 33.0453 191.7C23.0486 194.624 16.8431 209.497 16.8431 209.497ZM128.131 358.608C128.131 358.608 134.494 352.164 123.436 330.453C112.379 308.742 122.922 344.466 123.436 351.176C123.95 357.886 85.5587 346.222 77.4943 351.176C69.4299 356.131 128.131 358.608 128.131 358.608ZM93.2527 331.329C93.2527 331.329 84.1508 312.233 95.2469 303.766C106.343 295.298 103.804 341.268 103.804 341.268C101.867 342.683 46.4494 326.365 53.503 325.439C60.556 324.512 93.2527 331.329 93.2527 331.329ZM49.0682 286.77C49.0682 286.77 -10.1019 248.387 20.7277 262.877C51.5575 277.367 35.0024 279.742 43.2748 277.938C51.386 276.17 26.0157 281.244 43.2748 258.569C60.5329 235.895 49.0682 286.77 49.0682 286.77ZM23.5261 177.775C29.8079 173.089 29.3421 171.131 29.3421 166.015C29.3421 159.526 26.836 156.23 23.5261 150.087C20.2161 143.945 12.9579 156.116 11.3745 163.434C10.7821 170.552 23.5261 177.775 23.5261 177.775Z" stroke="black" stroke-width="3" stroke-linecap="round"/>
<path d="M431.241 347.51C432.403 342.765 434.304 332.601 434.495 326.364C434.543 324.799 434.478 323.59 434.31 322.807C434.306 322.788 434.302 322.769 434.298 322.751C434.114 322.926 433.891 323.168 433.627 323.496C432.764 324.568 431.639 326.336 430.214 329.001C424.566 339.566 423.841 346.886 424.409 351.451C424.694 353.74 425.308 355.371 425.827 356.405C426.009 356.77 426.181 357.061 426.323 357.282C426.735 357.264 427.299 357.238 427.992 357.205C429.556 357.13 431.78 357.019 434.417 356.874C439.694 356.585 446.62 356.16 453.231 355.62C459.861 355.078 466.109 354.425 470.063 353.684C470.408 353.62 470.733 353.555 471.036 353.49C468.893 353.126 466.051 353.052 462.757 353.146C459.99 353.224 457.054 353.413 454.101 353.602C452.273 353.72 450.438 353.838 448.632 353.93C444.011 354.167 439.569 354.238 436.405 353.592C434.838 353.272 433.345 352.733 432.327 351.74C431.193 350.632 430.838 349.153 431.241 347.51ZM431.241 347.51L432.697 347.867L431.241 347.51ZM473.617 354.254C473.617 354.254 473.613 354.251 473.606 354.246C473.614 354.251 473.618 354.254 473.617 354.254ZM473.608 352.705C473.61 352.704 473.611 352.703 473.613 352.702C473.617 352.698 473.619 352.697 473.619 352.697C473.62 352.697 473.617 352.699 473.612 352.702C473.611 352.703 473.61 352.704 473.608 352.705ZM434.764 322.392C434.764 322.392 434.763 322.393 434.76 322.394C434.763 322.392 434.764 322.392 434.764 322.392Z" fill="white" stroke="black" stroke-width="3"/>
<path d="M457.71 328.927L457.71 328.927L456.344 331.65L459.336 331.072L459.051 329.599C459.336 331.072 459.336 331.072 459.336 331.071L459.337 331.071L459.341 331.07L459.359 331.067L459.429 331.054L459.703 331.001C459.944 330.955 460.299 330.888 460.753 330.802C461.662 330.631 462.969 330.387 464.56 330.098C467.742 329.52 472.056 328.76 476.587 328.033C481.121 327.305 485.858 326.611 489.89 326.164C491.623 325.972 493.189 325.83 494.537 325.747C490.918 327.181 485.447 328.987 479.666 330.729C473.822 332.49 467.706 334.172 462.943 335.322C460.557 335.898 458.535 336.334 457.065 336.582C456.585 336.663 456.181 336.721 455.851 336.757C455.816 336.549 455.779 336.315 455.738 336.058C455.546 334.858 455.284 333.151 455.004 331.13C454.442 327.081 453.809 321.792 453.515 316.785C453.217 311.716 453.282 307.145 454.012 304.416C454.397 302.981 454.842 302.534 455.034 302.442L455.034 302.441C455.067 302.426 455.493 302.22 456.718 303.188C461.5 306.967 461.952 313.111 460.964 318.782C460.478 321.571 459.662 324.116 458.963 325.972C458.614 326.897 458.297 327.644 458.068 328.156C457.954 328.412 457.863 328.609 457.8 328.74C457.769 328.805 457.746 328.854 457.73 328.886L457.714 328.919L457.71 328.926L457.71 328.926L457.71 328.927ZM455.038 336.801C454.998 336.797 455.005 336.794 455.044 336.802C455.042 336.801 455.04 336.801 455.038 336.801Z" fill="white" stroke="black" stroke-width="3"/>
<path d="M486.988 291.822C487.397 298.275 486.49 305.111 485.947 308.44C485.724 308.585 485.517 308.719 485.327 308.843C484.885 307.822 484.268 306.368 483.568 304.633C482.164 301.154 480.434 296.569 479.109 292.104C477.767 287.582 476.904 283.385 477.092 280.594C477.187 279.181 477.533 278.451 477.881 278.127C478.139 277.887 478.685 277.611 480.024 277.956C482.279 278.538 483.892 280.162 485.028 282.632C486.177 285.131 486.769 288.364 486.988 291.822ZM490.192 309.275C496.45 305.27 507.732 298.212 516.641 293.539C519.139 292.229 521.426 291.119 523.35 290.318C525.243 289.531 526.648 289.102 527.518 289.011C527.447 289.192 527.342 289.422 527.188 289.706C526.84 290.351 526.302 291.173 525.53 292.194C518.458 301.559 508.894 305.835 501.026 307.765C497.095 308.73 493.61 309.103 491.111 309.235C490.787 309.253 490.481 309.266 490.192 309.275Z" fill="white" stroke="black" stroke-width="3"/>
<path d="M533.649 263.556L533.032 262.189L533.649 263.556C535.724 262.619 537.395 261.913 538.712 261.404C537.142 262.721 535.052 264.319 532.699 266.043C527.997 269.486 522.317 273.373 517.804 276.404C515.55 277.919 513.59 279.217 512.194 280.137C511.974 280.282 511.768 280.418 511.578 280.543C511.556 280.479 511.533 280.413 511.511 280.346C511.081 279.079 510.487 277.294 509.825 275.223C508.499 271.073 506.916 265.808 505.856 261.272C505.324 259 504.935 256.953 504.768 255.339C504.685 254.531 504.662 253.872 504.695 253.369C504.7 253.289 504.706 253.216 504.713 253.149C504.759 253.181 504.809 253.218 504.862 253.259C505.821 253.994 507.284 255.596 509.371 258.447C514.319 265.21 515.461 269.425 515.236 271.99L514.871 276.129L517.795 273.177C520.232 270.717 524.9 267.503 533.649 263.556Z" fill="white" stroke="black" stroke-width="3"/>
<path d="M520.083 227.751L520.083 227.751C520.858 227.651 521.745 228.026 522.772 229.211C523.787 230.382 524.712 232.103 525.499 234.016C526.278 235.908 526.885 237.894 527.301 239.523C527.73 241.202 527.921 242.363 527.932 242.649L528.09 246.556L530.586 243.546L530.586 243.546L530.586 243.546L530.587 243.544L530.593 243.538L530.617 243.509L530.712 243.395C530.796 243.295 530.922 243.146 531.083 242.956C531.407 242.577 531.875 242.032 532.453 241.376C533.61 240.063 535.2 238.309 536.937 236.539C538.679 234.764 540.544 233 542.253 231.651C542.661 231.329 543.055 231.035 543.43 230.774C541.944 232.635 539.747 235.038 537.387 237.498C534.76 240.236 531.977 242.997 529.848 245.077C528.983 245.923 528.226 246.655 527.633 247.226C527.339 246.705 526.989 246.078 526.604 245.372C525.45 243.259 523.982 240.446 522.703 237.62C521.411 234.766 520.364 232.007 519.987 229.969C519.794 228.926 519.816 228.267 519.92 227.923C519.947 227.832 519.973 227.789 519.984 227.773C519.998 227.768 520.028 227.758 520.083 227.751ZM546.21 229.398C546.209 229.399 546.199 229.4 546.18 229.4C546.201 229.398 546.21 229.398 546.21 229.398ZM545.155 228.198C545.159 228.171 545.164 228.156 545.165 228.155C545.166 228.155 545.164 228.168 545.155 228.198ZM519.99 227.766C519.99 227.766 519.989 227.767 519.988 227.768C519.989 227.767 519.99 227.766 519.99 227.766ZM519.979 227.776C519.976 227.778 519.974 227.779 519.973 227.779C519.973 227.779 519.975 227.778 519.979 227.776Z" fill="white" stroke="black" stroke-width="3"/>
<path d="M551.507 194.305C551.507 194.304 551.507 194.315 551.502 194.34C551.504 194.318 551.506 194.306 551.507 194.305ZM543.013 204.183C544.991 201.571 547.524 198.704 550.22 196.793C549.21 198.379 547.721 200.424 546.026 202.624C543.663 205.689 540.995 208.937 538.913 211.422C537.933 212.593 537.085 213.592 536.462 214.322C535.756 213.524 534.766 212.394 533.618 211.051C531.304 208.343 528.361 204.787 525.819 201.363C523.231 197.878 521.203 194.719 520.548 192.749C520.437 192.415 520.384 192.167 520.364 191.993C520.653 191.998 521.115 192.07 521.799 192.281C526.242 193.653 529.951 197.775 532.622 201.834C533.935 203.828 534.95 205.735 535.636 207.144C535.979 207.847 536.239 208.423 536.412 208.821C536.498 209.019 536.562 209.173 536.605 209.275C536.626 209.326 536.641 209.365 536.651 209.389L536.662 209.416L536.664 209.421L536.664 209.421L536.664 209.421L536.664 209.422L537.811 212.337L539.363 209.615L539.363 209.614L539.363 209.614L539.363 209.614L539.365 209.61L539.376 209.592C539.386 209.575 539.401 209.548 539.422 209.513C539.463 209.442 539.525 209.336 539.608 209.198C539.774 208.923 540.02 208.521 540.337 208.025C540.973 207.032 541.889 205.668 543.013 204.183ZM520.118 192.013C520.118 192.013 520.119 192.012 520.123 192.011C520.119 192.012 520.118 192.013 520.118 192.013Z" fill="white" stroke="black" stroke-width="3"/>
<path d="M535.975 174.631C536.105 174.523 536.247 174.403 536.399 174.271C537.195 173.582 538.248 172.595 539.282 171.403C541.389 168.976 543.16 165.996 543.022 163.081C542.332 159.636 540.333 154.999 538.127 151.983C536.982 150.417 535.967 149.55 535.258 149.301C534.965 149.197 534.808 149.228 534.701 149.276C534.564 149.338 534.287 149.528 533.957 150.114L533.957 150.114C533.063 151.696 532.121 153.096 531.266 154.365L531.265 154.367C530.397 155.654 529.636 156.784 529.028 157.908C527.851 160.084 527.297 162.139 527.953 164.869L535.975 174.631ZM535.975 174.631C535.909 174.581 535.844 174.53 535.779 174.481C533.276 172.553 531.667 171.314 530.502 170.042C529.265 168.692 528.537 167.302 527.953 164.869L535.975 174.631Z" fill="white" stroke="black" stroke-width="3"/>
<path d="M526.224 243.002C526.224 243.002 529.527 244.957 529.431 242.589M529.431 242.589C529.357 240.747 525.898 225.489 519.891 226.264C513.883 227.039 527.287 249.633 527.287 249.633C527.287 249.633 550.877 227.282 545.977 227.914C541.077 228.546 529.431 242.589 529.431 242.589ZM535.533 211.705L538.06 208.872M538.06 208.872C538.06 208.872 543.868 198.679 550.699 194.7C560.359 189.074 536.484 216.599 536.484 216.599C536.484 216.599 509.58 186.94 522.241 190.848C532.174 193.914 538.06 208.872 538.06 208.872ZM425.59 358.816C425.59 358.816 417.371 349.845 428.892 328.294C440.412 306.743 435.042 338.295 432.697 347.867C430.352 357.439 463.682 348.886 473.645 352.616C483.607 356.347 425.59 358.816 425.59 358.816ZM459.052 329.599C459.052 329.599 468.562 310.635 457.648 302.011C446.735 293.387 454.572 338.204 454.572 338.204C456.48 339.646 505.955 325.301 498.922 324.275C491.889 323.248 459.052 329.599 459.052 329.599ZM484.668 311.065C484.668 311.065 467.433 273.16 480.398 276.504C493.363 279.847 487.058 310.757 487.058 310.757C487.058 310.757 512.037 312.55 526.727 293.099C541.417 273.647 484.668 311.065 484.668 311.065ZM510.787 282.854C510.787 282.854 564.168 248.139 533.032 262.189C501.897 276.238 520.092 281.889 511.859 279.969C503.786 278.085 527.352 280.478 510.582 257.561C493.811 234.645 510.787 282.854 510.787 282.854ZM535.987 176.534C529.807 171.759 527.756 170.471 526.494 165.219C524.965 158.85 529.21 155.47 532.651 149.376C536.092 143.282 543.088 155.554 544.515 162.894C544.954 170.019 535.987 176.534 535.987 176.534Z" stroke="black" stroke-width="3" stroke-linecap="round"/>
<path d="M421.687 359.454C503.182 313.251 546.824 242.988 533.98 176.928" stroke="black" stroke-width="3" stroke-linecap="round"/>
<path d="M115.641 126.766L115.643 126.766L115.644 126.766L115.645 126.767L115.646 126.767L116.066 126.897L116.201 126.858C116.394 126.946 116.682 127.112 117.061 127.376L117.177 127.457L117.307 127.515C117.93 127.792 118.649 128.099 119.35 128.347C120.024 128.586 120.794 128.812 121.488 128.86C122.043 128.898 123.411 128.861 123.946 127.546C124.169 126.996 124.126 126.442 124.028 126.011C123.927 125.568 123.735 125.107 123.491 124.639L123.491 124.638C122.798 123.311 123.158 121.816 124.713 120.33C126.273 118.84 128.794 117.673 131.442 117.379C132.941 117.213 134.947 117.699 136.728 118.328C137.587 118.632 138.339 118.95 138.876 119.191C139.144 119.311 139.356 119.412 139.5 119.481C139.548 119.504 139.588 119.524 139.62 119.54L139.637 119.552C139.705 119.6 139.806 119.672 139.932 119.763C140.183 119.944 140.532 120.2 140.922 120.495C141.716 121.098 142.621 121.823 143.221 122.413L143.222 122.413C145.894 125.039 146.644 126.921 147.99 130.295C148.031 130.399 148.073 130.504 148.116 130.611L148.116 130.611C150.259 135.977 149.739 140.478 148.186 145.082C147.426 147.332 146.43 149.579 145.362 151.986C145.321 152.079 145.279 152.173 145.238 152.267C144.135 154.753 142.974 157.395 142.016 160.251L142.014 160.257L141.987 160.331C141.963 160.396 141.928 160.491 141.884 160.616C141.794 160.866 141.663 161.234 141.499 161.706C141.169 162.651 140.703 164.017 140.153 165.706C139.054 169.084 137.62 173.764 136.281 178.967C134.943 184.166 133.693 189.91 132.971 195.414C132.251 200.896 132.039 206.241 132.84 210.6L134.315 210.329L132.84 210.6C134.421 219.199 137.741 223.923 141.843 227.535C143.612 229.092 145.523 230.44 147.415 231.773C147.664 231.949 147.913 232.124 148.161 232.3C150.316 233.825 152.465 235.397 154.551 237.386L156.968 235.716C156.128 233.73 155.586 230.76 155.449 227.677C155.313 224.594 155.591 221.606 156.251 219.586C157.653 215.295 159.754 211.5 165.245 209.366C168.217 208.211 170.271 207.706 172.343 207.778C174.428 207.849 176.688 208.51 180.052 209.992C181.586 210.668 184.058 212.287 187.257 214.687C190.42 217.059 194.192 220.116 198.295 223.579C206.499 230.504 215.976 239.015 224.458 246.846L224.468 246.855L224.479 246.864L225.476 245.744C224.479 246.864 224.479 246.864 224.479 246.864L224.479 246.865L224.481 246.866L224.486 246.871L224.508 246.89L224.591 246.964C224.664 247.029 224.772 247.123 224.911 247.245C225.188 247.488 225.592 247.84 226.099 248.276C227.112 249.148 228.537 250.357 230.189 251.709C233.48 254.401 237.718 257.696 241.392 260C243.146 261.1 244.768 261.842 246.235 262.513C246.513 262.64 246.787 262.765 247.054 262.89C248.741 263.674 250.27 264.463 251.867 265.787L251.867 265.787C253.203 266.894 254.643 268.562 255.781 270.01C256.342 270.723 256.814 271.364 257.146 271.825C257.311 272.055 257.441 272.24 257.529 272.367C257.573 272.43 257.606 272.478 257.628 272.51L257.653 272.546L257.658 272.554L257.659 272.556L257.659 272.556L257.679 272.585L257.7 272.613C263.056 279.786 266.87 285.368 269.311 291.545C271.739 297.687 272.843 304.511 272.596 314.175L272.594 314.236L272.597 314.297L275.547 367.016H190.782C190.826 366.727 190.873 366.406 190.923 366.057C191.163 364.367 191.452 362.01 191.644 359.338C192.025 354.046 192.047 347.318 190.446 342.105L189.012 342.545L190.446 342.105C186.54 329.386 176.384 322.963 164.846 317.548C162.073 316.246 159.223 315.002 156.343 313.744C147.097 309.707 137.534 305.532 129.172 298.874C124.735 295.341 120.662 292.339 116.965 289.614C116.329 289.145 115.704 288.685 115.091 288.231C110.896 285.13 107.237 282.362 104.039 279.461C97.7028 273.715 93.1648 267.443 90.1758 257.131C88.6819 251.977 87.1361 247.35 85.6667 242.951C81.0191 229.039 77.1359 217.416 78.0773 198.63C78.7747 191.065 80.7072 184.435 83.3932 177.154C84.5594 173.993 85.8615 170.725 87.2654 167.202C87.4839 166.654 87.7048 166.1 87.9281 165.538C89.5831 161.378 91.3595 156.865 93.1848 151.813L93.2202 151.716L93.2417 151.614C93.6765 149.557 93.9848 147.454 94.2819 145.429C94.3186 145.179 94.3551 144.93 94.3917 144.682C94.7278 142.406 95.0685 140.242 95.581 138.228C96.6013 134.22 98.2498 131.016 101.659 128.981L101.659 128.981C105.27 126.827 108.789 126.28 111.411 126.271C112.723 126.266 113.804 126.397 114.548 126.526C114.919 126.59 115.206 126.654 115.393 126.7C115.486 126.723 115.555 126.741 115.597 126.753C115.618 126.759 115.632 126.763 115.64 126.765L115.641 126.766Z" fill="#A0937D" stroke="black" stroke-width="3"/>
<path d="M116.083 125.332C117.819 124.84 130.345 136.412 128.238 144.22C126.132 152.029 122.161 170.191 122.161 170.191C122.161 170.191 115.888 188.758 116.083 200.885C116.264 212.101 117.397 218.628 122.161 229.217C128.138 242.503 146.47 259.91 146.47 259.91M116.083 125.332C116.083 125.332 108.675 123.048 100.89 127.693C93.1048 132.339 93.6801 142.285 91.7741 151.304C84.5064 171.416 78.0044 183.002 76.5807 198.524C75.3175 223.602 82.5876 236.338 88.7351 257.549C94.8831 278.76 107.542 283.568 128.238 300.047C150.538 317.803 181.601 318.414 189.012 342.545C192.041 352.411 189.012 368.516 189.012 368.516H277.133L274.095 314.213C274.596 294.603 269.621 286.07 258.902 271.715C258.902 271.715 255.751 267.057 252.824 264.632C249.333 261.739 246.161 261.22 242.189 258.729C235.006 254.225 225.476 245.744 225.476 245.744C208.494 230.066 187.495 211.633 180.657 208.62C173.818 205.607 170.78 205.607 164.702 207.968C158.625 210.329 156.3 214.606 154.825 219.121C153.35 223.636 153.715 231.875 155.586 236.3M116.083 125.332C117.574 125.889 124.4 129.624 122.161 125.332C119.922 121.041 125.403 116.54 131.277 115.888C134.992 115.476 140.393 118.249 140.393 118.249C140.393 118.249 142.926 120.02 144.273 121.343C147.27 124.289 148.077 126.469 149.509 130.055C154.134 141.637 147.171 149.593 143.431 160.747C143.431 160.747 131.277 193.802 134.315 210.329C137.354 226.856 146.905 228.026 155.586 236.3M155.586 236.3C174.573 253.818 204.205 281.159 204.205 281.159M164.702 219.121C164.556 222.008 167.665 227.348 170.703 229.217C173.742 231.086 180.521 227.653 185.973 222.134" stroke="black" stroke-width="3" stroke-linecap="round"/>
<path d="M264.97 249.613L277.134 234.75L289.297 249.613" stroke="black" stroke-width="3" stroke-linecap="round"/>
<path d="M177.799 102.647C172.742 101.763 169.588 102.463 163.608 105.032L149.417 209.978C154.418 204.472 157.601 201.58 166.446 198.053C174.983 197.64 178.627 198.222 183.475 200.438C192.038 196.834 194.197 193.556 203.342 193.282C210.203 193.077 223.209 193.282 223.209 193.282C223.209 193.282 235.88 193.306 243.076 195.667C250.272 198.029 277.133 209.978 277.133 209.978V200.438M177.799 102.647L179.475 92.7542L202.18 85.5987C209.712 83.6193 214.083 82.5639 223.209 81.1805C232.308 80.952 245.914 83.5657 245.914 83.5657C245.914 83.5657 255.108 85.933 260.105 88.336C267.832 93.7771 271.384 96.9342 277.133 102.647V195.667M177.799 102.647L166.446 190.897C181.062 184.411 188.763 180.553 209.018 176.586C222.319 174.498 229.775 174.298 243.076 176.586C262.501 181.667 266.58 187.152 277.133 195.667M277.133 195.667V200.438V195.667ZM277.133 200.438C277.133 200.438 265.492 193.885 257.267 190.897C250.844 188.564 247.079 187.456 240.238 186.127C223.89 182.952 205.91 185.207 207.193 185.207" fill="#FFF3E0"/>
<path d="M177.799 102.647C172.742 101.763 169.588 102.463 163.608 105.032L149.417 209.978C154.418 204.472 157.601 201.58 166.446 198.053C174.983 197.64 178.627 198.222 183.475 200.438C192.038 196.834 194.197 193.556 203.342 193.282C210.203 193.077 223.209 193.282 223.209 193.282C223.209 193.282 235.88 193.306 243.076 195.667C250.272 198.029 277.133 209.978 277.133 209.978V200.438M177.799 102.647L179.475 92.7542L202.18 85.5987C209.712 83.6193 214.083 82.5639 223.209 81.1805C232.308 80.952 245.914 83.5657 245.914 83.5657C245.914 83.5657 255.108 85.933 260.105 88.336C267.832 93.7771 271.384 96.9342 277.133 102.647V195.667M177.799 102.647L166.446 190.897C181.062 184.411 188.763 180.553 209.018 176.586C222.319 174.498 229.775 174.298 243.076 176.586C262.501 181.667 266.58 187.152 277.133 195.667M277.133 200.438V195.667M277.133 200.438C277.133 200.438 265.492 193.885 257.267 190.897C250.844 188.564 247.079 187.456 240.238 186.127C223.89 182.952 205.91 185.207 207.193 185.207" stroke="black" stroke-width="3" stroke-linecap="round"/>
<path d="M191.989 118.324C203.167 113.94 209.284 111.364 225.439 110.892H233.041H240.643C256.098 112.537 259.235 114.917 268.011 118.324" stroke="black" stroke-width="3" stroke-linecap="round"/>
<path d="M182.867 167.867C194.045 163.483 209.284 155.953 225.439 155.481H233.041H240.643C256.098 157.126 259.236 159.506 268.011 162.913" stroke="black" stroke-width="3" stroke-linecap="round"/>
<path d="M188.948 148.05C200.126 143.666 209.284 141.09 225.439 140.618H233.041H240.643C256.098 142.263 259.236 144.643 268.011 148.05" stroke="black" stroke-width="3" stroke-linecap="round"/>
<path d="M191.989 133.187C203.167 128.803 209.284 126.227 225.439 125.755H233.041H240.643C256.098 127.4 259.235 129.78 268.011 133.187" stroke="black" stroke-width="3" stroke-linecap="round"/>
<path d="M191.989 207.059C228.479 200.07 243.684 205.024 243.684 205.024C243.684 205.024 249.219 205.338 261.929 214.933C265.66 217.749 274.093 219.887 277.133 219.887" stroke="black" stroke-width="3" stroke-linecap="round"/>
<path d="M437.207 127.376C437.586 127.112 437.874 126.946 438.067 126.858L438.202 126.897L438.622 126.767L438.623 126.767L438.624 126.766L438.625 126.766L438.626 126.766L438.628 126.765C438.635 126.763 438.65 126.759 438.671 126.753C438.713 126.741 438.781 126.723 438.875 126.7C439.062 126.654 439.348 126.59 439.72 126.526C440.464 126.397 441.545 126.266 442.856 126.271C445.478 126.28 448.998 126.827 452.609 128.981C456.018 131.016 457.666 134.22 458.686 138.228C459.199 140.242 459.539 142.406 459.876 144.682C459.912 144.929 459.949 145.178 459.985 145.427C460.282 147.453 460.591 149.556 461.026 151.614L461.048 151.716L461.083 151.813C462.908 156.865 464.684 161.378 466.339 165.538C466.563 166.101 466.784 166.656 467.003 167.205C468.407 170.727 469.708 173.994 470.874 177.154C473.56 184.435 475.493 191.065 476.19 198.63C477.131 217.417 473.248 229.041 468.6 242.953C467.131 247.351 465.585 251.978 464.091 257.131C461.103 267.443 456.565 273.715 450.229 279.461C447.031 282.362 443.372 285.13 439.177 288.231C438.563 288.685 437.938 289.145 437.302 289.614C433.605 292.339 429.532 295.341 425.095 298.874C416.733 305.532 407.17 309.707 397.924 313.744C395.044 315.002 392.194 316.246 389.422 317.548C377.884 322.963 367.728 329.386 363.822 342.105C362.221 347.318 362.242 354.046 362.623 359.338C362.816 362.01 363.104 364.367 363.344 366.057C363.394 366.406 363.442 366.727 363.486 367.016H278.72L281.67 314.297L281.674 314.236L281.672 314.175C281.425 304.511 282.528 297.687 284.956 291.545C287.397 285.368 291.211 279.786 296.568 272.613L296.589 272.585L296.608 272.556L296.608 272.556L296.609 272.554L296.615 272.546L296.639 272.51C296.661 272.478 296.695 272.43 296.739 272.367C296.826 272.24 296.956 272.055 297.122 271.825C297.454 271.364 297.926 270.723 298.487 270.01C299.625 268.562 301.064 266.894 302.401 265.787L302.401 265.787C303.998 264.463 305.526 263.674 307.213 262.89C307.481 262.765 307.754 262.64 308.033 262.513C309.5 261.842 311.122 261.1 312.875 260C316.55 257.696 320.787 254.401 324.078 251.709C325.73 250.357 327.156 249.148 328.169 248.276C328.675 247.84 329.079 247.488 329.357 247.245C329.431 247.18 329.497 247.122 329.553 247.073C329.601 247.03 329.642 246.994 329.676 246.964L329.759 246.89L329.781 246.871L329.786 246.866L329.788 246.865L329.788 246.864C329.788 246.864 329.789 246.864 328.791 245.744L329.789 246.864L329.799 246.855L329.809 246.846C338.291 239.015 347.769 230.504 355.972 223.579C360.075 220.116 363.847 217.059 367.011 214.687C370.21 212.287 372.681 210.668 374.215 209.992C377.58 208.51 379.839 207.849 381.925 207.778C383.996 207.706 386.05 208.211 389.022 209.366C394.514 211.5 396.615 215.295 398.016 219.586C398.676 221.606 398.955 224.594 398.818 227.677C398.681 230.76 398.139 233.729 397.299 235.716L399.716 237.386C401.802 235.397 403.951 233.825 406.107 232.3C406.354 232.124 406.603 231.949 406.852 231.774C408.744 230.44 410.655 229.092 412.424 227.535C416.526 223.923 419.846 219.199 421.427 210.6C422.229 206.241 422.017 200.896 421.297 195.414C420.574 189.91 419.324 184.166 417.986 178.967C416.647 173.764 415.213 169.084 414.114 165.706C413.564 164.017 413.098 162.651 412.769 161.706C412.604 161.234 412.473 160.866 412.384 160.616C412.367 160.569 412.351 160.527 412.337 160.488C412.314 160.424 412.295 160.371 412.28 160.331L412.253 160.257L412.251 160.251C411.293 157.395 410.132 154.753 409.029 152.267L408.905 151.986C407.837 149.579 406.841 147.332 406.082 145.082C404.529 140.478 404.009 135.977 406.151 130.611C406.195 130.502 406.237 130.396 406.279 130.29C407.624 126.919 408.375 125.038 411.046 122.413L409.994 121.343L411.046 122.413C411.646 121.823 412.551 121.098 413.346 120.495C413.735 120.2 414.084 119.944 414.336 119.763C414.461 119.672 414.562 119.601 414.631 119.552L414.648 119.54C414.679 119.524 414.72 119.504 414.768 119.481C414.911 119.412 415.124 119.311 415.392 119.191C415.928 118.95 416.68 118.632 417.54 118.328C419.321 117.699 421.326 117.213 422.825 117.379C425.474 117.673 427.995 118.84 429.555 120.33C431.11 121.816 431.469 123.311 430.777 124.639C430.532 125.107 430.341 125.567 430.24 126.011C430.142 126.442 430.098 126.995 430.322 127.546C430.856 128.861 432.225 128.898 432.779 128.86C433.473 128.812 434.243 128.586 434.918 128.347C435.618 128.099 436.337 127.792 436.96 127.515L437.09 127.457L437.207 127.376Z" fill="#E2CBA5" stroke="black" stroke-width="3"/>
<path d="M438.184 125.332C436.449 124.84 423.923 136.412 426.029 144.22C428.135 152.029 432.107 170.191 432.107 170.191C432.107 170.191 438.379 188.758 438.184 200.885C438.004 212.101 436.871 218.628 432.107 229.217C426.129 242.503 407.797 259.91 407.797 259.91M438.184 125.332C438.184 125.332 445.592 123.048 453.378 127.693C461.162 132.339 460.587 142.285 462.494 151.304C469.761 171.416 476.263 183.002 477.687 198.524C478.95 223.602 471.68 236.338 465.532 257.549C459.385 278.76 446.726 283.568 426.029 300.047C403.729 317.803 372.667 318.414 365.256 342.545C362.226 352.411 365.256 368.516 365.256 368.516H277.134L280.173 314.213C279.671 294.603 284.646 286.07 295.366 271.715C295.366 271.715 298.517 267.057 301.443 264.632C304.934 261.739 308.107 261.22 312.079 258.729C319.262 254.225 328.791 245.744 328.791 245.744C345.773 230.066 366.772 211.633 373.611 208.62C380.449 205.607 383.487 205.607 389.565 207.968C395.642 210.329 397.967 214.606 399.442 219.121C400.917 223.636 400.552 231.875 398.681 236.3M438.184 125.332C436.694 125.889 429.868 129.624 432.107 125.332C434.345 121.041 428.865 116.54 422.991 115.888C419.275 115.476 413.875 118.249 413.875 118.249C413.875 118.249 411.341 120.02 409.994 121.343C406.997 124.289 406.191 126.469 404.758 130.055C400.134 141.637 407.096 149.593 410.836 160.747C410.836 160.747 422.991 193.802 419.952 210.329C416.913 226.856 407.363 228.026 398.681 236.3M398.681 236.3C379.694 253.818 350.062 281.159 350.062 281.159M389.565 219.121C389.712 222.008 386.603 227.926 383.564 229.796C380.526 231.665 373.746 227.653 368.294 222.134" stroke="black" stroke-width="3" stroke-linecap="round"/>
<path d="M362.278 207.059C325.787 200.07 310.583 205.024 310.583 205.024C310.583 205.024 305.048 205.338 292.338 214.933C288.607 217.749 280.174 219.887 277.134 219.887" stroke="black" stroke-width="3" stroke-linecap="round"/>
<path d="M376.469 102.647C381.525 101.763 384.68 102.463 390.66 105.032L404.85 209.978C399.849 204.472 396.667 201.58 387.821 198.053C379.284 197.64 375.64 198.222 370.792 200.438C362.229 196.834 360.071 193.556 350.926 193.282C344.065 193.077 331.059 193.282 331.059 193.282C331.059 193.282 318.388 193.306 311.191 195.667C303.995 198.029 277.134 209.978 277.134 209.978V200.438M376.469 102.647L374.793 92.7542L352.088 85.5987C344.555 83.6193 340.184 82.5639 331.059 81.1805C321.96 80.952 308.354 83.5657 308.354 83.5657C308.354 83.5657 299.16 85.933 294.162 88.336C286.435 93.7771 282.884 96.9342 277.134 102.647V195.667M376.469 102.647L387.821 190.897C373.205 184.411 365.505 180.553 345.249 176.586C331.949 174.498 324.492 174.298 311.191 176.586C291.766 181.667 287.687 187.152 277.134 195.667M277.134 195.667V200.438V195.667ZM277.134 200.438C277.134 200.438 288.775 193.885 297.001 190.897C303.424 188.564 307.189 187.456 314.03 186.127C330.377 182.952 352.209 186.127 350.926 186.127" fill="#FFF3E0"/>
<path d="M376.469 102.647C381.525 101.763 384.68 102.463 390.66 105.032L404.85 209.978C399.849 204.472 396.667 201.58 387.821 198.053C379.284 197.64 375.64 198.222 370.792 200.438C362.229 196.834 360.071 193.556 350.926 193.282C344.065 193.077 331.059 193.282 331.059 193.282C331.059 193.282 318.388 193.306 311.191 195.667C303.995 198.029 277.134 209.978 277.134 209.978V200.438M376.469 102.647L374.793 92.7542L352.088 85.5987C344.555 83.6193 340.184 82.5639 331.059 81.1805C321.96 80.952 308.354 83.5657 308.354 83.5657C308.354 83.5657 299.16 85.933 294.162 88.336C286.435 93.7771 282.884 96.9342 277.134 102.647V195.667M376.469 102.647L387.821 190.897C373.205 184.411 365.505 180.553 345.249 176.586C331.949 174.498 324.492 174.298 311.191 176.586C291.766 181.667 287.687 187.152 277.134 195.667M277.134 200.438V195.667M277.134 200.438C277.134 200.438 288.775 193.885 297.001 190.897C303.424 188.564 307.189 187.456 314.03 186.127C330.377 182.952 352.209 186.127 350.926 186.127" stroke="black" stroke-width="3" stroke-linecap="round"/>
<path d="M362.278 118.324C351.1 113.94 344.983 111.364 328.828 110.892H321.226H313.624C298.17 112.537 295.031 114.917 286.256 118.324" stroke="black" stroke-width="3" stroke-linecap="round"/>
<path d="M371.401 167.867C360.223 163.483 344.983 155.953 328.828 155.481H321.226H313.624C298.17 157.126 295.031 159.506 286.256 162.913" stroke="black" stroke-width="3" stroke-linecap="round"/>
<path d="M365.319 148.05C354.141 143.666 344.983 141.09 328.828 140.618H321.226H313.624C298.17 142.263 295.031 144.643 286.256 148.05" stroke="black" stroke-width="3" stroke-linecap="round"/>
<path d="M362.278 133.187C351.1 128.803 344.983 126.227 328.828 125.755H321.226H313.624C298.17 127.4 295.031 129.78 286.256 133.187" stroke="black" stroke-width="3" stroke-linecap="round"/>
<path d="M132.015 360.499C51.5217 313.143 9.39214 242.271 23.6494 176.404" stroke="black" stroke-width="3" stroke-linecap="round"/>
<path d="M124.932 351.062L124.932 351.062C124.793 349.248 124.003 345.621 123.128 341.726C122.995 341.133 122.859 340.531 122.722 339.924C121.942 336.466 121.127 332.853 120.571 329.881C120.413 329.033 120.278 328.249 120.172 327.545C120.712 328.48 121.351 329.664 122.099 331.134C127.555 341.846 128.623 348.621 128.432 352.6C128.336 354.584 127.927 355.883 127.584 356.647C127.51 356.812 127.438 356.954 127.372 357.073C126.956 357.054 126.391 357.027 125.697 356.994C124.111 356.916 121.854 356.8 119.171 356.646C113.802 356.337 106.734 355.873 99.9235 355.256C93.0931 354.637 86.5896 353.869 82.3158 352.961C80.8887 352.657 79.8123 352.357 79.0759 352.083C79.7818 351.829 80.7318 351.635 81.9426 351.523C83.6547 351.365 85.7282 351.383 88.0543 351.527C92.5094 351.802 97.7144 352.523 102.791 353.226C103.02 353.258 103.248 353.289 103.476 353.321C108.717 354.046 113.818 354.736 117.578 354.81C119.435 354.847 121.137 354.741 122.407 354.325C123.049 354.115 123.713 353.784 124.21 353.229C124.75 352.627 124.994 351.872 124.932 351.062ZM78.0408 351.561C78.0422 351.561 78.0523 351.569 78.0673 351.586C78.047 351.569 78.0395 351.561 78.0408 351.561ZM78.0846 352.591C78.0723 352.606 78.064 352.613 78.063 352.613C78.062 352.613 78.0682 352.605 78.0846 352.591Z" fill="white" stroke="black" stroke-width="3"/>
<path d="M54.3216 325.37C54.3447 325.441 54.3645 325.525 54.375 325.619C54.4069 325.906 54.3427 326.209 54.1788 326.469C54.1199 326.562 54.056 326.637 53.9948 326.697C54.0979 326.754 54.2077 326.812 54.324 326.871L54.3216 325.37ZM54.3216 325.37C54.4344 325.365 54.5512 325.361 54.6717 325.358L54.3216 325.37ZM96.1568 304.958L96.1568 304.958C97.3054 304.082 97.8878 304.18 98.1848 304.314C98.6437 304.52 99.2621 305.172 99.884 306.639C101.1 309.507 101.815 314.237 102.19 319.449C102.562 324.605 102.592 330.038 102.527 334.194C102.495 336.269 102.44 338.02 102.392 339.251C102.385 339.437 102.378 339.61 102.372 339.771C102.011 339.722 101.577 339.651 101.07 339.557C99.4291 339.253 97.1683 338.737 94.5005 338.067C89.1724 336.729 82.3084 334.8 75.7183 332.796C69.1217 330.79 62.8371 328.721 58.6556 327.103C58.5832 327.075 58.5116 327.047 58.4408 327.02C59.6504 327.122 61.0157 327.27 62.5027 327.457C66.5247 327.961 71.2458 328.722 75.7635 329.514C80.2781 330.306 84.5749 331.127 87.744 331.751C89.3283 332.062 90.6299 332.324 91.535 332.508C91.9876 332.6 92.3409 332.673 92.5809 332.722L92.8541 332.779L92.9235 332.793L92.9409 332.797L92.9452 332.798L92.9462 332.798C92.9464 332.798 92.9464 332.798 93.2526 331.33L92.9464 332.798L95.9086 333.416L94.6071 330.685L94.607 330.685L94.6067 330.684L94.6067 330.684L94.6034 330.677L94.5875 330.643C94.5729 330.612 94.5503 330.563 94.5207 330.497C94.4614 330.365 94.3739 330.167 94.2653 329.909C94.048 329.394 93.7468 328.643 93.418 327.713C92.7586 325.849 91.9973 323.292 91.5716 320.497C90.7063 314.817 91.2871 308.674 96.1568 304.958Z" fill="white" stroke="black" stroke-width="3"/>
<path d="M27.5836 292.991L27.5836 292.991C26.7181 291.798 26.1616 290.883 25.8445 290.205C25.7646 290.034 25.7058 289.891 25.6625 289.772C25.8721 289.797 26.1455 289.846 26.4919 289.933C27.9476 290.302 30.0517 291.179 32.6159 292.451C35.1557 293.71 38.0629 295.313 41.0977 297.078C47.1661 300.608 53.6882 304.756 58.7006 308.026C60.2346 309.027 61.6258 309.944 62.8178 310.736C60.1775 310.506 56.7265 310.032 52.9234 309.07C44.4765 306.934 34.4358 302.429 27.5836 292.991ZM25.1543 289.767C25.1543 289.767 25.1549 289.767 25.1564 289.767L25.1543 289.767ZM68.5496 307.684C68.5208 307.531 68.4918 307.376 68.4627 307.217C67.9211 304.269 67.3371 300.325 67.1528 296.302C66.9673 292.254 67.1936 288.249 68.1942 285.117C69.1879 282.007 70.8452 280.015 73.4005 279.396C74.7502 279.069 75.286 279.355 75.5331 279.593C75.8703 279.919 76.2004 280.649 76.2652 282.064C76.3932 284.858 75.4406 289.042 74.0018 293.545C72.5812 297.991 70.7532 302.551 69.2743 306.01C69.0209 306.603 68.778 307.163 68.5496 307.684Z" fill="white" stroke="black" stroke-width="3"/>
<path d="M20.0895 264.235L20.0896 264.235C28.8238 268.339 33.6243 271.418 36.2384 273.638L39.4006 276.324L38.687 272.237C38.3262 270.17 39.2714 266.306 44.4683 259.478C46.6025 256.674 48.1634 255.19 49.2332 254.567C49.7549 254.264 50.029 254.243 50.1171 254.249L50.1206 254.249C50.1551 254.251 50.2091 254.254 50.3207 254.385C50.4669 254.556 50.6545 254.892 50.8251 255.48C50.9917 256.055 51.118 256.786 51.1981 257.664C51.3585 259.422 51.3217 261.625 51.1471 264.06C50.7984 268.921 49.916 274.509 49.1142 278.906C48.7145 281.098 48.3367 282.984 48.0589 284.321C47.8567 284.189 47.6395 284.046 47.4083 283.895C45.8529 282.875 43.665 281.434 41.1357 279.751C36.0746 276.382 29.6569 272.047 24.2065 268.168C21.48 266.228 19.008 264.41 17.0734 262.89C17.0433 262.866 17.0133 262.843 16.9835 262.819C17.884 263.214 18.9157 263.683 20.0895 264.235Z" fill="white" stroke="black" stroke-width="3"/>
<path d="M34.4232 228.63L34.4234 228.63C34.4284 228.63 34.4335 228.631 34.4387 228.632C34.5177 228.642 34.6035 228.653 34.7162 228.968C34.8714 229.403 34.9434 230.155 34.8424 231.27C34.6435 233.464 33.8432 236.417 32.8144 239.46C31.7948 242.475 30.5871 245.475 29.6307 247.727C29.3416 248.408 29.076 249.02 28.8464 249.541C28.2023 248.921 27.3838 248.131 26.448 247.219C26.3129 247.088 26.1755 246.954 26.0358 246.817L26.245 243.424C26.2627 243.138 26.4787 241.98 26.9438 240.307C27.3948 238.684 28.044 236.706 28.8638 234.824C29.6921 232.922 30.6538 231.214 31.6958 230.055C32.7511 228.881 33.6495 228.518 34.4232 228.63ZM18.1759 238.95C15.6361 236.328 13.2465 233.757 11.5685 231.735C11.7642 231.886 11.9639 232.045 12.1673 232.211C13.8467 233.583 15.6728 235.373 17.3768 237.172C19.0755 238.966 20.6271 240.742 21.7557 242.072C22.3193 242.736 22.776 243.287 23.0911 243.671C23.2486 243.863 23.3707 244.013 23.4529 244.115L23.5458 244.23L23.5688 244.259L23.5743 244.266L23.5755 244.267L23.5757 244.267L23.5757 244.267L24.0739 244.891C22.2238 243.065 20.1632 241.002 18.1759 238.95Z" fill="white" stroke="black" stroke-width="3"/>
<path d="M20.6786 215.13C20.0001 214.383 19.0619 213.344 17.9712 212.122C17.8375 211.972 17.7017 211.82 17.5637 211.665L18.2271 210.075L18.2272 210.075L18.2274 210.075L18.2274 210.075L18.2296 210.069L18.2408 210.043C18.2512 210.019 18.2676 209.981 18.2898 209.93C18.3342 209.828 18.402 209.675 18.4926 209.478C18.6738 209.083 18.9458 208.51 19.3038 207.812C20.0209 206.412 21.077 204.52 22.4324 202.544C25.1904 198.523 28.9897 194.45 33.4663 193.14L20.6786 215.13ZM20.6786 215.13C21.3302 214.342 22.2318 213.24 23.2707 211.935C25.4105 209.246 28.1183 205.717 30.4236 202.316C32.7754 198.847 34.5575 195.723 35.0414 193.782C35.1674 193.277 35.168 193.011 35.1541 192.889C35.1114 192.882 35.053 192.876 34.9755 192.875C34.6686 192.868 34.1824 192.931 33.4664 193.14L20.6786 215.13ZM35.2525 192.913C35.2525 192.913 35.2514 192.912 35.2493 192.911C35.2515 192.912 35.2526 192.913 35.2525 192.913ZM11.993 204.733C12.7072 205.715 13.334 206.644 13.8539 207.449C12.6311 206.041 11.3812 204.58 10.1936 203.157C8.75521 201.433 7.43278 199.795 6.36544 198.386C8.47541 200.232 10.4186 202.57 11.993 204.733ZM4.51002 195.148L4.3248 195.454C4.3204 195.447 4.31602 195.44 4.31166 195.432L4.51002 195.148Z" fill="white" stroke="black" stroke-width="3"/>
<path d="M27.8451 167.022C27.8437 166.707 27.8422 166.372 27.8422 166.015C27.8422 160.945 26.2533 158.094 23.7183 153.546C23.2456 152.698 22.74 151.79 22.2057 150.799L27.8451 167.022ZM27.8451 167.022C27.8546 169.106 27.8601 170.312 27.3924 171.511M27.8451 167.022L27.3924 171.511M27.3924 171.511C26.9283 172.701 25.9209 174.009 23.4261 175.964M27.3924 171.511L23.4261 175.964M23.4261 175.964C23.1346 175.782 22.7783 175.555 22.3748 175.286C21.2238 174.521 19.7041 173.434 18.2103 172.14C16.7087 170.839 15.2815 169.371 14.274 167.85C13.2829 166.353 12.7839 164.938 12.8628 163.651C13.6273 160.216 15.7261 155.606 17.9968 152.621C19.176 151.071 20.2115 150.215 20.9296 149.975C21.2281 149.875 21.3832 149.909 21.4868 149.958C21.6188 150.019 21.8886 150.21 22.2057 150.799L23.4261 175.964Z" fill="white" stroke="black" stroke-width="3"/>
<path d="M68.0378 312.434C68.0378 312.434 86.0823 274.78 73.0473 277.938C60.0123 281.097 68.0378 312.434 68.0378 312.434ZM68.0378 312.434C68.0378 312.434 40.6414 313.529 26.3698 293.872C12.0985 274.215 68.0378 312.434 68.0378 312.434ZM27.9457 243.791C27.9457 243.791 24.6022 245.698 24.7482 243.331L27.9457 243.791ZM24.7482 243.331C24.8617 241.491 28.6469 226.284 34.6368 227.145C40.6268 228.005 29.3421 252.09 29.3421 252.09C29.3421 252.09 3.63407 227.722 8.51983 228.424C13.4057 229.125 24.7482 243.331 24.7482 243.331ZM19.3091 212.366L16.8431 209.497L19.3091 212.366ZM16.8431 209.497C16.8431 209.497 11.2546 199.223 4.51002 195.148C-5.02798 189.385 20.7275 217.41 20.7275 217.41C20.7275 217.41 45.7889 187.973 33.0453 191.7C23.0486 194.624 16.8431 209.497 16.8431 209.497ZM128.131 358.608C128.131 358.608 134.494 352.164 123.436 330.453C112.379 308.742 122.922 344.466 123.436 351.176C123.95 357.886 85.5587 346.222 77.4943 351.176C69.4299 356.131 128.131 358.608 128.131 358.608ZM93.2527 331.329C93.2527 331.329 84.1508 312.233 95.2469 303.766C106.343 295.298 103.804 341.268 103.804 341.268C101.867 342.683 46.4494 326.365 53.503 325.439C60.556 324.512 93.2527 331.329 93.2527 331.329ZM49.0682 286.77C49.0682 286.77 -10.1019 248.387 20.7277 262.877C51.5575 277.367 35.0024 279.742 43.2748 277.938C51.386 276.17 26.0157 281.244 43.2748 258.569C60.5329 235.895 49.0682 286.77 49.0682 286.77ZM23.5261 177.775C29.8079 173.089 29.3421 171.131 29.3421 166.015C29.3421 159.526 26.836 156.23 23.5261 150.087C20.2161 143.945 12.9579 156.116 11.3745 163.434C10.7821 170.552 23.5261 177.775 23.5261 177.775Z" fill="#B6C7AA"/>
<path d="M68.0378 312.434C68.0378 312.434 86.0823 274.78 73.0473 277.938C60.0123 281.097 68.0378 312.434 68.0378 312.434ZM68.0378 312.434C68.0378 312.434 40.6414 313.529 26.3698 293.872C12.0985 274.215 68.0378 312.434 68.0378 312.434ZM27.9457 243.791C27.9457 243.791 24.6022 245.698 24.7482 243.331M24.7482 243.331C24.8617 241.491 28.6469 226.284 34.6368 227.145C40.6268 228.005 29.3421 252.09 29.3421 252.09C29.3421 252.09 3.63407 227.722 8.51983 228.424C13.4057 229.125 24.7482 243.331 24.7482 243.331ZM19.3091 212.366L16.8431 209.497M16.8431 209.497C16.8431 209.497 11.2546 199.223 4.51002 195.148C-5.02798 189.385 20.7275 217.41 20.7275 217.41C20.7275 217.41 45.7889 187.973 33.0453 191.7C23.0486 194.624 16.8431 209.497 16.8431 209.497ZM128.131 358.608C128.131 358.608 134.494 352.164 123.436 330.453C112.379 308.742 122.922 344.466 123.436 351.176C123.95 357.886 85.5587 346.222 77.4943 351.176C69.4299 356.131 128.131 358.608 128.131 358.608ZM93.2527 331.329C93.2527 331.329 84.1508 312.233 95.2469 303.766C106.343 295.298 103.804 341.268 103.804 341.268C101.867 342.683 46.4494 326.365 53.503 325.439C60.556 324.512 93.2527 331.329 93.2527 331.329ZM49.0682 286.77C49.0682 286.77 -10.1019 248.387 20.7277 262.877C51.5575 277.367 35.0024 279.742 43.2748 277.938C51.386 276.17 26.0157 281.244 43.2748 258.569C60.5329 235.895 49.0682 286.77 49.0682 286.77ZM23.5261 177.775C29.8079 173.089 29.3421 171.131 29.3421 166.015C29.3421 159.526 26.836 156.23 23.5261 150.087C20.2161 143.945 12.9579 156.116 11.3745 163.434C10.7821 170.552 23.5261 177.775 23.5261 177.775Z" stroke="black" stroke-width="3" stroke-linecap="round"/>
<path d="M431.241 347.51C432.403 342.765 434.304 332.601 434.495 326.364C434.543 324.799 434.478 323.59 434.31 322.807C434.306 322.788 434.302 322.769 434.298 322.751C434.114 322.926 433.891 323.168 433.627 323.496C432.764 324.568 431.639 326.336 430.214 329.001C424.566 339.566 423.841 346.886 424.409 351.451C424.694 353.74 425.308 355.371 425.827 356.405C426.009 356.77 426.181 357.061 426.323 357.282C426.735 357.264 427.299 357.238 427.992 357.205C429.556 357.13 431.78 357.019 434.417 356.874C439.694 356.585 446.62 356.16 453.231 355.62C459.861 355.078 466.109 354.425 470.063 353.684C470.408 353.62 470.733 353.555 471.036 353.49C468.893 353.126 466.051 353.052 462.757 353.146C459.99 353.224 457.054 353.413 454.101 353.602C452.273 353.72 450.438 353.838 448.632 353.93C444.011 354.167 439.569 354.238 436.405 353.592C434.838 353.272 433.345 352.733 432.327 351.74C431.193 350.632 430.838 349.153 431.241 347.51ZM431.241 347.51L432.697 347.867L431.241 347.51ZM473.617 354.254C473.617 354.254 473.613 354.251 473.606 354.246C473.614 354.251 473.618 354.254 473.617 354.254ZM473.608 352.705C473.61 352.704 473.611 352.703 473.613 352.702C473.617 352.698 473.619 352.697 473.619 352.697C473.62 352.697 473.617 352.699 473.612 352.702C473.611 352.703 473.61 352.704 473.608 352.705ZM434.764 322.392C434.764 322.392 434.763 322.393 434.76 322.394C434.763 322.392 434.764 322.392 434.764 322.392Z" fill="white" stroke="black" stroke-width="3"/>
<path d="M457.71 328.927L457.71 328.927L456.344 331.65L459.336 331.072L459.051 329.599C459.336 331.072 459.336 331.072 459.336 331.071L459.337 331.071L459.341 331.07L459.359 331.067L459.429 331.054L459.703 331.001C459.944 330.955 460.299 330.888 460.753 330.802C461.662 330.631 462.969 330.387 464.56 330.098C467.742 329.52 472.056 328.76 476.587 328.033C481.121 327.305 485.858 326.611 489.89 326.164C491.623 325.972 493.189 325.83 494.537 325.747C490.918 327.181 485.447 328.987 479.666 330.729C473.822 332.49 467.706 334.172 462.943 335.322C460.557 335.898 458.535 336.334 457.065 336.582C456.585 336.663 456.181 336.721 455.851 336.757C455.816 336.549 455.779 336.315 455.738 336.058C455.546 334.858 455.284 333.151 455.004 331.13C454.442 327.081 453.809 321.792 453.515 316.785C453.217 311.716 453.282 307.145 454.012 304.416C454.397 302.981 454.842 302.534 455.034 302.442L455.034 302.441C455.067 302.426 455.493 302.22 456.718 303.188C461.5 306.967 461.952 313.111 460.964 318.782C460.478 321.571 459.662 324.116 458.963 325.972C458.614 326.897 458.297 327.644 458.068 328.156C457.954 328.412 457.863 328.609 457.8 328.74C457.769 328.805 457.746 328.854 457.73 328.886L457.714 328.919L457.71 328.926L457.71 328.926L457.71 328.927ZM455.038 336.801C454.998 336.797 455.005 336.794 455.044 336.802C455.042 336.801 455.04 336.801 455.038 336.801Z" fill="white" stroke="black" stroke-width="3"/>
<path d="M486.988 291.822C487.397 298.275 486.49 305.111 485.947 308.44C485.724 308.585 485.517 308.719 485.327 308.843C484.885 307.822 484.268 306.368 483.568 304.633C482.164 301.154 480.434 296.569 479.109 292.104C477.767 287.582 476.904 283.385 477.092 280.594C477.187 279.181 477.533 278.451 477.881 278.127C478.139 277.887 478.685 277.611 480.024 277.956C482.279 278.538 483.892 280.162 485.028 282.632C486.177 285.131 486.769 288.364 486.988 291.822ZM490.192 309.275C496.45 305.27 507.732 298.212 516.641 293.539C519.139 292.229 521.426 291.119 523.35 290.318C525.243 289.531 526.648 289.102 527.518 289.011C527.447 289.192 527.342 289.422 527.188 289.706C526.84 290.351 526.302 291.173 525.53 292.194C518.458 301.559 508.894 305.835 501.026 307.765C497.095 308.73 493.61 309.103 491.111 309.235C490.787 309.253 490.481 309.266 490.192 309.275Z" fill="white" stroke="black" stroke-width="3"/>
<path d="M533.649 263.556L533.032 262.189L533.649 263.556C535.724 262.619 537.395 261.913 538.712 261.404C537.142 262.721 535.052 264.319 532.699 266.043C527.997 269.486 522.317 273.373 517.804 276.404C515.55 277.919 513.59 279.217 512.194 280.137C511.974 280.282 511.768 280.418 511.578 280.543C511.556 280.479 511.533 280.413 511.511 280.346C511.081 279.079 510.487 277.294 509.825 275.223C508.499 271.073 506.916 265.808 505.856 261.272C505.324 259 504.935 256.953 504.768 255.339C504.685 254.531 504.662 253.872 504.695 253.369C504.7 253.289 504.706 253.216 504.713 253.149C504.759 253.181 504.809 253.218 504.862 253.259C505.821 253.994 507.284 255.596 509.371 258.447C514.319 265.21 515.461 269.425 515.236 271.99L514.871 276.129L517.795 273.177C520.232 270.717 524.9 267.503 533.649 263.556Z" fill="white" stroke="black" stroke-width="3"/>
<path d="M520.083 227.751L520.083 227.751C520.858 227.651 521.745 228.026 522.772 229.211C523.787 230.382 524.712 232.103 525.499 234.016C526.278 235.908 526.885 237.894 527.301 239.523C527.73 241.202 527.921 242.363 527.932 242.649L528.09 246.556L530.586 243.546L530.586 243.546L530.586 243.546L530.587 243.544L530.593 243.538L530.617 243.509L530.712 243.395C530.796 243.295 530.922 243.146 531.083 242.956C531.407 242.577 531.875 242.032 532.453 241.376C533.61 240.063 535.2 238.309 536.937 236.539C538.679 234.764 540.544 233 542.253 231.651C542.661 231.329 543.055 231.035 543.43 230.774C541.944 232.635 539.747 235.038 537.387 237.498C534.76 240.236 531.977 242.997 529.848 245.077C528.983 245.923 528.226 246.655 527.633 247.226C527.339 246.705 526.989 246.078 526.604 245.372C525.45 243.259 523.982 240.446 522.703 237.62C521.411 234.766 520.364 232.007 519.987 229.969C519.794 228.926 519.816 228.267 519.92 227.923C519.947 227.832 519.973 227.789 519.984 227.773C519.998 227.768 520.028 227.758 520.083 227.751ZM546.21 229.398C546.209 229.399 546.199 229.4 546.18 229.4C546.201 229.398 546.21 229.398 546.21 229.398ZM545.155 228.198C545.159 228.171 545.164 228.156 545.165 228.155C545.166 228.155 545.164 228.168 545.155 228.198ZM519.99 227.766C519.99 227.766 519.989 227.767 519.988 227.768C519.989 227.767 519.99 227.766 519.99 227.766ZM519.979 227.776C519.976 227.778 519.974 227.779 519.973 227.779C519.973 227.779 519.975 227.778 519.979 227.776Z" fill="white" stroke="black" stroke-width="3"/>
<path d="M551.507 194.305C551.507 194.304 551.507 194.315 551.502 194.34C551.504 194.318 551.506 194.306 551.507 194.305ZM543.013 204.183C544.991 201.571 547.524 198.704 550.22 196.793C549.21 198.379 547.721 200.424 546.026 202.624C543.663 205.689 540.995 208.937 538.913 211.422C537.933 212.593 537.085 213.592 536.462 214.322C535.756 213.524 534.766 212.394 533.618 211.051C531.304 208.343 528.361 204.787 525.819 201.363C523.231 197.878 521.203 194.719 520.548 192.749C520.437 192.415 520.384 192.167 520.364 191.993C520.653 191.998 521.115 192.07 521.799 192.281C526.242 193.653 529.951 197.775 532.622 201.834C533.935 203.828 534.95 205.735 535.636 207.144C535.979 207.847 536.239 208.423 536.412 208.821C536.498 209.019 536.562 209.173 536.605 209.275C536.626 209.326 536.641 209.365 536.651 209.389L536.662 209.416L536.664 209.421L536.664 209.421L536.664 209.421L536.664 209.422L537.811 212.337L539.363 209.615L539.363 209.614L539.363 209.614L539.363 209.614L539.365 209.61L539.376 209.592C539.386 209.575 539.401 209.548 539.422 209.513C539.463 209.442 539.525 209.336 539.608 209.198C539.774 208.923 540.02 208.521 540.337 208.025C540.973 207.032 541.889 205.668 543.013 204.183ZM520.118 192.013C520.118 192.013 520.119 192.012 520.123 192.011C520.119 192.012 520.118 192.013 520.118 192.013Z" fill="white" stroke="black" stroke-width="3"/>
<path d="M535.975 174.631C536.105 174.523 536.247 174.403 536.399 174.271C537.195 173.582 538.248 172.595 539.282 171.403C541.389 168.976 543.16 165.996 543.022 163.081C542.332 159.636 540.333 154.999 538.127 151.983C536.982 150.417 535.967 149.55 535.258 149.301C534.965 149.197 534.808 149.228 534.701 149.276C534.564 149.338 534.287 149.528 533.957 150.114L533.957 150.114C533.063 151.696 532.121 153.096 531.266 154.365L531.265 154.367C530.397 155.654 529.636 156.784 529.028 157.908C527.851 160.084 527.297 162.139 527.953 164.869L535.975 174.631ZM535.975 174.631C535.909 174.581 535.844 174.53 535.779 174.481C533.276 172.553 531.667 171.314 530.502 170.042C529.265 168.692 528.537 167.302 527.953 164.869L535.975 174.631Z" fill="white" stroke="black" stroke-width="3"/>
<path d="M526.224 243.002C526.224 243.002 529.527 244.957 529.431 242.589L526.224 243.002ZM529.431 242.589C529.357 240.747 525.898 225.489 519.891 226.264C513.883 227.039 527.287 249.633 527.287 249.633C527.287 249.633 550.877 227.282 545.977 227.914C541.077 228.546 529.431 242.589 529.431 242.589ZM535.533 211.705L538.06 208.872L535.533 211.705ZM538.06 208.872C538.06 208.872 543.868 198.679 550.699 194.7C560.359 189.074 536.484 216.599 536.484 216.599C536.484 216.599 509.58 186.94 522.241 190.848C532.174 193.914 538.06 208.872 538.06 208.872ZM425.59 358.816C425.59 358.816 417.371 349.845 428.892 328.294C440.412 306.743 435.042 338.295 432.697 347.867C430.352 357.439 463.682 348.886 473.645 352.616C483.607 356.347 425.59 358.816 425.59 358.816ZM459.052 329.599C459.052 329.599 468.562 310.635 457.648 302.011C446.735 293.387 454.572 338.204 454.572 338.204C456.48 339.646 505.955 325.301 498.922 324.275C491.889 323.248 459.052 329.599 459.052 329.599ZM484.668 311.065C484.668 311.065 467.433 273.16 480.398 276.504C493.363 279.847 487.058 310.757 487.058 310.757C487.058 310.757 512.037 312.55 526.727 293.099C541.417 273.647 484.668 311.065 484.668 311.065ZM510.787 282.854C510.787 282.854 564.168 248.139 533.032 262.189C501.897 276.238 520.092 281.889 511.859 279.969C503.786 278.085 527.352 280.478 510.582 257.561C493.811 234.645 510.787 282.854 510.787 282.854ZM535.987 176.534C529.807 171.759 527.756 170.471 526.494 165.219C524.965 158.85 529.21 155.47 532.651 149.376C536.092 143.282 543.088 155.554 544.515 162.894C544.954 170.019 535.987 176.534 535.987 176.534Z" fill="#B6C7AA"/>
<path d="M526.224 243.002C526.224 243.002 529.527 244.957 529.431 242.589M529.431 242.589C529.357 240.747 525.898 225.489 519.891 226.264C513.883 227.039 527.287 249.633 527.287 249.633C527.287 249.633 550.877 227.282 545.977 227.914C541.077 228.546 529.431 242.589 529.431 242.589ZM535.533 211.705L538.06 208.872M538.06 208.872C538.06 208.872 543.868 198.679 550.699 194.7C560.359 189.074 536.484 216.599 536.484 216.599C536.484 216.599 509.58 186.94 522.241 190.848C532.174 193.914 538.06 208.872 538.06 208.872ZM425.59 358.816C425.59 358.816 417.371 349.845 428.892 328.294C440.412 306.743 435.042 338.295 432.697 347.867C430.352 357.439 463.682 348.886 473.645 352.616C483.607 356.347 425.59 358.816 425.59 358.816ZM459.052 329.599C459.052 329.599 468.562 310.635 457.648 302.011C446.735 293.387 454.572 338.204 454.572 338.204C456.48 339.646 505.955 325.301 498.922 324.275C491.889 323.248 459.052 329.599 459.052 329.599ZM484.668 311.065C484.668 311.065 467.433 273.16 480.398 276.504C493.363 279.847 487.058 310.757 487.058 310.757C487.058 310.757 512.037 312.55 526.727 293.099C541.417 273.647 484.668 311.065 484.668 311.065ZM510.787 282.854C510.787 282.854 564.168 248.139 533.032 262.189C501.897 276.238 520.092 281.889 511.859 279.969C503.786 278.085 527.352 280.478 510.582 257.561C493.811 234.645 510.787 282.854 510.787 282.854ZM535.987 176.534C529.807 171.759 527.756 170.471 526.494 165.219C524.965 158.85 529.21 155.47 532.651 149.376C536.092 143.282 543.088 155.554 544.515 162.894C544.954 170.019 535.987 176.534 535.987 176.534Z" stroke="black" stroke-width="3" stroke-linecap="round"/>
<path d="M421.687 359.454C503.182 313.251 546.824 242.988 533.98 176.928" stroke="black" stroke-width="3" stroke-linecap="round"/>
<path d="M24.5581 396.073V399.745H9.6036V396.073H24.5581ZM34.3729 415V380.818H38.5121V411.328H54.4013V415H34.3729ZM63.1604 415V380.818H83.7897V384.49H67.2996V396.04H82.7215V399.712H67.2996V411.328H84.0567V415H63.1604ZM95.0022 415H90.6627L103.214 380.818H107.487L120.038 415H115.698L105.484 386.226H105.217L95.0022 415ZM96.6045 401.648H114.096V405.32H96.6045V401.648ZM127.712 415V380.818H139.262C141.932 380.818 144.124 381.274 145.838 382.187C147.551 383.088 148.82 384.329 149.643 385.909C150.466 387.489 150.878 389.286 150.878 391.3C150.878 393.314 150.466 395.1 149.643 396.657C148.82 398.215 147.557 399.439 145.854 400.329C144.152 401.208 141.977 401.648 139.328 401.648H129.982V397.909H139.195C141.02 397.909 142.488 397.642 143.601 397.108C144.725 396.574 145.537 395.817 146.038 394.838C146.55 393.848 146.806 392.668 146.806 391.3C146.806 389.931 146.55 388.735 146.038 387.711C145.526 386.688 144.708 385.898 143.584 385.341C142.461 384.774 140.975 384.49 139.128 384.49H131.851V415H127.712ZM143.801 399.645L152.213 415H147.407L139.128 399.645H143.801ZM187.231 380.818V415H183.225L164.598 388.162H164.265V415H160.125V380.818H164.131L182.824 407.723H183.158V380.818H187.231ZM202.002 380.818V415H197.863V380.818H202.002ZM239.757 380.818V415H235.751L217.125 388.162H216.791V415H212.652V380.818H216.657L235.35 407.723H235.684V380.818H239.757ZM273.756 391.5C273.389 390.376 272.905 389.369 272.304 388.479C271.714 387.578 271.007 386.81 270.184 386.176C269.372 385.542 268.448 385.058 267.413 384.724C266.379 384.39 265.244 384.223 264.009 384.223C261.984 384.223 260.142 384.746 258.484 385.792C256.826 386.838 255.508 388.379 254.529 390.415C253.549 392.451 253.06 394.949 253.06 397.909C253.06 400.869 253.555 403.367 254.545 405.403C255.535 407.439 256.876 408.98 258.568 410.026C260.259 411.072 262.162 411.595 264.276 411.595C266.234 411.595 267.959 411.178 269.45 410.343C270.952 409.498 272.12 408.307 272.955 406.772C273.8 405.225 274.223 403.406 274.223 401.314L275.492 401.581H265.21V397.909H278.229V401.581C278.229 404.396 277.628 406.844 276.426 408.925C275.236 411.005 273.589 412.619 271.486 413.765C269.394 414.9 266.991 415.467 264.276 415.467C261.249 415.467 258.59 414.755 256.298 413.331C254.017 411.907 252.236 409.882 250.957 407.256C249.688 404.63 249.054 401.514 249.054 397.909C249.054 395.205 249.416 392.774 250.139 390.615C250.873 388.446 251.908 386.599 253.243 385.074C254.579 383.55 256.159 382.382 257.983 381.569C259.808 380.757 261.817 380.351 264.009 380.351C265.811 380.351 267.491 380.623 269.049 381.169C270.618 381.703 272.014 382.465 273.238 383.455C274.473 384.434 275.503 385.608 276.326 386.977C277.149 388.334 277.717 389.842 278.029 391.5H273.756ZM303.237 415V380.818H323.733V384.49H307.376V396.04H322.197V399.712H307.376V415H303.237ZM362.013 397.909C362.013 401.514 361.362 404.63 360.06 407.256C358.758 409.882 356.972 411.907 354.702 413.331C352.432 414.755 349.84 415.467 346.925 415.467C344.009 415.467 341.417 414.755 339.147 413.331C336.877 411.907 335.091 409.882 333.789 407.256C332.487 404.63 331.837 401.514 331.837 397.909C331.837 394.304 332.487 391.188 333.789 388.562C335.091 385.937 336.877 383.911 339.147 382.487C341.417 381.063 344.009 380.351 346.925 380.351C349.84 380.351 352.432 381.063 354.702 382.487C356.972 383.911 358.758 385.937 360.06 388.562C361.362 391.188 362.013 394.304 362.013 397.909ZM358.007 397.909C358.007 394.949 357.512 392.451 356.522 390.415C355.542 388.379 354.213 386.838 352.533 385.792C350.863 384.746 348.994 384.223 346.925 384.223C344.855 384.223 342.98 384.746 341.3 385.792C339.631 386.838 338.301 388.379 337.311 390.415C336.332 392.451 335.842 394.949 335.842 397.909C335.842 400.869 336.332 403.367 337.311 405.403C338.301 407.439 339.631 408.98 341.3 410.026C342.98 411.072 344.855 411.595 346.925 411.595C348.994 411.595 350.863 411.072 352.533 410.026C354.213 408.98 355.542 407.439 356.522 405.403C357.512 403.367 358.007 400.869 358.007 397.909ZM371.323 415V380.818H382.872C385.543 380.818 387.735 381.274 389.448 382.187C391.162 383.088 392.43 384.329 393.254 385.909C394.077 387.489 394.489 389.286 394.489 391.3C394.489 393.314 394.077 395.1 393.254 396.657C392.43 398.215 391.167 399.439 389.465 400.329C387.763 401.208 385.587 401.648 382.939 401.648H373.592V397.909H382.805C384.63 397.909 386.099 397.642 387.212 397.108C388.336 396.574 389.148 395.817 389.649 394.838C390.16 393.848 390.416 392.668 390.416 391.3C390.416 389.931 390.16 388.735 389.649 387.711C389.137 386.688 388.319 385.898 387.195 385.341C386.071 384.774 384.586 384.49 382.739 384.49H375.462V415H371.323ZM387.412 399.645L395.824 415H391.017L382.739 399.645H387.412ZM419.305 415V380.818H423.444V411.328H439.333V415H419.305ZM452.231 380.818V415H448.092V380.818H452.231ZM462.881 415V380.818H483.376V384.49H467.02V396.04H481.841V399.712H467.02V415H462.881ZM492.816 415V380.818H513.445V384.49H496.955V396.04H512.377V399.712H496.955V411.328H513.712V415H492.816ZM537.409 396.073V399.745H522.454V396.073H537.409Z" fill="black"/>
<path d="M37.7546 122.459L12.4339 96.36L30.5499 83.9731L33.2699 86.7767L18.7888 96.6782L27.3444 105.497L40.8875 96.2369L43.6075 99.0405L30.0644 108.301L38.6695 117.17L53.3852 107.108L56.1051 109.912L37.7546 122.459Z" fill="black"/>
<path d="M39.5366 78.6046L44.136 76.0616L73.5677 93.842L73.9407 93.6358L66.139 63.8963L70.7385 61.3533L93.1661 89.977L89.5611 91.9702L72.5214 70.2229L72.2106 70.3947L79.3055 97.6404L75.8248 99.5649L48.8402 83.316L48.5294 83.4878L65.5692 105.235L61.9642 107.228L39.5366 78.6046Z" fill="black"/>
<path d="M99.5412 88.3318L80.4417 57.388L91.7065 52.4816C94.322 51.3425 96.7303 50.8495 98.9317 51.0026C101.138 51.141 103.099 51.7756 104.816 52.9066C106.533 54.0375 107.954 55.5146 109.08 57.3378C110.205 59.1609 110.826 60.9928 110.943 62.8334C111.071 64.6692 110.579 66.3919 109.465 68.0015C108.346 69.6011 106.489 70.9657 103.895 72.0953L95.8212 75.612L93.7694 72.288L101.713 68.828C103.504 68.0481 104.765 67.1347 105.496 66.0879C106.227 65.0411 106.535 63.9228 106.42 62.733C106.31 61.5285 105.872 60.3067 105.108 59.0677C104.343 57.8288 103.409 56.8295 102.307 56.0698C101.216 55.3055 99.951 54.885 98.5129 54.8084C97.0687 54.7217 95.4404 55.073 93.628 55.8624L86.5305 58.9537L103.578 86.5734L99.5412 88.3318Z" fill="black"/>
<path d="M130.015 76.3767L125.648 77.8746L122.38 40.838L126.68 39.3632L155.208 67.7353L150.841 69.2331L127.18 45.2284L126.911 45.3206L130.015 76.3767ZM125.417 63.0485L143.018 57.0111L144.726 60.5242L127.125 66.5617L125.417 63.0485Z" fill="black"/>
<path d="M147.394 37.0466L146.062 33.3746L172.482 26.6106L173.815 30.2826L162.737 33.1186L173.807 63.6299L169.541 64.722L158.471 34.2107L147.394 37.0466Z" fill="black"/>
<path d="M192.054 59.825L183.557 24.4681L187.898 23.7319L191.682 39.4767L210.799 36.2349L207.015 20.49L211.356 19.7538L219.853 55.1107L215.512 55.8469L211.711 40.033L192.595 43.2749L196.396 59.0888L192.054 59.825Z" fill="black"/>
<path d="M221.335 18.6119L226.359 18.1825L238.449 34.1749L238.873 34.1387L246.881 16.4286L251.905 15.9992L241.384 38.3408L243.186 53.2179L238.799 53.5928L236.997 38.7157L221.335 18.6119Z" fill="black"/>
<path d="M285.32 15.7489L284.648 52.1064L280.245 52.049L280.916 15.6916L285.32 15.7489Z" fill="black"/>
<path d="M328.775 18.2175L324.914 54.3755L320.664 54.0553L303.937 24.1767L303.583 24.15L300.551 52.5398L296.16 52.2089L300.021 16.0508L304.271 16.371L321.062 46.3256L321.416 46.3523L324.455 17.8919L328.775 18.2175Z" fill="black"/>
<path d="M351.939 58.0181L347.413 57.1079L370.47 24.7695L374.927 25.6657L378.05 63.2693L373.524 62.3591L371.261 30.7781L370.982 30.7221L351.939 58.0181ZM357.504 44.6937L375.746 48.3625L374.676 52.1191L356.433 48.4503L357.504 44.6937Z" fill="black"/>
<path d="M421.011 49.2636L416.781 48.0401C417.011 46.7959 416.995 45.6397 416.734 44.5716C416.483 43.5068 416.038 42.545 415.398 41.686C414.774 40.8194 413.99 40.0782 413.047 39.4624C412.104 38.8465 411.052 38.3709 409.893 38.0354C407.778 37.4237 405.651 37.3843 403.512 37.9172C401.384 38.4534 399.403 39.5773 397.57 41.2889C395.747 43.0038 394.239 45.318 393.045 48.2314C391.851 51.1449 391.343 53.7485 391.522 56.0422C391.713 58.3393 392.45 60.2493 393.733 61.7722C395.028 63.2984 396.733 64.3673 398.848 64.9791C400.008 65.3145 401.185 65.4835 402.38 65.486C403.575 65.4885 404.733 65.3152 405.856 64.966C406.994 64.6092 408.052 64.076 409.03 63.3665C410.023 62.6492 410.883 61.7463 411.609 60.6577L415.839 61.8812C414.816 63.5086 413.605 64.8798 412.207 65.9945C410.809 67.1093 409.289 67.9622 407.648 68.5533C406.011 69.1334 404.312 69.4447 402.553 69.4869C400.804 69.5325 399.049 69.3004 397.286 68.7906C394.307 67.9289 391.945 66.4616 390.2 64.3887C388.455 62.3158 387.447 59.7945 387.176 56.8249C386.905 53.8552 387.497 50.5961 388.951 47.0474C390.406 43.4987 392.328 40.6244 394.718 38.4243C397.108 36.2243 399.75 34.7588 402.645 34.0278C405.539 33.2968 408.476 33.3622 411.455 34.2239C413.217 34.7337 414.771 35.4586 416.115 36.3988C417.471 37.3423 418.579 38.4713 419.439 39.786C420.304 41.0897 420.879 42.5423 421.164 44.1439C421.453 45.7344 421.402 47.441 421.011 49.2636Z" fill="black"/>
<path d="M431.73 44.9871L433.59 41.5524L459.065 51.2901L457.205 54.7248L446.524 50.6421L431.064 79.1812L426.951 77.609L442.41 49.0699L431.73 44.9871Z" fill="black"/>
<path d="M472.264 57.2352L452.604 87.8259L448.594 86.0072L468.254 55.4165L472.264 57.2352Z" fill="black"/>
<path d="M501.174 92.0847C498.847 95.1333 496.227 97.4394 493.312 99.0032C490.398 100.567 487.418 101.378 484.373 101.438C481.328 101.497 478.44 100.791 475.709 99.3205C472.979 97.8498 471.01 95.9397 469.804 93.5902C468.597 91.2407 468.232 88.6272 468.707 85.7499C469.183 82.8726 470.584 79.9097 472.911 76.8611C475.239 73.8126 477.859 71.5064 480.774 69.9426C483.688 68.3788 486.668 67.5673 489.713 67.5081C492.758 67.4489 495.646 68.1546 498.377 69.6253C501.107 71.096 503.076 73.0061 504.282 75.3557C505.489 77.7052 505.854 80.3186 505.379 83.1959C504.903 86.0732 503.502 89.0362 501.174 92.0847ZM497.423 90.0639C499.333 87.561 500.482 85.1989 500.869 82.9774C501.266 80.7616 501.015 78.7876 500.117 77.0555C499.229 75.3291 497.816 73.9438 495.877 72.8997C493.939 71.8556 491.845 71.352 489.596 71.3888C487.358 71.4312 485.118 72.0636 482.876 73.2859C480.645 74.5138 478.574 76.3791 476.663 78.8819C474.753 81.3848 473.599 83.7441 473.202 85.96C472.815 88.1814 473.065 90.1554 473.953 91.8819C474.852 93.6139 476.27 95.002 478.209 96.0461C480.147 97.0902 482.235 97.591 484.474 97.5486C486.723 97.5118 488.963 96.8794 491.194 95.6515C493.436 94.4292 495.512 92.5667 497.423 90.0639Z" fill="black"/>
<path d="M544.817 98.9925L519.76 125.345L516.222 122.971L519.44 91.2398L519.145 91.042L499.472 111.733L495.815 109.28L520.872 82.9269L524.411 85.3011L521.202 117.123L521.497 117.321L541.219 96.5787L544.817 98.9925Z" fill="black"/>
</svg>
